<?xml version="1.0" encoding="utf-8" standalone="no"?>
<!DOCTYPE svg PUBLIC "-//W3C//DTD SVG 1.1//EN"
  "http://www.w3.org/Graphics/SVG/1.1/DTD/svg11.dtd">
<!-- Created with matplotlib (https://matplotlib.org/) -->
<svg height="576pt" version="1.1" viewBox="0 0 576 576" width="576pt" xmlns="http://www.w3.org/2000/svg" xmlns:xlink="http://www.w3.org/1999/xlink">
 <metadata>
  <rdf:RDF xmlns:cc="http://creativecommons.org/ns#" xmlns:dc="http://purl.org/dc/elements/1.1/" xmlns:rdf="http://www.w3.org/1999/02/22-rdf-syntax-ns#">
   <cc:Work>
    <dc:type rdf:resource="http://purl.org/dc/dcmitype/StillImage"/>
    <dc:date>2022-03-29T10:55:18.055651</dc:date>
    <dc:format>image/svg+xml</dc:format>
    <dc:creator>
     <cc:Agent>
      <dc:title>Matplotlib v3.3.4, https://matplotlib.org/</dc:title>
     </cc:Agent>
    </dc:creator>
   </cc:Work>
  </rdf:RDF>
 </metadata>
 <defs>
  <style type="text/css">*{stroke-linecap:butt;stroke-linejoin:round;}</style>
 </defs>
 <g id="figure_1">
  <g id="patch_1">
   <path d="M 0 576 
L 576 576 
L 576 0 
L 0 0 
z
" style="fill:#ffffff;"/>
  </g>
  <g id="axes_1">
   <g id="patch_2">
    <path d="M 72 512.64 
L 518.4 512.64 
L 518.4 69.12 
L 72 69.12 
z
" style="fill:#ffffff;"/>
   </g>
   <g id="PathCollection_1">
    <defs>
     <path d="M 0 3 
C 0.795609 3 1.55874 2.683901 2.12132 2.12132 
C 2.683901 1.55874 3 0.795609 3 0 
C 3 -0.795609 2.683901 -1.55874 2.12132 -2.12132 
C 1.55874 -2.683901 0.795609 -3 0 -3 
C -0.795609 -3 -1.55874 -2.683901 -2.12132 -2.12132 
C -2.683901 -1.55874 -3 -0.795609 -3 0 
C -3 0.795609 -2.683901 1.55874 -2.12132 2.12132 
C -1.55874 2.683901 -0.795609 3 0 3 
z
" id="m2e6a33a801" style="stroke:#1f77b4;"/>
    </defs>
    <g clip-path="url(#p7987230534)">
     <use style="fill:#1f77b4;stroke:#1f77b4;" x="92.290909" xlink:href="#m2e6a33a801" y="89.28"/>
     <use style="fill:#1f77b4;stroke:#1f77b4;" x="93.293424" xlink:href="#m2e6a33a801" y="91.519874"/>
     <use style="fill:#1f77b4;stroke:#1f77b4;" x="94.095437" xlink:href="#m2e6a33a801" y="94.528998"/>
     <use style="fill:#1f77b4;stroke:#1f77b4;" x="95.498958" xlink:href="#m2e6a33a801" y="94.845748"/>
     <use style="fill:#1f77b4;stroke:#1f77b4;" x="96.601725" xlink:href="#m2e6a33a801" y="95.660248"/>
     <use style="fill:#1f77b4;stroke:#1f77b4;" x="99.709522" xlink:href="#m2e6a33a801" y="99.121872"/>
     <use style="fill:#1f77b4;stroke:#1f77b4;" x="102.516565" xlink:href="#m2e6a33a801" y="99.755372"/>
     <use style="fill:#1f77b4;stroke:#1f77b4;" x="103.920086" xlink:href="#m2e6a33a801" y="100.072122"/>
     <use style="fill:#1f77b4;stroke:#1f77b4;" x="104.922602" xlink:href="#m2e6a33a801" y="103.126496"/>
     <use style="fill:#1f77b4;stroke:#1f77b4;" x="105.223356" xlink:href="#m2e6a33a801" y="103.194371"/>
     <use style="fill:#1f77b4;stroke:#1f77b4;" x="107.027884" xlink:href="#m2e6a33a801" y="103.601621"/>
     <use style="fill:#1f77b4;stroke:#1f77b4;" x="109.43392" xlink:href="#m2e6a33a801" y="104.14462"/>
     <use style="fill:#1f77b4;stroke:#1f77b4;" x="110.436436" xlink:href="#m2e6a33a801" y="107.945619"/>
     <use style="fill:#1f77b4;stroke:#1f77b4;" x="113.844987" xlink:href="#m2e6a33a801" y="141.656859"/>
     <use style="fill:#1f77b4;stroke:#1f77b4;" x="114.245994" xlink:href="#m2e6a33a801" y="141.747359"/>
     <use style="fill:#1f77b4;stroke:#1f77b4;" x="114.847503" xlink:href="#m2e6a33a801" y="193.762218"/>
     <use style="fill:#1f77b4;stroke:#1f77b4;" x="115.649515" xlink:href="#m2e6a33a801" y="196.771342"/>
     <use style="fill:#1f77b4;stroke:#1f77b4;" x="116.65203" xlink:href="#m2e6a33a801" y="199.011216"/>
     <use style="fill:#1f77b4;stroke:#1f77b4;" x="118.456558" xlink:href="#m2e6a33a801" y="199.418466"/>
     <use style="fill:#1f77b4;stroke:#1f77b4;" x="118.957815" xlink:href="#m2e6a33a801" y="199.531591"/>
     <use style="fill:#1f77b4;stroke:#1f77b4;" x="119.158318" xlink:href="#m2e6a33a801" y="200.142466"/>
     <use style="fill:#1f77b4;stroke:#1f77b4;" x="121.664607" xlink:href="#m2e6a33a801" y="206.296464"/>
     <use style="fill:#1f77b4;stroke:#1f77b4;" x="122.667122" xlink:href="#m2e6a33a801" y="208.536338"/>
     <use style="fill:#1f77b4;stroke:#1f77b4;" x="124.972907" xlink:href="#m2e6a33a801" y="209.056713"/>
     <use style="fill:#1f77b4;stroke:#1f77b4;" x="127.078189" xlink:href="#m2e6a33a801" y="209.531838"/>
     <use style="fill:#1f77b4;stroke:#1f77b4;" x="129.383974" xlink:href="#m2e6a33a801" y="210.052213"/>
     <use style="fill:#1f77b4;stroke:#1f77b4;" x="129.684729" xlink:href="#m2e6a33a801" y="210.120088"/>
     <use style="fill:#1f77b4;stroke:#1f77b4;" x="131.489256" xlink:href="#m2e6a33a801" y="210.527337"/>
     <use style="fill:#1f77b4;stroke:#1f77b4;" x="132.191017" xlink:href="#m2e6a33a801" y="210.685712"/>
     <use style="fill:#1f77b4;stroke:#1f77b4;" x="133.69479" xlink:href="#m2e6a33a801" y="211.341837"/>
     <use style="fill:#1f77b4;stroke:#1f77b4;" x="133.995544" xlink:href="#m2e6a33a801" y="216.319336"/>
     <use style="fill:#1f77b4;stroke:#1f77b4;" x="144.722458" xlink:href="#m2e6a33a801" y="252.066825"/>
     <use style="fill:#1f77b4;stroke:#1f77b4;" x="145.724973" xlink:href="#m2e6a33a801" y="254.306699"/>
     <use style="fill:#1f77b4;stroke:#1f77b4;" x="147.529501" xlink:href="#m2e6a33a801" y="254.713949"/>
     <use style="fill:#1f77b4;stroke:#1f77b4;" x="148.030758" xlink:href="#m2e6a33a801" y="254.827074"/>
     <use style="fill:#1f77b4;stroke:#1f77b4;" x="149.233777" xlink:href="#m2e6a33a801" y="255.098574"/>
     <use style="fill:#1f77b4;stroke:#1f77b4;" x="149.835286" xlink:href="#m2e6a33a801" y="255.234324"/>
     <use style="fill:#1f77b4;stroke:#1f77b4;" x="150.13604" xlink:href="#m2e6a33a801" y="255.302199"/>
     <use style="fill:#1f77b4;stroke:#1f77b4;" x="150.436795" xlink:href="#m2e6a33a801" y="255.370074"/>
     <use style="fill:#1f77b4;stroke:#1f77b4;" x="151.038304" xlink:href="#m2e6a33a801" y="258.152948"/>
     <use style="fill:#1f77b4;stroke:#1f77b4;" x="151.539562" xlink:href="#m2e6a33a801" y="258.944822"/>
     <use style="fill:#1f77b4;stroke:#1f77b4;" x="151.740065" xlink:href="#m2e6a33a801" y="263.831821"/>
     <use style="fill:#1f77b4;stroke:#1f77b4;" x="154.04585" xlink:href="#m2e6a33a801" y="264.352196"/>
     <use style="fill:#1f77b4;stroke:#1f77b4;" x="155.248868" xlink:href="#m2e6a33a801" y="264.623696"/>
     <use style="fill:#1f77b4;stroke:#1f77b4;" x="156.151132" xlink:href="#m2e6a33a801" y="264.827321"/>
     <use style="fill:#1f77b4;stroke:#1f77b4;" x="156.451886" xlink:href="#m2e6a33a801" y="264.895196"/>
     <use style="fill:#1f77b4;stroke:#1f77b4;" x="156.752641" xlink:href="#m2e6a33a801" y="264.963071"/>
     <use style="fill:#1f77b4;stroke:#1f77b4;" x="157.053396" xlink:href="#m2e6a33a801" y="267.67807"/>
     <use style="fill:#1f77b4;stroke:#1f77b4;" x="159.359181" xlink:href="#m2e6a33a801" y="267.881695"/>
     <use style="fill:#1f77b4;stroke:#1f77b4;" x="160.562199" xlink:href="#m2e6a33a801" y="268.469944"/>
     <use style="fill:#1f77b4;stroke:#1f77b4;" x="161.063457" xlink:href="#m2e6a33a801" y="268.583069"/>
     <use style="fill:#1f77b4;stroke:#1f77b4;" x="161.163708" xlink:href="#m2e6a33a801" y="268.605694"/>
     <use style="fill:#1f77b4;stroke:#1f77b4;" x="161.464463" xlink:href="#m2e6a33a801" y="268.673569"/>
     <use style="fill:#1f77b4;stroke:#1f77b4;" x="161.765217" xlink:href="#m2e6a33a801" y="268.741444"/>
     <use style="fill:#1f77b4;stroke:#1f77b4;" x="162.366727" xlink:href="#m2e6a33a801" y="271.207569"/>
     <use style="fill:#1f77b4;stroke:#1f77b4;" x="165.374272" xlink:href="#m2e6a33a801" y="271.886318"/>
     <use style="fill:#1f77b4;stroke:#1f77b4;" x="166.477039" xlink:href="#m2e6a33a801" y="272.135193"/>
     <use style="fill:#1f77b4;stroke:#1f77b4;" x="166.777794" xlink:href="#m2e6a33a801" y="272.203068"/>
     <use style="fill:#1f77b4;stroke:#1f77b4;" x="167.078548" xlink:href="#m2e6a33a801" y="272.270943"/>
     <use style="fill:#1f77b4;stroke:#1f77b4;" x="168.782824" xlink:href="#m2e6a33a801" y="272.904443"/>
     <use style="fill:#1f77b4;stroke:#1f77b4;" x="171.589867" xlink:href="#m2e6a33a801" y="273.289068"/>
     <use style="fill:#1f77b4;stroke:#1f77b4;" x="171.690119" xlink:href="#m2e6a33a801" y="273.311693"/>
     <use style="fill:#1f77b4;stroke:#1f77b4;" x="172.792885" xlink:href="#m2e6a33a801" y="273.492693"/>
     <use style="fill:#1f77b4;stroke:#1f77b4;" x="173.695149" xlink:href="#m2e6a33a801" y="276.343442"/>
     <use style="fill:#1f77b4;stroke:#1f77b4;" x="176.502192" xlink:href="#m2e6a33a801" y="276.728067"/>
     <use style="fill:#1f77b4;stroke:#1f77b4;" x="179.910744" xlink:href="#m2e6a33a801" y="283.40244"/>
     <use style="fill:#1f77b4;stroke:#1f77b4;" x="181.214014" xlink:href="#m2e6a33a801" y="292.950187"/>
     <use style="fill:#1f77b4;stroke:#1f77b4;" x="181.915774" xlink:href="#m2e6a33a801" y="295.936686"/>
     <use style="fill:#1f77b4;stroke:#1f77b4;" x="182.016026" xlink:href="#m2e6a33a801" y="295.959311"/>
     <use style="fill:#1f77b4;stroke:#1f77b4;" x="185.424578" xlink:href="#m2e6a33a801" y="296.728561"/>
     <use style="fill:#1f77b4;stroke:#1f77b4;" x="186.126338" xlink:href="#m2e6a33a801" y="296.886936"/>
     <use style="fill:#1f77b4;stroke:#1f77b4;" x="186.326842" xlink:href="#m2e6a33a801" y="296.932186"/>
     <use style="fill:#1f77b4;stroke:#1f77b4;" x="186.627596" xlink:href="#m2e6a33a801" y="297.000061"/>
     <use style="fill:#1f77b4;stroke:#1f77b4;" x="186.727848" xlink:href="#m2e6a33a801" y="297.022686"/>
     <use style="fill:#1f77b4;stroke:#1f77b4;" x="187.229105" xlink:href="#m2e6a33a801" y="299.782935"/>
     <use style="fill:#1f77b4;stroke:#1f77b4;" x="187.329357" xlink:href="#m2e6a33a801" y="299.80556"/>
     <use style="fill:#1f77b4;stroke:#1f77b4;" x="189.53489" xlink:href="#m2e6a33a801" y="299.98656"/>
     <use style="fill:#1f77b4;stroke:#1f77b4;" x="189.935897" xlink:href="#m2e6a33a801" y="300.39381"/>
     <use style="fill:#1f77b4;stroke:#1f77b4;" x="190.236651" xlink:href="#m2e6a33a801" y="300.461685"/>
     <use style="fill:#1f77b4;stroke:#1f77b4;" x="190.737909" xlink:href="#m2e6a33a801" y="300.574809"/>
     <use style="fill:#1f77b4;stroke:#1f77b4;" x="190.83816" xlink:href="#m2e6a33a801" y="300.597434"/>
     <use style="fill:#1f77b4;stroke:#1f77b4;" x="191.640172" xlink:href="#m2e6a33a801" y="300.778434"/>
     <use style="fill:#1f77b4;stroke:#1f77b4;" x="191.940927" xlink:href="#m2e6a33a801" y="300.846309"/>
     <use style="fill:#1f77b4;stroke:#1f77b4;" x="192.542436" xlink:href="#m2e6a33a801" y="303.312434"/>
     <use style="fill:#1f77b4;stroke:#1f77b4;" x="195.549982" xlink:href="#m2e6a33a801" y="303.991183"/>
     <use style="fill:#1f77b4;stroke:#1f77b4;" x="196.05124" xlink:href="#m2e6a33a801" y="304.104308"/>
     <use style="fill:#1f77b4;stroke:#1f77b4;" x="196.652749" xlink:href="#m2e6a33a801" y="304.240058"/>
     <use style="fill:#1f77b4;stroke:#1f77b4;" x="196.953503" xlink:href="#m2e6a33a801" y="304.307933"/>
     <use style="fill:#1f77b4;stroke:#1f77b4;" x="197.254258" xlink:href="#m2e6a33a801" y="304.375808"/>
     <use style="fill:#1f77b4;stroke:#1f77b4;" x="199.35954" xlink:href="#m2e6a33a801" y="304.398433"/>
     <use style="fill:#1f77b4;stroke:#1f77b4;" x="200.261804" xlink:href="#m2e6a33a801" y="305.054558"/>
     <use style="fill:#1f77b4;stroke:#1f77b4;" x="201.665325" xlink:href="#m2e6a33a801" y="305.371308"/>
     <use style="fill:#1f77b4;stroke:#1f77b4;" x="201.865828" xlink:href="#m2e6a33a801" y="305.416558"/>
     <use style="fill:#1f77b4;stroke:#1f77b4;" x="202.166583" xlink:href="#m2e6a33a801" y="305.484433"/>
     <use style="fill:#1f77b4;stroke:#1f77b4;" x="203.26935" xlink:href="#m2e6a33a801" y="305.733308"/>
     <use style="fill:#1f77b4;stroke:#1f77b4;" x="203.469853" xlink:href="#m2e6a33a801" y="305.778558"/>
     <use style="fill:#1f77b4;stroke:#1f77b4;" x="204.472368" xlink:href="#m2e6a33a801" y="306.004808"/>
     <use style="fill:#1f77b4;stroke:#1f77b4;" x="205.775638" xlink:href="#m2e6a33a801" y="306.298933"/>
     <use style="fill:#1f77b4;stroke:#1f77b4;" x="205.875889" xlink:href="#m2e6a33a801" y="306.321558"/>
     <use style="fill:#1f77b4;stroke:#1f77b4;" x="207.179159" xlink:href="#m2e6a33a801" y="306.615683"/>
     <use style="fill:#1f77b4;stroke:#1f77b4;" x="207.479914" xlink:href="#m2e6a33a801" y="306.660933"/>
     <use style="fill:#1f77b4;stroke:#1f77b4;" x="207.780668" xlink:href="#m2e6a33a801" y="306.728808"/>
     <use style="fill:#1f77b4;stroke:#1f77b4;" x="207.981171" xlink:href="#m2e6a33a801" y="306.796683"/>
     <use style="fill:#1f77b4;stroke:#1f77b4;" x="209.585196" xlink:href="#m2e6a33a801" y="309.466432"/>
     <use style="fill:#1f77b4;stroke:#1f77b4;" x="214.698024" xlink:href="#m2e6a33a801" y="310.167807"/>
     <use style="fill:#1f77b4;stroke:#1f77b4;" x="216.602803" xlink:href="#m2e6a33a801" y="311.050181"/>
     <use style="fill:#1f77b4;stroke:#1f77b4;" x="218.106576" xlink:href="#m2e6a33a801" y="311.253806"/>
     <use style="fill:#1f77b4;stroke:#1f77b4;" x="218.708085" xlink:href="#m2e6a33a801" y="317.588804"/>
     <use style="fill:#1f77b4;stroke:#1f77b4;" x="224.121667" xlink:href="#m2e6a33a801" y="318.606929"/>
     <use style="fill:#1f77b4;stroke:#1f77b4;" x="224.923679" xlink:href="#m2e6a33a801" y="318.787929"/>
     <use style="fill:#1f77b4;stroke:#1f77b4;" x="227.229465" xlink:href="#m2e6a33a801" y="318.810554"/>
     <use style="fill:#1f77b4;stroke:#1f77b4;" x="227.329716" xlink:href="#m2e6a33a801" y="320.507428"/>
     <use style="fill:#1f77b4;stroke:#1f77b4;" x="228.23198" xlink:href="#m2e6a33a801" y="320.552678"/>
     <use style="fill:#1f77b4;stroke:#1f77b4;" x="228.432483" xlink:href="#m2e6a33a801" y="334.037174"/>
     <use style="fill:#1f77b4;stroke:#1f77b4;" x="230.337262" xlink:href="#m2e6a33a801" y="334.421799"/>
     <use style="fill:#1f77b4;stroke:#1f77b4;" x="230.638017" xlink:href="#m2e6a33a801" y="334.489674"/>
     <use style="fill:#1f77b4;stroke:#1f77b4;" x="234.046568" xlink:href="#m2e6a33a801" y="335.575674"/>
     <use style="fill:#1f77b4;stroke:#1f77b4;" x="236.953863" xlink:href="#m2e6a33a801" y="341.955922"/>
     <use style="fill:#1f77b4;stroke:#1f77b4;" x="243.670715" xlink:href="#m2e6a33a801" y="345.80217"/>
     <use style="fill:#1f77b4;stroke:#1f77b4;" x="249.685807" xlink:href="#m2e6a33a801" y="347.34067"/>
     <use style="fill:#1f77b4;stroke:#1f77b4;" x="250.287316" xlink:href="#m2e6a33a801" y="347.47642"/>
     <use style="fill:#1f77b4;stroke:#1f77b4;" x="250.487819" xlink:href="#m2e6a33a801" y="348.766045"/>
     <use style="fill:#1f77b4;stroke:#1f77b4;" x="252.292346" xlink:href="#m2e6a33a801" y="348.78867"/>
     <use style="fill:#1f77b4;stroke:#1f77b4;" x="254.397628" xlink:href="#m2e6a33a801" y="349.263794"/>
     <use style="fill:#1f77b4;stroke:#1f77b4;" x="254.49788" xlink:href="#m2e6a33a801" y="351.073794"/>
     <use style="fill:#1f77b4;stroke:#1f77b4;" x="255.299892" xlink:href="#m2e6a33a801" y="351.254794"/>
     <use style="fill:#1f77b4;stroke:#1f77b4;" x="255.80115" xlink:href="#m2e6a33a801" y="352.612293"/>
     <use style="fill:#1f77b4;stroke:#1f77b4;" x="257.605677" xlink:href="#m2e6a33a801" y="352.634918"/>
     <use style="fill:#1f77b4;stroke:#1f77b4;" x="260.613223" xlink:href="#m2e6a33a801" y="354.603293"/>
     <use style="fill:#1f77b4;stroke:#1f77b4;" x="261.114481" xlink:href="#m2e6a33a801" y="356.141792"/>
     <use style="fill:#1f77b4;stroke:#1f77b4;" x="262.919008" xlink:href="#m2e6a33a801" y="356.164417"/>
     <use style="fill:#1f77b4;stroke:#1f77b4;" x="267.63083" xlink:href="#m2e6a33a801" y="357.046792"/>
     <use style="fill:#1f77b4;stroke:#1f77b4;" x="268.031836" xlink:href="#m2e6a33a801" y="357.431417"/>
     <use style="fill:#1f77b4;stroke:#1f77b4;" x="268.332591" xlink:href="#m2e6a33a801" y="359.671291"/>
     <use style="fill:#1f77b4;stroke:#1f77b4;" x="269.736112" xlink:href="#m2e6a33a801" y="370.825413"/>
     <use style="fill:#1f77b4;stroke:#1f77b4;" x="269.836364" xlink:href="#m2e6a33a801" y="370.848038"/>
     <use style="fill:#1f77b4;stroke:#1f77b4;" x="269.936615" xlink:href="#m2e6a33a801" y="370.870663"/>
     <use style="fill:#1f77b4;stroke:#1f77b4;" x="271.941646" xlink:href="#m2e6a33a801" y="370.915913"/>
     <use style="fill:#1f77b4;stroke:#1f77b4;" x="272.643406" xlink:href="#m2e6a33a801" y="371.481538"/>
     <use style="fill:#1f77b4;stroke:#1f77b4;" x="273.946676" xlink:href="#m2e6a33a801" y="371.798287"/>
     <use style="fill:#1f77b4;stroke:#1f77b4;" x="274.84894" xlink:href="#m2e6a33a801" y="371.979287"/>
     <use style="fill:#1f77b4;stroke:#1f77b4;" x="275.249946" xlink:href="#m2e6a33a801" y="374.377537"/>
     <use style="fill:#1f77b4;stroke:#1f77b4;" x="275.450449" xlink:href="#m2e6a33a801" y="376.368536"/>
     <use style="fill:#1f77b4;stroke:#1f77b4;" x="276.452964" xlink:href="#m2e6a33a801" y="378.60841"/>
     <use style="fill:#1f77b4;stroke:#1f77b4;" x="279.961768" xlink:href="#m2e6a33a801" y="379.400285"/>
     <use style="fill:#1f77b4;stroke:#1f77b4;" x="281.164786" xlink:href="#m2e6a33a801" y="379.671785"/>
     <use style="fill:#1f77b4;stroke:#1f77b4;" x="282.969314" xlink:href="#m2e6a33a801" y="382.318909"/>
     <use style="fill:#1f77b4;stroke:#1f77b4;" x="284.372835" xlink:href="#m2e6a33a801" y="382.341534"/>
     <use style="fill:#1f77b4;stroke:#1f77b4;" x="287.179878" xlink:href="#m2e6a33a801" y="384.717158"/>
     <use style="fill:#1f77b4;stroke:#1f77b4;" x="288.583399" xlink:href="#m2e6a33a801" y="385.848408"/>
     <use style="fill:#1f77b4;stroke:#1f77b4;" x="292.59346" xlink:href="#m2e6a33a801" y="388.246657"/>
     <use style="fill:#1f77b4;stroke:#1f77b4;" x="295.300252" xlink:href="#m2e6a33a801" y="391.097406"/>
     <use style="fill:#1f77b4;stroke:#1f77b4;" x="301.014589" xlink:href="#m2e6a33a801" y="393.156281"/>
     <use style="fill:#1f77b4;stroke:#1f77b4;" x="301.616098" xlink:href="#m2e6a33a801" y="393.292031"/>
     <use style="fill:#1f77b4;stroke:#1f77b4;" x="301.816601" xlink:href="#m2e6a33a801" y="393.337281"/>
     <use style="fill:#1f77b4;stroke:#1f77b4;" x="301.916852" xlink:href="#m2e6a33a801" y="394.69478"/>
     <use style="fill:#1f77b4;stroke:#1f77b4;" x="302.217607" xlink:href="#m2e6a33a801" y="395.23778"/>
     <use style="fill:#1f77b4;stroke:#1f77b4;" x="306.32792" xlink:href="#m2e6a33a801" y="396.68578"/>
     <use style="fill:#1f77b4;stroke:#1f77b4;" x="306.929429" xlink:href="#m2e6a33a801" y="396.82153"/>
     <use style="fill:#1f77b4;stroke:#1f77b4;" x="307.129932" xlink:href="#m2e6a33a801" y="396.86678"/>
     <use style="fill:#1f77b4;stroke:#1f77b4;" x="307.230183" xlink:href="#m2e6a33a801" y="398.224279"/>
     <use style="fill:#1f77b4;stroke:#1f77b4;" x="307.330435" xlink:href="#m2e6a33a801" y="398.246904"/>
     <use style="fill:#1f77b4;stroke:#1f77b4;" x="308.232699" xlink:href="#m2e6a33a801" y="398.450529"/>
     <use style="fill:#1f77b4;stroke:#1f77b4;" x="308.533453" xlink:href="#m2e6a33a801" y="398.970904"/>
     <use style="fill:#1f77b4;stroke:#1f77b4;" x="308.733956" xlink:href="#m2e6a33a801" y="399.016154"/>
     <use style="fill:#1f77b4;stroke:#1f77b4;" x="309.235214" xlink:href="#m2e6a33a801" y="399.129279"/>
     <use style="fill:#1f77b4;stroke:#1f77b4;" x="311.039741" xlink:href="#m2e6a33a801" y="403.699528"/>
     <use style="fill:#1f77b4;stroke:#1f77b4;" x="315.150054" xlink:href="#m2e6a33a801" y="404.943902"/>
     <use style="fill:#1f77b4;stroke:#1f77b4;" x="318.1576" xlink:href="#m2e6a33a801" y="409.084276"/>
     <use style="fill:#1f77b4;stroke:#1f77b4;" x="320.363133" xlink:href="#m2e6a33a801" y="409.582026"/>
     <use style="fill:#1f77b4;stroke:#1f77b4;" x="320.463385" xlink:href="#m2e6a33a801" y="409.604651"/>
     <use style="fill:#1f77b4;stroke:#1f77b4;" x="320.764139" xlink:href="#m2e6a33a801" y="409.672526"/>
     <use style="fill:#1f77b4;stroke:#1f77b4;" x="321.766655" xlink:href="#m2e6a33a801" y="411.95765"/>
     <use style="fill:#1f77b4;stroke:#1f77b4;" x="323.270428" xlink:href="#m2e6a33a801" y="412.568525"/>
     <use style="fill:#1f77b4;stroke:#1f77b4;" x="325.475961" xlink:href="#m2e6a33a801" y="413.066275"/>
     <use style="fill:#1f77b4;stroke:#1f77b4;" x="325.576213" xlink:href="#m2e6a33a801" y="413.0889"/>
     <use style="fill:#1f77b4;stroke:#1f77b4;" x="326.378225" xlink:href="#m2e6a33a801" y="418.813023"/>
     <use style="fill:#1f77b4;stroke:#1f77b4;" x="327.38074" xlink:href="#m2e6a33a801" y="419.853773"/>
     <use style="fill:#1f77b4;stroke:#1f77b4;" x="327.881998" xlink:href="#m2e6a33a801" y="419.966897"/>
     <use style="fill:#1f77b4;stroke:#1f77b4;" x="328.182752" xlink:href="#m2e6a33a801" y="420.034772"/>
     <use style="fill:#1f77b4;stroke:#1f77b4;" x="332.59382" xlink:href="#m2e6a33a801" y="422.614022"/>
     <use style="fill:#1f77b4;stroke:#1f77b4;" x="332.694071" xlink:href="#m2e6a33a801" y="426.46027"/>
     <use style="fill:#1f77b4;stroke:#1f77b4;" x="333.696586" xlink:href="#m2e6a33a801" y="427.50102"/>
     <use style="fill:#1f77b4;stroke:#1f77b4;" x="334.197844" xlink:href="#m2e6a33a801" y="427.614145"/>
     <use style="fill:#1f77b4;stroke:#1f77b4;" x="334.498599" xlink:href="#m2e6a33a801" y="427.68202"/>
     <use style="fill:#1f77b4;stroke:#1f77b4;" x="335.400862" xlink:href="#m2e6a33a801" y="427.885645"/>
     <use style="fill:#1f77b4;stroke:#1f77b4;" x="336.102623" xlink:href="#m2e6a33a801" y="428.04402"/>
     <use style="fill:#1f77b4;stroke:#1f77b4;" x="337.706648" xlink:href="#m2e6a33a801" y="429.899269"/>
     <use style="fill:#1f77b4;stroke:#1f77b4;" x="338.50866" xlink:href="#m2e6a33a801" y="430.080269"/>
     <use style="fill:#1f77b4;stroke:#1f77b4;" x="347.7318" xlink:href="#m2e6a33a801" y="432.636894"/>
     <use style="fill:#1f77b4;stroke:#1f77b4;" x="352.644125" xlink:href="#m2e6a33a801" y="436.075892"/>
     <use style="fill:#1f77b4;stroke:#1f77b4;" x="357.957456" xlink:href="#m2e6a33a801" y="438.361017"/>
     <use style="fill:#1f77b4;stroke:#1f77b4;" x="362.569026" xlink:href="#m2e6a33a801" y="440.646141"/>
     <use style="fill:#1f77b4;stroke:#1f77b4;" x="365.075314" xlink:href="#m2e6a33a801" y="440.759266"/>
     <use style="fill:#1f77b4;stroke:#1f77b4;" x="368.884872" xlink:href="#m2e6a33a801" y="445.57839"/>
     <use style="fill:#1f77b4;stroke:#1f77b4;" x="369.38613" xlink:href="#m2e6a33a801" y="445.691515"/>
     <use style="fill:#1f77b4;stroke:#1f77b4;" x="369.486382" xlink:href="#m2e6a33a801" y="448.021889"/>
     <use style="fill:#1f77b4;stroke:#1f77b4;" x="370.288394" xlink:href="#m2e6a33a801" y="448.202889"/>
     <use style="fill:#1f77b4;stroke:#1f77b4;" x="372.493927" xlink:href="#m2e6a33a801" y="449.379388"/>
     <use style="fill:#1f77b4;stroke:#1f77b4;" x="373.496443" xlink:href="#m2e6a33a801" y="450.420138"/>
     <use style="fill:#1f77b4;stroke:#1f77b4;" x="373.9977" xlink:href="#m2e6a33a801" y="450.533263"/>
     <use style="fill:#1f77b4;stroke:#1f77b4;" x="374.298455" xlink:href="#m2e6a33a801" y="450.601138"/>
     <use style="fill:#1f77b4;stroke:#1f77b4;" x="379.812289" xlink:href="#m2e6a33a801" y="451.845513"/>
     <use style="fill:#1f77b4;stroke:#1f77b4;" x="380.313547" xlink:href="#m2e6a33a801" y="451.958638"/>
     <use style="fill:#1f77b4;stroke:#1f77b4;" x="386.829896" xlink:href="#m2e6a33a801" y="453.157762"/>
     <use style="fill:#1f77b4;stroke:#1f77b4;" x="388.43392" xlink:href="#m2e6a33a801" y="456.596761"/>
     <use style="fill:#1f77b4;stroke:#1f77b4;" x="391.742221" xlink:href="#m2e6a33a801" y="456.800386"/>
     <use style="fill:#1f77b4;stroke:#1f77b4;" x="393.04549" xlink:href="#m2e6a33a801" y="459.017635"/>
     <use style="fill:#1f77b4;stroke:#1f77b4;" x="397.055552" xlink:href="#m2e6a33a801" y="461.16701"/>
     <use style="fill:#1f77b4;stroke:#1f77b4;" x="412.995544" xlink:href="#m2e6a33a801" y="461.234885"/>
     <use style="fill:#1f77b4;stroke:#1f77b4;" x="413.797557" xlink:href="#m2e6a33a801" y="461.415885"/>
     <use style="fill:#1f77b4;stroke:#1f77b4;" x="413.897808" xlink:href="#m2e6a33a801" y="462.773384"/>
     <use style="fill:#1f77b4;stroke:#1f77b4;" x="414.098311" xlink:href="#m2e6a33a801" y="465.850383"/>
     <use style="fill:#1f77b4;stroke:#1f77b4;" x="414.599569" xlink:href="#m2e6a33a801" y="469.764507"/>
     <use style="fill:#1f77b4;stroke:#1f77b4;" x="424.724973" xlink:href="#m2e6a33a801" y="474.266881"/>
     <use style="fill:#1f77b4;stroke:#1f77b4;" x="427.431764" xlink:href="#m2e6a33a801" y="476.371005"/>
     <use style="fill:#1f77b4;stroke:#1f77b4;" x="427.933022" xlink:href="#m2e6a33a801" y="476.48413"/>
     <use style="fill:#1f77b4;stroke:#1f77b4;" x="428.835286" xlink:href="#m2e6a33a801" y="477.140255"/>
     <use style="fill:#1f77b4;stroke:#1f77b4;" x="429.336543" xlink:href="#m2e6a33a801" y="477.25338"/>
     <use style="fill:#1f77b4;stroke:#1f77b4;" x="429.637298" xlink:href="#m2e6a33a801" y="477.321255"/>
     <use style="fill:#1f77b4;stroke:#1f77b4;" x="433.04585" xlink:href="#m2e6a33a801" y="478.000004"/>
     <use style="fill:#1f77b4;stroke:#1f77b4;" x="433.146101" xlink:href="#m2e6a33a801" y="480.058879"/>
     <use style="fill:#1f77b4;stroke:#1f77b4;" x="433.647359" xlink:href="#m2e6a33a801" y="480.172004"/>
     <use style="fill:#1f77b4;stroke:#1f77b4;" x="435.953144" xlink:href="#m2e6a33a801" y="480.239879"/>
     <use style="fill:#1f77b4;stroke:#1f77b4;" x="437.156162" xlink:href="#m2e6a33a801" y="481.755753"/>
     <use style="fill:#1f77b4;stroke:#1f77b4;" x="437.65742" xlink:href="#m2e6a33a801" y="481.868878"/>
     <use style="fill:#1f77b4;stroke:#1f77b4;" x="437.958175" xlink:href="#m2e6a33a801" y="481.936753"/>
     <use style="fill:#1f77b4;stroke:#1f77b4;" x="438.258929" xlink:href="#m2e6a33a801" y="482.004628"/>
     <use style="fill:#1f77b4;stroke:#1f77b4;" x="439.461948" xlink:href="#m2e6a33a801" y="482.276128"/>
     <use style="fill:#1f77b4;stroke:#1f77b4;" x="441.366727" xlink:href="#m2e6a33a801" y="482.706003"/>
     <use style="fill:#1f77b4;stroke:#1f77b4;" x="441.667481" xlink:href="#m2e6a33a801" y="482.773878"/>
     <use style="fill:#1f77b4;stroke:#1f77b4;" x="442.26899" xlink:href="#m2e6a33a801" y="482.909628"/>
     <use style="fill:#1f77b4;stroke:#1f77b4;" x="442.770248" xlink:href="#m2e6a33a801" y="483.022753"/>
     <use style="fill:#1f77b4;stroke:#1f77b4;" x="443.071003" xlink:href="#m2e6a33a801" y="483.090628"/>
     <use style="fill:#1f77b4;stroke:#1f77b4;" x="443.672512" xlink:href="#m2e6a33a801" y="483.226378"/>
     <use style="fill:#1f77b4;stroke:#1f77b4;" x="444.574775" xlink:href="#m2e6a33a801" y="483.430003"/>
     <use style="fill:#1f77b4;stroke:#1f77b4;" x="445.477039" xlink:href="#m2e6a33a801" y="483.633628"/>
     <use style="fill:#1f77b4;stroke:#1f77b4;" x="447.081064" xlink:href="#m2e6a33a801" y="483.995628"/>
     <use style="fill:#1f77b4;stroke:#1f77b4;" x="448.284082" xlink:href="#m2e6a33a801" y="484.267128"/>
     <use style="fill:#1f77b4;stroke:#1f77b4;" x="448.685088" xlink:href="#m2e6a33a801" y="484.402878"/>
     <use style="fill:#1f77b4;stroke:#1f77b4;" x="449.386849" xlink:href="#m2e6a33a801" y="484.516002"/>
     <use style="fill:#1f77b4;stroke:#1f77b4;" x="449.787855" xlink:href="#m2e6a33a801" y="485.737752"/>
     <use style="fill:#1f77b4;stroke:#1f77b4;" x="450.289112" xlink:href="#m2e6a33a801" y="485.850877"/>
     <use style="fill:#1f77b4;stroke:#1f77b4;" x="451.893137" xlink:href="#m2e6a33a801" y="485.964002"/>
     <use style="fill:#1f77b4;stroke:#1f77b4;" x="452.193891" xlink:href="#m2e6a33a801" y="486.031877"/>
     <use style="fill:#1f77b4;stroke:#1f77b4;" x="452.494646" xlink:href="#m2e6a33a801" y="486.099752"/>
     <use style="fill:#1f77b4;stroke:#1f77b4;" x="453.39691" xlink:href="#m2e6a33a801" y="486.303377"/>
     <use style="fill:#1f77b4;stroke:#1f77b4;" x="454.900683" xlink:href="#m2e6a33a801" y="486.891627"/>
     <use style="fill:#1f77b4;stroke:#1f77b4;" x="456.00345" xlink:href="#m2e6a33a801" y="487.140502"/>
     <use style="fill:#1f77b4;stroke:#1f77b4;" x="457.607474" xlink:href="#m2e6a33a801" y="487.253627"/>
     <use style="fill:#1f77b4;stroke:#1f77b4;" x="458.509738" xlink:href="#m2e6a33a801" y="487.457252"/>
     <use style="fill:#1f77b4;stroke:#1f77b4;" x="458.810492" xlink:href="#m2e6a33a801" y="487.525127"/>
     <use style="fill:#1f77b4;stroke:#1f77b4;" x="460.715271" xlink:href="#m2e6a33a801" y="487.955001"/>
     <use style="fill:#1f77b4;stroke:#1f77b4;" x="461.016026" xlink:href="#m2e6a33a801" y="488.022876"/>
     <use style="fill:#1f77b4;stroke:#1f77b4;" x="461.216529" xlink:href="#m2e6a33a801" y="488.317001"/>
     <use style="fill:#1f77b4;stroke:#1f77b4;" x="461.417032" xlink:href="#m2e6a33a801" y="488.362251"/>
     <use style="fill:#1f77b4;stroke:#1f77b4;" x="461.517284" xlink:href="#m2e6a33a801" y="488.384876"/>
     <use style="fill:#1f77b4;stroke:#1f77b4;" x="461.818038" xlink:href="#m2e6a33a801" y="488.430126"/>
     <use style="fill:#1f77b4;stroke:#1f77b4;" x="463.021056" xlink:href="#m2e6a33a801" y="488.475376"/>
     <use style="fill:#1f77b4;stroke:#1f77b4;" x="463.121308" xlink:href="#m2e6a33a801" y="488.498001"/>
     <use style="fill:#1f77b4;stroke:#1f77b4;" x="463.422063" xlink:href="#m2e6a33a801" y="488.543251"/>
     <use style="fill:#1f77b4;stroke:#1f77b4;" x="492.093999" xlink:href="#m2e6a33a801" y="489.154126"/>
     <use style="fill:#1f77b4;stroke:#1f77b4;" x="493.297018" xlink:href="#m2e6a33a801" y="489.991251"/>
     <use style="fill:#1f77b4;stroke:#1f77b4;" x="494.299533" xlink:href="#m2e6a33a801" y="491.778625"/>
     <use style="fill:#1f77b4;stroke:#1f77b4;" x="497.006324" xlink:href="#m2e6a33a801" y="492.366875"/>
     <use style="fill:#1f77b4;stroke:#1f77b4;" x="497.708085" xlink:href="#m2e6a33a801" y="492.412125"/>
     <use style="fill:#1f77b4;stroke:#1f77b4;" x="498.109091" xlink:href="#m2e6a33a801" y="492.48"/>
    </g>
   </g>
   <g id="matplotlib.axis_1">
    <g id="xtick_1">
     <g id="line2d_1">
      <defs>
       <path d="M 0 0 
L 0 3.5 
" id="m5499274665" style="stroke:#000000;stroke-width:0.8;"/>
      </defs>
      <g>
       <use style="stroke:#000000;stroke-width:0.8;" x="112.140711" xlink:href="#m5499274665" y="512.64"/>
      </g>
     </g>
     <g id="text_1">
      <!-- 650 -->
      <g transform="translate(99.733836 529.517969)scale(0.13 -0.13)">
       <defs>
        <path d="M 33.015625 40.375 
Q 26.375 40.375 22.484375 35.828125 
Q 18.609375 31.296875 18.609375 23.390625 
Q 18.609375 15.53125 22.484375 10.953125 
Q 26.375 6.390625 33.015625 6.390625 
Q 39.65625 6.390625 43.53125 10.953125 
Q 47.40625 15.53125 47.40625 23.390625 
Q 47.40625 31.296875 43.53125 35.828125 
Q 39.65625 40.375 33.015625 40.375 
z
M 52.59375 71.296875 
L 52.59375 62.3125 
Q 48.875 64.0625 45.09375 64.984375 
Q 41.3125 65.921875 37.59375 65.921875 
Q 27.828125 65.921875 22.671875 59.328125 
Q 17.53125 52.734375 16.796875 39.40625 
Q 19.671875 43.65625 24.015625 45.921875 
Q 28.375 48.1875 33.59375 48.1875 
Q 44.578125 48.1875 50.953125 41.515625 
Q 57.328125 34.859375 57.328125 23.390625 
Q 57.328125 12.15625 50.6875 5.359375 
Q 44.046875 -1.421875 33.015625 -1.421875 
Q 20.359375 -1.421875 13.671875 8.265625 
Q 6.984375 17.96875 6.984375 36.375 
Q 6.984375 53.65625 15.1875 63.9375 
Q 23.390625 74.21875 37.203125 74.21875 
Q 40.921875 74.21875 44.703125 73.484375 
Q 48.484375 72.75 52.59375 71.296875 
z
" id="DejaVuSans-54"/>
        <path d="M 10.796875 72.90625 
L 49.515625 72.90625 
L 49.515625 64.59375 
L 19.828125 64.59375 
L 19.828125 46.734375 
Q 21.96875 47.46875 24.109375 47.828125 
Q 26.265625 48.1875 28.421875 48.1875 
Q 40.625 48.1875 47.75 41.5 
Q 54.890625 34.8125 54.890625 23.390625 
Q 54.890625 11.625 47.5625 5.09375 
Q 40.234375 -1.421875 26.90625 -1.421875 
Q 22.3125 -1.421875 17.546875 -0.640625 
Q 12.796875 0.140625 7.71875 1.703125 
L 7.71875 11.625 
Q 12.109375 9.234375 16.796875 8.0625 
Q 21.484375 6.890625 26.703125 6.890625 
Q 35.15625 6.890625 40.078125 11.328125 
Q 45.015625 15.765625 45.015625 23.390625 
Q 45.015625 31 40.078125 35.4375 
Q 35.15625 39.890625 26.703125 39.890625 
Q 22.75 39.890625 18.8125 39.015625 
Q 14.890625 38.140625 10.796875 36.28125 
z
" id="DejaVuSans-53"/>
        <path d="M 31.78125 66.40625 
Q 24.171875 66.40625 20.328125 58.90625 
Q 16.5 51.421875 16.5 36.375 
Q 16.5 21.390625 20.328125 13.890625 
Q 24.171875 6.390625 31.78125 6.390625 
Q 39.453125 6.390625 43.28125 13.890625 
Q 47.125 21.390625 47.125 36.375 
Q 47.125 51.421875 43.28125 58.90625 
Q 39.453125 66.40625 31.78125 66.40625 
z
M 31.78125 74.21875 
Q 44.046875 74.21875 50.515625 64.515625 
Q 56.984375 54.828125 56.984375 36.375 
Q 56.984375 17.96875 50.515625 8.265625 
Q 44.046875 -1.421875 31.78125 -1.421875 
Q 19.53125 -1.421875 13.0625 8.265625 
Q 6.59375 17.96875 6.59375 36.375 
Q 6.59375 54.828125 13.0625 64.515625 
Q 19.53125 74.21875 31.78125 74.21875 
z
" id="DejaVuSans-48"/>
       </defs>
       <use xlink:href="#DejaVuSans-54"/>
       <use x="63.623047" xlink:href="#DejaVuSans-53"/>
       <use x="127.246094" xlink:href="#DejaVuSans-48"/>
      </g>
     </g>
    </g>
    <g id="xtick_2">
     <g id="line2d_2">
      <g>
       <use style="stroke:#000000;stroke-width:0.8;" x="162.266475" xlink:href="#m5499274665" y="512.64"/>
      </g>
     </g>
     <g id="text_2">
      <!-- 700 -->
      <g transform="translate(149.8596 529.517969)scale(0.13 -0.13)">
       <defs>
        <path d="M 8.203125 72.90625 
L 55.078125 72.90625 
L 55.078125 68.703125 
L 28.609375 0 
L 18.3125 0 
L 43.21875 64.59375 
L 8.203125 64.59375 
z
" id="DejaVuSans-55"/>
       </defs>
       <use xlink:href="#DejaVuSans-55"/>
       <use x="63.623047" xlink:href="#DejaVuSans-48"/>
       <use x="127.246094" xlink:href="#DejaVuSans-48"/>
      </g>
     </g>
    </g>
    <g id="xtick_3">
     <g id="line2d_3">
      <g>
       <use style="stroke:#000000;stroke-width:0.8;" x="212.392239" xlink:href="#m5499274665" y="512.64"/>
      </g>
     </g>
     <g id="text_3">
      <!-- 750 -->
      <g transform="translate(199.985364 529.517969)scale(0.13 -0.13)">
       <use xlink:href="#DejaVuSans-55"/>
       <use x="63.623047" xlink:href="#DejaVuSans-53"/>
       <use x="127.246094" xlink:href="#DejaVuSans-48"/>
      </g>
     </g>
    </g>
    <g id="xtick_4">
     <g id="line2d_4">
      <g>
       <use style="stroke:#000000;stroke-width:0.8;" x="262.518002" xlink:href="#m5499274665" y="512.64"/>
      </g>
     </g>
     <g id="text_4">
      <!-- 800 -->
      <g transform="translate(250.111127 529.517969)scale(0.13 -0.13)">
       <defs>
        <path d="M 31.78125 34.625 
Q 24.75 34.625 20.71875 30.859375 
Q 16.703125 27.09375 16.703125 20.515625 
Q 16.703125 13.921875 20.71875 10.15625 
Q 24.75 6.390625 31.78125 6.390625 
Q 38.8125 6.390625 42.859375 10.171875 
Q 46.921875 13.96875 46.921875 20.515625 
Q 46.921875 27.09375 42.890625 30.859375 
Q 38.875 34.625 31.78125 34.625 
z
M 21.921875 38.8125 
Q 15.578125 40.375 12.03125 44.71875 
Q 8.5 49.078125 8.5 55.328125 
Q 8.5 64.0625 14.71875 69.140625 
Q 20.953125 74.21875 31.78125 74.21875 
Q 42.671875 74.21875 48.875 69.140625 
Q 55.078125 64.0625 55.078125 55.328125 
Q 55.078125 49.078125 51.53125 44.71875 
Q 48 40.375 41.703125 38.8125 
Q 48.828125 37.15625 52.796875 32.3125 
Q 56.78125 27.484375 56.78125 20.515625 
Q 56.78125 9.90625 50.3125 4.234375 
Q 43.84375 -1.421875 31.78125 -1.421875 
Q 19.734375 -1.421875 13.25 4.234375 
Q 6.78125 9.90625 6.78125 20.515625 
Q 6.78125 27.484375 10.78125 32.3125 
Q 14.796875 37.15625 21.921875 38.8125 
z
M 18.3125 54.390625 
Q 18.3125 48.734375 21.84375 45.5625 
Q 25.390625 42.390625 31.78125 42.390625 
Q 38.140625 42.390625 41.71875 45.5625 
Q 45.3125 48.734375 45.3125 54.390625 
Q 45.3125 60.0625 41.71875 63.234375 
Q 38.140625 66.40625 31.78125 66.40625 
Q 25.390625 66.40625 21.84375 63.234375 
Q 18.3125 60.0625 18.3125 54.390625 
z
" id="DejaVuSans-56"/>
       </defs>
       <use xlink:href="#DejaVuSans-56"/>
       <use x="63.623047" xlink:href="#DejaVuSans-48"/>
       <use x="127.246094" xlink:href="#DejaVuSans-48"/>
      </g>
     </g>
    </g>
    <g id="xtick_5">
     <g id="line2d_5">
      <g>
       <use style="stroke:#000000;stroke-width:0.8;" x="312.643766" xlink:href="#m5499274665" y="512.64"/>
      </g>
     </g>
     <g id="text_5">
      <!-- 850 -->
      <g transform="translate(300.236891 529.517969)scale(0.13 -0.13)">
       <use xlink:href="#DejaVuSans-56"/>
       <use x="63.623047" xlink:href="#DejaVuSans-53"/>
       <use x="127.246094" xlink:href="#DejaVuSans-48"/>
      </g>
     </g>
    </g>
    <g id="xtick_6">
     <g id="line2d_6">
      <g>
       <use style="stroke:#000000;stroke-width:0.8;" x="362.769529" xlink:href="#m5499274665" y="512.64"/>
      </g>
     </g>
     <g id="text_6">
      <!-- 900 -->
      <g transform="translate(350.362654 529.517969)scale(0.13 -0.13)">
       <defs>
        <path d="M 10.984375 1.515625 
L 10.984375 10.5 
Q 14.703125 8.734375 18.5 7.8125 
Q 22.3125 6.890625 25.984375 6.890625 
Q 35.75 6.890625 40.890625 13.453125 
Q 46.046875 20.015625 46.78125 33.40625 
Q 43.953125 29.203125 39.59375 26.953125 
Q 35.25 24.703125 29.984375 24.703125 
Q 19.046875 24.703125 12.671875 31.3125 
Q 6.296875 37.9375 6.296875 49.421875 
Q 6.296875 60.640625 12.9375 67.421875 
Q 19.578125 74.21875 30.609375 74.21875 
Q 43.265625 74.21875 49.921875 64.515625 
Q 56.59375 54.828125 56.59375 36.375 
Q 56.59375 19.140625 48.40625 8.859375 
Q 40.234375 -1.421875 26.421875 -1.421875 
Q 22.703125 -1.421875 18.890625 -0.6875 
Q 15.09375 0.046875 10.984375 1.515625 
z
M 30.609375 32.421875 
Q 37.25 32.421875 41.125 36.953125 
Q 45.015625 41.5 45.015625 49.421875 
Q 45.015625 57.28125 41.125 61.84375 
Q 37.25 66.40625 30.609375 66.40625 
Q 23.96875 66.40625 20.09375 61.84375 
Q 16.21875 57.28125 16.21875 49.421875 
Q 16.21875 41.5 20.09375 36.953125 
Q 23.96875 32.421875 30.609375 32.421875 
z
" id="DejaVuSans-57"/>
       </defs>
       <use xlink:href="#DejaVuSans-57"/>
       <use x="63.623047" xlink:href="#DejaVuSans-48"/>
       <use x="127.246094" xlink:href="#DejaVuSans-48"/>
      </g>
     </g>
    </g>
    <g id="xtick_7">
     <g id="line2d_7">
      <g>
       <use style="stroke:#000000;stroke-width:0.8;" x="412.895293" xlink:href="#m5499274665" y="512.64"/>
      </g>
     </g>
     <g id="text_7">
      <!-- 950 -->
      <g transform="translate(400.488418 529.517969)scale(0.13 -0.13)">
       <use xlink:href="#DejaVuSans-57"/>
       <use x="63.623047" xlink:href="#DejaVuSans-53"/>
       <use x="127.246094" xlink:href="#DejaVuSans-48"/>
      </g>
     </g>
    </g>
    <g id="xtick_8">
     <g id="line2d_8">
      <g>
       <use style="stroke:#000000;stroke-width:0.8;" x="463.021056" xlink:href="#m5499274665" y="512.64"/>
      </g>
     </g>
     <g id="text_8">
      <!-- 1000 -->
      <g transform="translate(446.478556 529.517969)scale(0.13 -0.13)">
       <defs>
        <path d="M 12.40625 8.296875 
L 28.515625 8.296875 
L 28.515625 63.921875 
L 10.984375 60.40625 
L 10.984375 69.390625 
L 28.421875 72.90625 
L 38.28125 72.90625 
L 38.28125 8.296875 
L 54.390625 8.296875 
L 54.390625 0 
L 12.40625 0 
z
" id="DejaVuSans-49"/>
       </defs>
       <use xlink:href="#DejaVuSans-49"/>
       <use x="63.623047" xlink:href="#DejaVuSans-48"/>
       <use x="127.246094" xlink:href="#DejaVuSans-48"/>
       <use x="190.869141" xlink:href="#DejaVuSans-48"/>
      </g>
     </g>
    </g>
    <g id="xtick_9">
     <g id="line2d_9">
      <g>
       <use style="stroke:#000000;stroke-width:0.8;" x="513.14682" xlink:href="#m5499274665" y="512.64"/>
      </g>
     </g>
     <g id="text_9">
      <!-- 1050 -->
      <g transform="translate(496.60432 529.517969)scale(0.13 -0.13)">
       <use xlink:href="#DejaVuSans-49"/>
       <use x="63.623047" xlink:href="#DejaVuSans-48"/>
       <use x="127.246094" xlink:href="#DejaVuSans-53"/>
       <use x="190.869141" xlink:href="#DejaVuSans-48"/>
      </g>
     </g>
    </g>
    <g id="text_10">
     <!-- Total traveled distance -->
     <g transform="translate(210.004687 547.619219)scale(0.15 -0.15)">
      <defs>
       <path d="M -0.296875 72.90625 
L 61.375 72.90625 
L 61.375 64.59375 
L 35.5 64.59375 
L 35.5 0 
L 25.59375 0 
L 25.59375 64.59375 
L -0.296875 64.59375 
z
" id="DejaVuSans-84"/>
       <path d="M 30.609375 48.390625 
Q 23.390625 48.390625 19.1875 42.75 
Q 14.984375 37.109375 14.984375 27.296875 
Q 14.984375 17.484375 19.15625 11.84375 
Q 23.34375 6.203125 30.609375 6.203125 
Q 37.796875 6.203125 41.984375 11.859375 
Q 46.1875 17.53125 46.1875 27.296875 
Q 46.1875 37.015625 41.984375 42.703125 
Q 37.796875 48.390625 30.609375 48.390625 
z
M 30.609375 56 
Q 42.328125 56 49.015625 48.375 
Q 55.71875 40.765625 55.71875 27.296875 
Q 55.71875 13.875 49.015625 6.21875 
Q 42.328125 -1.421875 30.609375 -1.421875 
Q 18.84375 -1.421875 12.171875 6.21875 
Q 5.515625 13.875 5.515625 27.296875 
Q 5.515625 40.765625 12.171875 48.375 
Q 18.84375 56 30.609375 56 
z
" id="DejaVuSans-111"/>
       <path d="M 18.3125 70.21875 
L 18.3125 54.6875 
L 36.8125 54.6875 
L 36.8125 47.703125 
L 18.3125 47.703125 
L 18.3125 18.015625 
Q 18.3125 11.328125 20.140625 9.421875 
Q 21.96875 7.515625 27.59375 7.515625 
L 36.8125 7.515625 
L 36.8125 0 
L 27.59375 0 
Q 17.1875 0 13.234375 3.875 
Q 9.28125 7.765625 9.28125 18.015625 
L 9.28125 47.703125 
L 2.6875 47.703125 
L 2.6875 54.6875 
L 9.28125 54.6875 
L 9.28125 70.21875 
z
" id="DejaVuSans-116"/>
       <path d="M 34.28125 27.484375 
Q 23.390625 27.484375 19.1875 25 
Q 14.984375 22.515625 14.984375 16.5 
Q 14.984375 11.71875 18.140625 8.90625 
Q 21.296875 6.109375 26.703125 6.109375 
Q 34.1875 6.109375 38.703125 11.40625 
Q 43.21875 16.703125 43.21875 25.484375 
L 43.21875 27.484375 
z
M 52.203125 31.203125 
L 52.203125 0 
L 43.21875 0 
L 43.21875 8.296875 
Q 40.140625 3.328125 35.546875 0.953125 
Q 30.953125 -1.421875 24.3125 -1.421875 
Q 15.921875 -1.421875 10.953125 3.296875 
Q 6 8.015625 6 15.921875 
Q 6 25.140625 12.171875 29.828125 
Q 18.359375 34.515625 30.609375 34.515625 
L 43.21875 34.515625 
L 43.21875 35.40625 
Q 43.21875 41.609375 39.140625 45 
Q 35.0625 48.390625 27.6875 48.390625 
Q 23 48.390625 18.546875 47.265625 
Q 14.109375 46.140625 10.015625 43.890625 
L 10.015625 52.203125 
Q 14.9375 54.109375 19.578125 55.046875 
Q 24.21875 56 28.609375 56 
Q 40.484375 56 46.34375 49.84375 
Q 52.203125 43.703125 52.203125 31.203125 
z
" id="DejaVuSans-97"/>
       <path d="M 9.421875 75.984375 
L 18.40625 75.984375 
L 18.40625 0 
L 9.421875 0 
z
" id="DejaVuSans-108"/>
       <path id="DejaVuSans-32"/>
       <path d="M 41.109375 46.296875 
Q 39.59375 47.171875 37.8125 47.578125 
Q 36.03125 48 33.890625 48 
Q 26.265625 48 22.1875 43.046875 
Q 18.109375 38.09375 18.109375 28.8125 
L 18.109375 0 
L 9.078125 0 
L 9.078125 54.6875 
L 18.109375 54.6875 
L 18.109375 46.1875 
Q 20.953125 51.171875 25.484375 53.578125 
Q 30.03125 56 36.53125 56 
Q 37.453125 56 38.578125 55.875 
Q 39.703125 55.765625 41.0625 55.515625 
z
" id="DejaVuSans-114"/>
       <path d="M 2.984375 54.6875 
L 12.5 54.6875 
L 29.59375 8.796875 
L 46.6875 54.6875 
L 56.203125 54.6875 
L 35.6875 0 
L 23.484375 0 
z
" id="DejaVuSans-118"/>
       <path d="M 56.203125 29.59375 
L 56.203125 25.203125 
L 14.890625 25.203125 
Q 15.484375 15.921875 20.484375 11.0625 
Q 25.484375 6.203125 34.421875 6.203125 
Q 39.59375 6.203125 44.453125 7.46875 
Q 49.3125 8.734375 54.109375 11.28125 
L 54.109375 2.78125 
Q 49.265625 0.734375 44.1875 -0.34375 
Q 39.109375 -1.421875 33.890625 -1.421875 
Q 20.796875 -1.421875 13.15625 6.1875 
Q 5.515625 13.8125 5.515625 26.8125 
Q 5.515625 40.234375 12.765625 48.109375 
Q 20.015625 56 32.328125 56 
Q 43.359375 56 49.78125 48.890625 
Q 56.203125 41.796875 56.203125 29.59375 
z
M 47.21875 32.234375 
Q 47.125 39.59375 43.09375 43.984375 
Q 39.0625 48.390625 32.421875 48.390625 
Q 24.90625 48.390625 20.390625 44.140625 
Q 15.875 39.890625 15.1875 32.171875 
z
" id="DejaVuSans-101"/>
       <path d="M 45.40625 46.390625 
L 45.40625 75.984375 
L 54.390625 75.984375 
L 54.390625 0 
L 45.40625 0 
L 45.40625 8.203125 
Q 42.578125 3.328125 38.25 0.953125 
Q 33.9375 -1.421875 27.875 -1.421875 
Q 17.96875 -1.421875 11.734375 6.484375 
Q 5.515625 14.40625 5.515625 27.296875 
Q 5.515625 40.1875 11.734375 48.09375 
Q 17.96875 56 27.875 56 
Q 33.9375 56 38.25 53.625 
Q 42.578125 51.265625 45.40625 46.390625 
z
M 14.796875 27.296875 
Q 14.796875 17.390625 18.875 11.75 
Q 22.953125 6.109375 30.078125 6.109375 
Q 37.203125 6.109375 41.296875 11.75 
Q 45.40625 17.390625 45.40625 27.296875 
Q 45.40625 37.203125 41.296875 42.84375 
Q 37.203125 48.484375 30.078125 48.484375 
Q 22.953125 48.484375 18.875 42.84375 
Q 14.796875 37.203125 14.796875 27.296875 
z
" id="DejaVuSans-100"/>
       <path d="M 9.421875 54.6875 
L 18.40625 54.6875 
L 18.40625 0 
L 9.421875 0 
z
M 9.421875 75.984375 
L 18.40625 75.984375 
L 18.40625 64.59375 
L 9.421875 64.59375 
z
" id="DejaVuSans-105"/>
       <path d="M 44.28125 53.078125 
L 44.28125 44.578125 
Q 40.484375 46.53125 36.375 47.5 
Q 32.28125 48.484375 27.875 48.484375 
Q 21.1875 48.484375 17.84375 46.4375 
Q 14.5 44.390625 14.5 40.28125 
Q 14.5 37.15625 16.890625 35.375 
Q 19.28125 33.59375 26.515625 31.984375 
L 29.59375 31.296875 
Q 39.15625 29.25 43.1875 25.515625 
Q 47.21875 21.78125 47.21875 15.09375 
Q 47.21875 7.46875 41.1875 3.015625 
Q 35.15625 -1.421875 24.609375 -1.421875 
Q 20.21875 -1.421875 15.453125 -0.5625 
Q 10.6875 0.296875 5.421875 2 
L 5.421875 11.28125 
Q 10.40625 8.6875 15.234375 7.390625 
Q 20.0625 6.109375 24.8125 6.109375 
Q 31.15625 6.109375 34.5625 8.28125 
Q 37.984375 10.453125 37.984375 14.40625 
Q 37.984375 18.0625 35.515625 20.015625 
Q 33.0625 21.96875 24.703125 23.78125 
L 21.578125 24.515625 
Q 13.234375 26.265625 9.515625 29.90625 
Q 5.8125 33.546875 5.8125 39.890625 
Q 5.8125 47.609375 11.28125 51.796875 
Q 16.75 56 26.8125 56 
Q 31.78125 56 36.171875 55.265625 
Q 40.578125 54.546875 44.28125 53.078125 
z
" id="DejaVuSans-115"/>
       <path d="M 54.890625 33.015625 
L 54.890625 0 
L 45.90625 0 
L 45.90625 32.71875 
Q 45.90625 40.484375 42.875 44.328125 
Q 39.84375 48.1875 33.796875 48.1875 
Q 26.515625 48.1875 22.3125 43.546875 
Q 18.109375 38.921875 18.109375 30.90625 
L 18.109375 0 
L 9.078125 0 
L 9.078125 54.6875 
L 18.109375 54.6875 
L 18.109375 46.1875 
Q 21.34375 51.125 25.703125 53.5625 
Q 30.078125 56 35.796875 56 
Q 45.21875 56 50.046875 50.171875 
Q 54.890625 44.34375 54.890625 33.015625 
z
" id="DejaVuSans-110"/>
       <path d="M 48.78125 52.59375 
L 48.78125 44.1875 
Q 44.96875 46.296875 41.140625 47.34375 
Q 37.3125 48.390625 33.40625 48.390625 
Q 24.65625 48.390625 19.8125 42.84375 
Q 14.984375 37.3125 14.984375 27.296875 
Q 14.984375 17.28125 19.8125 11.734375 
Q 24.65625 6.203125 33.40625 6.203125 
Q 37.3125 6.203125 41.140625 7.25 
Q 44.96875 8.296875 48.78125 10.40625 
L 48.78125 2.09375 
Q 45.015625 0.34375 40.984375 -0.53125 
Q 36.96875 -1.421875 32.421875 -1.421875 
Q 20.0625 -1.421875 12.78125 6.34375 
Q 5.515625 14.109375 5.515625 27.296875 
Q 5.515625 40.671875 12.859375 48.328125 
Q 20.21875 56 33.015625 56 
Q 37.15625 56 41.109375 55.140625 
Q 45.0625 54.296875 48.78125 52.59375 
z
" id="DejaVuSans-99"/>
      </defs>
      <use xlink:href="#DejaVuSans-84"/>
      <use x="44.083984" xlink:href="#DejaVuSans-111"/>
      <use x="105.265625" xlink:href="#DejaVuSans-116"/>
      <use x="144.474609" xlink:href="#DejaVuSans-97"/>
      <use x="205.753906" xlink:href="#DejaVuSans-108"/>
      <use x="233.537109" xlink:href="#DejaVuSans-32"/>
      <use x="265.324219" xlink:href="#DejaVuSans-116"/>
      <use x="304.533203" xlink:href="#DejaVuSans-114"/>
      <use x="345.646484" xlink:href="#DejaVuSans-97"/>
      <use x="406.925781" xlink:href="#DejaVuSans-118"/>
      <use x="466.105469" xlink:href="#DejaVuSans-101"/>
      <use x="527.628906" xlink:href="#DejaVuSans-108"/>
      <use x="555.412109" xlink:href="#DejaVuSans-101"/>
      <use x="616.935547" xlink:href="#DejaVuSans-100"/>
      <use x="680.412109" xlink:href="#DejaVuSans-32"/>
      <use x="712.199219" xlink:href="#DejaVuSans-100"/>
      <use x="775.675781" xlink:href="#DejaVuSans-105"/>
      <use x="803.458984" xlink:href="#DejaVuSans-115"/>
      <use x="855.558594" xlink:href="#DejaVuSans-116"/>
      <use x="894.767578" xlink:href="#DejaVuSans-97"/>
      <use x="956.046875" xlink:href="#DejaVuSans-110"/>
      <use x="1019.425781" xlink:href="#DejaVuSans-99"/>
      <use x="1074.40625" xlink:href="#DejaVuSans-101"/>
     </g>
    </g>
   </g>
   <g id="matplotlib.axis_2">
    <g id="ytick_1">
     <g id="line2d_10">
      <defs>
       <path d="M 0 0 
L -3.5 0 
" id="m09c2a4f86b" style="stroke:#000000;stroke-width:0.8;"/>
      </defs>
      <g>
       <use style="stroke:#000000;stroke-width:0.8;" x="72" xlink:href="#m09c2a4f86b" y="492.48"/>
      </g>
     </g>
     <g id="text_11">
      <!-- 0 -->
      <g transform="translate(56.72875 497.418984)scale(0.13 -0.13)">
       <use xlink:href="#DejaVuSans-48"/>
      </g>
     </g>
    </g>
    <g id="ytick_2">
     <g id="line2d_11">
      <g>
       <use style="stroke:#000000;stroke-width:0.8;" x="72" xlink:href="#m09c2a4f86b" y="435.917518"/>
      </g>
     </g>
     <g id="text_12">
      <!-- 250 -->
      <g transform="translate(40.18625 440.856502)scale(0.13 -0.13)">
       <defs>
        <path d="M 19.1875 8.296875 
L 53.609375 8.296875 
L 53.609375 0 
L 7.328125 0 
L 7.328125 8.296875 
Q 12.9375 14.109375 22.625 23.890625 
Q 32.328125 33.6875 34.8125 36.53125 
Q 39.546875 41.84375 41.421875 45.53125 
Q 43.3125 49.21875 43.3125 52.78125 
Q 43.3125 58.59375 39.234375 62.25 
Q 35.15625 65.921875 28.609375 65.921875 
Q 23.96875 65.921875 18.8125 64.3125 
Q 13.671875 62.703125 7.8125 59.421875 
L 7.8125 69.390625 
Q 13.765625 71.78125 18.9375 73 
Q 24.125 74.21875 28.421875 74.21875 
Q 39.75 74.21875 46.484375 68.546875 
Q 53.21875 62.890625 53.21875 53.421875 
Q 53.21875 48.921875 51.53125 44.890625 
Q 49.859375 40.875 45.40625 35.40625 
Q 44.1875 33.984375 37.640625 27.21875 
Q 31.109375 20.453125 19.1875 8.296875 
z
" id="DejaVuSans-50"/>
       </defs>
       <use xlink:href="#DejaVuSans-50"/>
       <use x="63.623047" xlink:href="#DejaVuSans-53"/>
       <use x="127.246094" xlink:href="#DejaVuSans-48"/>
      </g>
     </g>
    </g>
    <g id="ytick_3">
     <g id="line2d_12">
      <g>
       <use style="stroke:#000000;stroke-width:0.8;" x="72" xlink:href="#m09c2a4f86b" y="379.355035"/>
      </g>
     </g>
     <g id="text_13">
      <!-- 500 -->
      <g transform="translate(40.18625 384.294019)scale(0.13 -0.13)">
       <use xlink:href="#DejaVuSans-53"/>
       <use x="63.623047" xlink:href="#DejaVuSans-48"/>
       <use x="127.246094" xlink:href="#DejaVuSans-48"/>
      </g>
     </g>
    </g>
    <g id="ytick_4">
     <g id="line2d_13">
      <g>
       <use style="stroke:#000000;stroke-width:0.8;" x="72" xlink:href="#m09c2a4f86b" y="322.792553"/>
      </g>
     </g>
     <g id="text_14">
      <!-- 750 -->
      <g transform="translate(40.18625 327.731537)scale(0.13 -0.13)">
       <use xlink:href="#DejaVuSans-55"/>
       <use x="63.623047" xlink:href="#DejaVuSans-53"/>
       <use x="127.246094" xlink:href="#DejaVuSans-48"/>
      </g>
     </g>
    </g>
    <g id="ytick_5">
     <g id="line2d_14">
      <g>
       <use style="stroke:#000000;stroke-width:0.8;" x="72" xlink:href="#m09c2a4f86b" y="266.23007"/>
      </g>
     </g>
     <g id="text_15">
      <!-- 1000 -->
      <g transform="translate(31.915 271.169055)scale(0.13 -0.13)">
       <use xlink:href="#DejaVuSans-49"/>
       <use x="63.623047" xlink:href="#DejaVuSans-48"/>
       <use x="127.246094" xlink:href="#DejaVuSans-48"/>
       <use x="190.869141" xlink:href="#DejaVuSans-48"/>
      </g>
     </g>
    </g>
    <g id="ytick_6">
     <g id="line2d_15">
      <g>
       <use style="stroke:#000000;stroke-width:0.8;" x="72" xlink:href="#m09c2a4f86b" y="209.667588"/>
      </g>
     </g>
     <g id="text_16">
      <!-- 1250 -->
      <g transform="translate(31.915 214.606572)scale(0.13 -0.13)">
       <use xlink:href="#DejaVuSans-49"/>
       <use x="63.623047" xlink:href="#DejaVuSans-50"/>
       <use x="127.246094" xlink:href="#DejaVuSans-53"/>
       <use x="190.869141" xlink:href="#DejaVuSans-48"/>
      </g>
     </g>
    </g>
    <g id="ytick_7">
     <g id="line2d_16">
      <g>
       <use style="stroke:#000000;stroke-width:0.8;" x="72" xlink:href="#m09c2a4f86b" y="153.105105"/>
      </g>
     </g>
     <g id="text_17">
      <!-- 1500 -->
      <g transform="translate(31.915 158.04409)scale(0.13 -0.13)">
       <use xlink:href="#DejaVuSans-49"/>
       <use x="63.623047" xlink:href="#DejaVuSans-53"/>
       <use x="127.246094" xlink:href="#DejaVuSans-48"/>
       <use x="190.869141" xlink:href="#DejaVuSans-48"/>
      </g>
     </g>
    </g>
    <g id="ytick_8">
     <g id="line2d_17">
      <g>
       <use style="stroke:#000000;stroke-width:0.8;" x="72" xlink:href="#m09c2a4f86b" y="96.542623"/>
      </g>
     </g>
     <g id="text_18">
      <!-- 1750 -->
      <g transform="translate(31.915 101.481607)scale(0.13 -0.13)">
       <use xlink:href="#DejaVuSans-49"/>
       <use x="63.623047" xlink:href="#DejaVuSans-55"/>
       <use x="127.246094" xlink:href="#DejaVuSans-53"/>
       <use x="190.869141" xlink:href="#DejaVuSans-48"/>
      </g>
     </g>
    </g>
    <g id="text_19">
     <!-- Total waiting time -->
     <g transform="translate(24.795469 357.457734)rotate(-90)scale(0.15 -0.15)">
      <defs>
       <path d="M 4.203125 54.6875 
L 13.1875 54.6875 
L 24.421875 12.015625 
L 35.59375 54.6875 
L 46.1875 54.6875 
L 57.421875 12.015625 
L 68.609375 54.6875 
L 77.59375 54.6875 
L 63.28125 0 
L 52.6875 0 
L 40.921875 44.828125 
L 29.109375 0 
L 18.5 0 
z
" id="DejaVuSans-119"/>
       <path d="M 45.40625 27.984375 
Q 45.40625 37.75 41.375 43.109375 
Q 37.359375 48.484375 30.078125 48.484375 
Q 22.859375 48.484375 18.828125 43.109375 
Q 14.796875 37.75 14.796875 27.984375 
Q 14.796875 18.265625 18.828125 12.890625 
Q 22.859375 7.515625 30.078125 7.515625 
Q 37.359375 7.515625 41.375 12.890625 
Q 45.40625 18.265625 45.40625 27.984375 
z
M 54.390625 6.78125 
Q 54.390625 -7.171875 48.1875 -13.984375 
Q 42 -20.796875 29.203125 -20.796875 
Q 24.46875 -20.796875 20.265625 -20.09375 
Q 16.0625 -19.390625 12.109375 -17.921875 
L 12.109375 -9.1875 
Q 16.0625 -11.328125 19.921875 -12.34375 
Q 23.78125 -13.375 27.78125 -13.375 
Q 36.625 -13.375 41.015625 -8.765625 
Q 45.40625 -4.15625 45.40625 5.171875 
L 45.40625 9.625 
Q 42.625 4.78125 38.28125 2.390625 
Q 33.9375 0 27.875 0 
Q 17.828125 0 11.671875 7.65625 
Q 5.515625 15.328125 5.515625 27.984375 
Q 5.515625 40.671875 11.671875 48.328125 
Q 17.828125 56 27.875 56 
Q 33.9375 56 38.28125 53.609375 
Q 42.625 51.21875 45.40625 46.390625 
L 45.40625 54.6875 
L 54.390625 54.6875 
z
" id="DejaVuSans-103"/>
       <path d="M 52 44.1875 
Q 55.375 50.25 60.0625 53.125 
Q 64.75 56 71.09375 56 
Q 79.640625 56 84.28125 50.015625 
Q 88.921875 44.046875 88.921875 33.015625 
L 88.921875 0 
L 79.890625 0 
L 79.890625 32.71875 
Q 79.890625 40.578125 77.09375 44.375 
Q 74.3125 48.1875 68.609375 48.1875 
Q 61.625 48.1875 57.5625 43.546875 
Q 53.515625 38.921875 53.515625 30.90625 
L 53.515625 0 
L 44.484375 0 
L 44.484375 32.71875 
Q 44.484375 40.625 41.703125 44.40625 
Q 38.921875 48.1875 33.109375 48.1875 
Q 26.21875 48.1875 22.15625 43.53125 
Q 18.109375 38.875 18.109375 30.90625 
L 18.109375 0 
L 9.078125 0 
L 9.078125 54.6875 
L 18.109375 54.6875 
L 18.109375 46.1875 
Q 21.1875 51.21875 25.484375 53.609375 
Q 29.78125 56 35.6875 56 
Q 41.65625 56 45.828125 52.96875 
Q 50 49.953125 52 44.1875 
z
" id="DejaVuSans-109"/>
      </defs>
      <use xlink:href="#DejaVuSans-84"/>
      <use x="44.083984" xlink:href="#DejaVuSans-111"/>
      <use x="105.265625" xlink:href="#DejaVuSans-116"/>
      <use x="144.474609" xlink:href="#DejaVuSans-97"/>
      <use x="205.753906" xlink:href="#DejaVuSans-108"/>
      <use x="233.537109" xlink:href="#DejaVuSans-32"/>
      <use x="265.324219" xlink:href="#DejaVuSans-119"/>
      <use x="347.111328" xlink:href="#DejaVuSans-97"/>
      <use x="408.390625" xlink:href="#DejaVuSans-105"/>
      <use x="436.173828" xlink:href="#DejaVuSans-116"/>
      <use x="475.382812" xlink:href="#DejaVuSans-105"/>
      <use x="503.166016" xlink:href="#DejaVuSans-110"/>
      <use x="566.544922" xlink:href="#DejaVuSans-103"/>
      <use x="630.021484" xlink:href="#DejaVuSans-32"/>
      <use x="661.808594" xlink:href="#DejaVuSans-116"/>
      <use x="701.017578" xlink:href="#DejaVuSans-105"/>
      <use x="728.800781" xlink:href="#DejaVuSans-109"/>
      <use x="826.212891" xlink:href="#DejaVuSans-101"/>
     </g>
    </g>
   </g>
   <g id="patch_3">
    <path d="M 72 512.64 
L 72 69.12 
" style="fill:none;stroke:#000000;stroke-linecap:square;stroke-linejoin:miter;stroke-width:0.8;"/>
   </g>
   <g id="patch_4">
    <path d="M 518.4 512.64 
L 518.4 69.12 
" style="fill:none;stroke:#000000;stroke-linecap:square;stroke-linejoin:miter;stroke-width:0.8;"/>
   </g>
   <g id="patch_5">
    <path d="M 72 512.64 
L 518.4 512.64 
" style="fill:none;stroke:#000000;stroke-linecap:square;stroke-linejoin:miter;stroke-width:0.8;"/>
   </g>
   <g id="patch_6">
    <path d="M 72 69.12 
L 518.4 69.12 
" style="fill:none;stroke:#000000;stroke-linecap:square;stroke-linejoin:miter;stroke-width:0.8;"/>
   </g>
   <g id="text_20">
    <!-- Pareto-front of RC205-50 -->
    <g transform="translate(202.041797 63.12)scale(0.15 -0.15)">
     <defs>
      <path d="M 19.671875 64.796875 
L 19.671875 37.40625 
L 32.078125 37.40625 
Q 38.96875 37.40625 42.71875 40.96875 
Q 46.484375 44.53125 46.484375 51.125 
Q 46.484375 57.671875 42.71875 61.234375 
Q 38.96875 64.796875 32.078125 64.796875 
z
M 9.8125 72.90625 
L 32.078125 72.90625 
Q 44.34375 72.90625 50.609375 67.359375 
Q 56.890625 61.8125 56.890625 51.125 
Q 56.890625 40.328125 50.609375 34.8125 
Q 44.34375 29.296875 32.078125 29.296875 
L 19.671875 29.296875 
L 19.671875 0 
L 9.8125 0 
z
" id="DejaVuSans-80"/>
      <path d="M 4.890625 31.390625 
L 31.203125 31.390625 
L 31.203125 23.390625 
L 4.890625 23.390625 
z
" id="DejaVuSans-45"/>
      <path d="M 37.109375 75.984375 
L 37.109375 68.5 
L 28.515625 68.5 
Q 23.6875 68.5 21.796875 66.546875 
Q 19.921875 64.59375 19.921875 59.515625 
L 19.921875 54.6875 
L 34.71875 54.6875 
L 34.71875 47.703125 
L 19.921875 47.703125 
L 19.921875 0 
L 10.890625 0 
L 10.890625 47.703125 
L 2.296875 47.703125 
L 2.296875 54.6875 
L 10.890625 54.6875 
L 10.890625 58.5 
Q 10.890625 67.625 15.140625 71.796875 
Q 19.390625 75.984375 28.609375 75.984375 
z
" id="DejaVuSans-102"/>
      <path d="M 44.390625 34.1875 
Q 47.5625 33.109375 50.5625 29.59375 
Q 53.5625 26.078125 56.59375 19.921875 
L 66.609375 0 
L 56 0 
L 46.6875 18.703125 
Q 43.0625 26.03125 39.671875 28.421875 
Q 36.28125 30.8125 30.421875 30.8125 
L 19.671875 30.8125 
L 19.671875 0 
L 9.8125 0 
L 9.8125 72.90625 
L 32.078125 72.90625 
Q 44.578125 72.90625 50.734375 67.671875 
Q 56.890625 62.453125 56.890625 51.90625 
Q 56.890625 45.015625 53.6875 40.46875 
Q 50.484375 35.9375 44.390625 34.1875 
z
M 19.671875 64.796875 
L 19.671875 38.921875 
L 32.078125 38.921875 
Q 39.203125 38.921875 42.84375 42.21875 
Q 46.484375 45.515625 46.484375 51.90625 
Q 46.484375 58.296875 42.84375 61.546875 
Q 39.203125 64.796875 32.078125 64.796875 
z
" id="DejaVuSans-82"/>
      <path d="M 64.40625 67.28125 
L 64.40625 56.890625 
Q 59.421875 61.53125 53.78125 63.8125 
Q 48.140625 66.109375 41.796875 66.109375 
Q 29.296875 66.109375 22.65625 58.46875 
Q 16.015625 50.828125 16.015625 36.375 
Q 16.015625 21.96875 22.65625 14.328125 
Q 29.296875 6.6875 41.796875 6.6875 
Q 48.140625 6.6875 53.78125 8.984375 
Q 59.421875 11.28125 64.40625 15.921875 
L 64.40625 5.609375 
Q 59.234375 2.09375 53.4375 0.328125 
Q 47.65625 -1.421875 41.21875 -1.421875 
Q 24.65625 -1.421875 15.125 8.703125 
Q 5.609375 18.84375 5.609375 36.375 
Q 5.609375 53.953125 15.125 64.078125 
Q 24.65625 74.21875 41.21875 74.21875 
Q 47.75 74.21875 53.53125 72.484375 
Q 59.328125 70.75 64.40625 67.28125 
z
" id="DejaVuSans-67"/>
     </defs>
     <use xlink:href="#DejaVuSans-80"/>
     <use x="55.802734" xlink:href="#DejaVuSans-97"/>
     <use x="117.082031" xlink:href="#DejaVuSans-114"/>
     <use x="155.945312" xlink:href="#DejaVuSans-101"/>
     <use x="217.46875" xlink:href="#DejaVuSans-116"/>
     <use x="256.677734" xlink:href="#DejaVuSans-111"/>
     <use x="319.734375" xlink:href="#DejaVuSans-45"/>
     <use x="355.818359" xlink:href="#DejaVuSans-102"/>
     <use x="391.023438" xlink:href="#DejaVuSans-114"/>
     <use x="429.886719" xlink:href="#DejaVuSans-111"/>
     <use x="491.068359" xlink:href="#DejaVuSans-110"/>
     <use x="554.447266" xlink:href="#DejaVuSans-116"/>
     <use x="593.65625" xlink:href="#DejaVuSans-32"/>
     <use x="625.443359" xlink:href="#DejaVuSans-111"/>
     <use x="686.625" xlink:href="#DejaVuSans-102"/>
     <use x="721.830078" xlink:href="#DejaVuSans-32"/>
     <use x="753.617188" xlink:href="#DejaVuSans-82"/>
     <use x="818.099609" xlink:href="#DejaVuSans-67"/>
     <use x="887.923828" xlink:href="#DejaVuSans-50"/>
     <use x="951.546875" xlink:href="#DejaVuSans-48"/>
     <use x="1015.169922" xlink:href="#DejaVuSans-53"/>
     <use x="1078.792969" xlink:href="#DejaVuSans-45"/>
     <use x="1114.876953" xlink:href="#DejaVuSans-53"/>
     <use x="1178.5" xlink:href="#DejaVuSans-48"/>
    </g>
   </g>
  </g>
 </g>
 <defs>
  <clipPath id="p7987230534">
   <rect height="443.52" width="446.4" x="72" y="69.12"/>
  </clipPath>
 </defs>
</svg>
