<?xml version="1.0" encoding="utf-8" standalone="no"?>
<!DOCTYPE svg PUBLIC "-//W3C//DTD SVG 1.1//EN"
  "http://www.w3.org/Graphics/SVG/1.1/DTD/svg11.dtd">
<!-- Created with matplotlib (https://matplotlib.org/) -->
<svg height="576pt" version="1.1" viewBox="0 0 576 576" width="576pt" xmlns="http://www.w3.org/2000/svg" xmlns:xlink="http://www.w3.org/1999/xlink">
 <metadata>
  <rdf:RDF xmlns:cc="http://creativecommons.org/ns#" xmlns:dc="http://purl.org/dc/elements/1.1/" xmlns:rdf="http://www.w3.org/1999/02/22-rdf-syntax-ns#">
   <cc:Work>
    <dc:type rdf:resource="http://purl.org/dc/dcmitype/StillImage"/>
    <dc:date>2022-03-29T10:55:26.540988</dc:date>
    <dc:format>image/svg+xml</dc:format>
    <dc:creator>
     <cc:Agent>
      <dc:title>Matplotlib v3.3.4, https://matplotlib.org/</dc:title>
     </cc:Agent>
    </dc:creator>
   </cc:Work>
  </rdf:RDF>
 </metadata>
 <defs>
  <style type="text/css">*{stroke-linecap:butt;stroke-linejoin:round;}</style>
 </defs>
 <g id="figure_1">
  <g id="patch_1">
   <path d="M 0 576 
L 576 576 
L 576 0 
L 0 0 
z
" style="fill:#ffffff;"/>
  </g>
  <g id="axes_1">
   <g id="patch_2">
    <path d="M 72 512.64 
L 518.4 512.64 
L 518.4 69.12 
L 72 69.12 
z
" style="fill:#ffffff;"/>
   </g>
   <g id="PathCollection_1">
    <defs>
     <path d="M 0 3 
C 0.795609 3 1.55874 2.683901 2.12132 2.12132 
C 2.683901 1.55874 3 0.795609 3 0 
C 3 -0.795609 2.683901 -1.55874 2.12132 -2.12132 
C 1.55874 -2.683901 0.795609 -3 0 -3 
C -0.795609 -3 -1.55874 -2.683901 -2.12132 -2.12132 
C -2.683901 -1.55874 -3 -0.795609 -3 0 
C -3 0.795609 -2.683901 1.55874 -2.12132 2.12132 
C -1.55874 2.683901 -0.795609 3 0 3 
z
" id="m028e418e5d" style="stroke:#1f77b4;"/>
    </defs>
    <g clip-path="url(#p1fcec1fa47)">
     <use style="fill:#1f77b4;stroke:#1f77b4;" x="92.290909" xlink:href="#m028e418e5d" y="89.28"/>
     <use style="fill:#1f77b4;stroke:#1f77b4;" x="93.259963" xlink:href="#m028e418e5d" y="226.431313"/>
     <use style="fill:#1f77b4;stroke:#1f77b4;" x="96.705487" xlink:href="#m028e418e5d" y="253.612963"/>
     <use style="fill:#1f77b4;stroke:#1f77b4;" x="117.809325" xlink:href="#m028e418e5d" y="304.445964"/>
     <use style="fill:#1f77b4;stroke:#1f77b4;" x="149.034391" xlink:href="#m028e418e5d" y="308.357469"/>
     <use style="fill:#1f77b4;stroke:#1f77b4;" x="158.40191" xlink:href="#m028e418e5d" y="330.732608"/>
     <use style="fill:#1f77b4;stroke:#1f77b4;" x="162.708816" xlink:href="#m028e418e5d" y="337.378853"/>
     <use style="fill:#1f77b4;stroke:#1f77b4;" x="166.800376" xlink:href="#m028e418e5d" y="340.726837"/>
     <use style="fill:#1f77b4;stroke:#1f77b4;" x="169.061502" xlink:href="#m028e418e5d" y="341.737862"/>
     <use style="fill:#1f77b4;stroke:#1f77b4;" x="177.675313" xlink:href="#m028e418e5d" y="342.649441"/>
     <use style="fill:#1f77b4;stroke:#1f77b4;" x="177.998331" xlink:href="#m028e418e5d" y="345.284735"/>
     <use style="fill:#1f77b4;stroke:#1f77b4;" x="179.61342" xlink:href="#m028e418e5d" y="351.019401"/>
     <use style="fill:#1f77b4;stroke:#1f77b4;" x="190.380685" xlink:href="#m028e418e5d" y="352.063574"/>
     <use style="fill:#1f77b4;stroke:#1f77b4;" x="191.02672" xlink:href="#m028e418e5d" y="352.262464"/>
     <use style="fill:#1f77b4;stroke:#1f77b4;" x="191.672756" xlink:href="#m028e418e5d" y="358.113148"/>
     <use style="fill:#1f77b4;stroke:#1f77b4;" x="191.888101" xlink:href="#m028e418e5d" y="361.560577"/>
     <use style="fill:#1f77b4;stroke:#1f77b4;" x="195.333626" xlink:href="#m028e418e5d" y="375.565757"/>
     <use style="fill:#1f77b4;stroke:#1f77b4;" x="202.978383" xlink:href="#m028e418e5d" y="381.151254"/>
     <use style="fill:#1f77b4;stroke:#1f77b4;" x="220.636696" xlink:href="#m028e418e5d" y="385.941191"/>
     <use style="fill:#1f77b4;stroke:#1f77b4;" x="227.527745" xlink:href="#m028e418e5d" y="390.963167"/>
     <use style="fill:#1f77b4;stroke:#1f77b4;" x="237.11061" xlink:href="#m028e418e5d" y="400.294428"/>
     <use style="fill:#1f77b4;stroke:#1f77b4;" x="245.509076" xlink:href="#m028e418e5d" y="402.333052"/>
     <use style="fill:#1f77b4;stroke:#1f77b4;" x="247.016493" xlink:href="#m028e418e5d" y="402.48222"/>
     <use style="fill:#1f77b4;stroke:#1f77b4;" x="257.783757" xlink:href="#m028e418e5d" y="405.813629"/>
     <use style="fill:#1f77b4;stroke:#1f77b4;" x="257.999103" xlink:href="#m028e418e5d" y="406.344003"/>
     <use style="fill:#1f77b4;stroke:#1f77b4;" x="258.752811" xlink:href="#m028e418e5d" y="413.852105"/>
     <use style="fill:#1f77b4;stroke:#1f77b4;" x="270.704474" xlink:href="#m028e418e5d" y="419.238713"/>
     <use style="fill:#1f77b4;stroke:#1f77b4;" x="282.548465" xlink:href="#m028e418e5d" y="420.995575"/>
     <use style="fill:#1f77b4;stroke:#1f77b4;" x="282.76381" xlink:href="#m028e418e5d" y="421.60882"/>
     <use style="fill:#1f77b4;stroke:#1f77b4;" x="286.963043" xlink:href="#m028e418e5d" y="422.735864"/>
     <use style="fill:#1f77b4;stroke:#1f77b4;" x="289.439514" xlink:href="#m028e418e5d" y="425.072823"/>
     <use style="fill:#1f77b4;stroke:#1f77b4;" x="292.454348" xlink:href="#m028e418e5d" y="431.669345"/>
     <use style="fill:#1f77b4;stroke:#1f77b4;" x="300.745141" xlink:href="#m028e418e5d" y="436.01178"/>
     <use style="fill:#1f77b4;stroke:#1f77b4;" x="300.852814" xlink:href="#m028e418e5d" y="436.475856"/>
     <use style="fill:#1f77b4;stroke:#1f77b4;" x="305.805755" xlink:href="#m028e418e5d" y="438.763093"/>
     <use style="fill:#1f77b4;stroke:#1f77b4;" x="306.882481" xlink:href="#m028e418e5d" y="441.497832"/>
     <use style="fill:#1f77b4;stroke:#1f77b4;" x="310.758697" xlink:href="#m028e418e5d" y="442.177373"/>
     <use style="fill:#1f77b4;stroke:#1f77b4;" x="312.481459" xlink:href="#m028e418e5d" y="446.519808"/>
     <use style="fill:#1f77b4;stroke:#1f77b4;" x="327.986319" xlink:href="#m028e418e5d" y="449.237973"/>
     <use style="fill:#1f77b4;stroke:#1f77b4;" x="331.324171" xlink:href="#m028e418e5d" y="449.403714"/>
     <use style="fill:#1f77b4;stroke:#1f77b4;" x="331.431844" xlink:href="#m028e418e5d" y="451.193725"/>
     <use style="fill:#1f77b4;stroke:#1f77b4;" x="335.954094" xlink:href="#m028e418e5d" y="454.326245"/>
     <use style="fill:#1f77b4;stroke:#1f77b4;" x="337.569184" xlink:href="#m028e418e5d" y="459.878594"/>
     <use style="fill:#1f77b4;stroke:#1f77b4;" x="341.660744" xlink:href="#m028e418e5d" y="462.729353"/>
     <use style="fill:#1f77b4;stroke:#1f77b4;" x="351.6743" xlink:href="#m028e418e5d" y="465.845298"/>
     <use style="fill:#1f77b4;stroke:#1f77b4;" x="351.997318" xlink:href="#m028e418e5d" y="465.89502"/>
     <use style="fill:#1f77b4;stroke:#1f77b4;" x="355.76586" xlink:href="#m028e418e5d" y="467.336974"/>
     <use style="fill:#1f77b4;stroke:#1f77b4;" x="359.642075" xlink:href="#m028e418e5d" y="468.795501"/>
     <use style="fill:#1f77b4;stroke:#1f77b4;" x="364.056654" xlink:href="#m028e418e5d" y="471.53024"/>
     <use style="fill:#1f77b4;stroke:#1f77b4;" x="371.809084" xlink:href="#m028e418e5d" y="472.24293"/>
     <use style="fill:#1f77b4;stroke:#1f77b4;" x="372.024429" xlink:href="#m028e418e5d" y="473.403122"/>
     <use style="fill:#1f77b4;stroke:#1f77b4;" x="380.099877" xlink:href="#m028e418e5d" y="473.535716"/>
     <use style="fill:#1f77b4;stroke:#1f77b4;" x="382.791693" xlink:href="#m028e418e5d" y="474.26498"/>
     <use style="fill:#1f77b4;stroke:#1f77b4;" x="385.591182" xlink:href="#m028e418e5d" y="477.132312"/>
     <use style="fill:#1f77b4;stroke:#1f77b4;" x="387.744634" xlink:href="#m028e418e5d" y="477.463796"/>
     <use style="fill:#1f77b4;stroke:#1f77b4;" x="388.821361" xlink:href="#m028e418e5d" y="478.143337"/>
     <use style="fill:#1f77b4;stroke:#1f77b4;" x="389.790415" xlink:href="#m028e418e5d" y="478.292505"/>
     <use style="fill:#1f77b4;stroke:#1f77b4;" x="395.066374" xlink:href="#m028e418e5d" y="478.872601"/>
     <use style="fill:#1f77b4;stroke:#1f77b4;" x="404.218548" xlink:href="#m028e418e5d" y="479.601865"/>
     <use style="fill:#1f77b4;stroke:#1f77b4;" x="411.109597" xlink:href="#m028e418e5d" y="479.949922"/>
     <use style="fill:#1f77b4;stroke:#1f77b4;" x="412.83236" xlink:href="#m028e418e5d" y="482.303455"/>
     <use style="fill:#1f77b4;stroke:#1f77b4;" x="416.385557" xlink:href="#m028e418e5d" y="483.612815"/>
     <use style="fill:#1f77b4;stroke:#1f77b4;" x="416.708575" xlink:href="#m028e418e5d" y="483.662538"/>
     <use style="fill:#1f77b4;stroke:#1f77b4;" x="417.031593" xlink:href="#m028e418e5d" y="483.71226"/>
     <use style="fill:#1f77b4;stroke:#1f77b4;" x="417.354611" xlink:href="#m028e418e5d" y="483.761983"/>
     <use style="fill:#1f77b4;stroke:#1f77b4;" x="419.723409" xlink:href="#m028e418e5d" y="484.209486"/>
     <use style="fill:#1f77b4;stroke:#1f77b4;" x="425.537731" xlink:href="#m028e418e5d" y="484.342079"/>
     <use style="fill:#1f77b4;stroke:#1f77b4;" x="425.860749" xlink:href="#m028e418e5d" y="484.42495"/>
     <use style="fill:#1f77b4;stroke:#1f77b4;" x="426.506785" xlink:href="#m028e418e5d" y="484.690137"/>
     <use style="fill:#1f77b4;stroke:#1f77b4;" x="426.829803" xlink:href="#m028e418e5d" y="484.739859"/>
     <use style="fill:#1f77b4;stroke:#1f77b4;" x="427.152821" xlink:href="#m028e418e5d" y="484.789582"/>
     <use style="fill:#1f77b4;stroke:#1f77b4;" x="427.475839" xlink:href="#m028e418e5d" y="484.839304"/>
     <use style="fill:#1f77b4;stroke:#1f77b4;" x="431.782744" xlink:href="#m028e418e5d" y="485.966349"/>
     <use style="fill:#1f77b4;stroke:#1f77b4;" x="437.166376" xlink:href="#m028e418e5d" y="487.076818"/>
     <use style="fill:#1f77b4;stroke:#1f77b4;" x="442.657681" xlink:href="#m028e418e5d" y="487.209412"/>
     <use style="fill:#1f77b4;stroke:#1f77b4;" x="451.271492" xlink:href="#m028e418e5d" y="487.375154"/>
     <use style="fill:#1f77b4;stroke:#1f77b4;" x="452.778909" xlink:href="#m028e418e5d" y="488.054695"/>
     <use style="fill:#1f77b4;stroke:#1f77b4;" x="459.669958" xlink:href="#m028e418e5d" y="488.187288"/>
     <use style="fill:#1f77b4;stroke:#1f77b4;" x="461.069703" xlink:href="#m028e418e5d" y="488.303307"/>
     <use style="fill:#1f77b4;stroke:#1f77b4;" x="461.285048" xlink:href="#m028e418e5d" y="488.717662"/>
     <use style="fill:#1f77b4;stroke:#1f77b4;" x="462.900137" xlink:href="#m028e418e5d" y="489.132016"/>
     <use style="fill:#1f77b4;stroke:#1f77b4;" x="469.898859" xlink:href="#m028e418e5d" y="489.248036"/>
     <use style="fill:#1f77b4;stroke:#1f77b4;" x="472.483002" xlink:href="#m028e418e5d" y="489.745261"/>
     <use style="fill:#1f77b4;stroke:#1f77b4;" x="472.913693" xlink:href="#m028e418e5d" y="491.419253"/>
     <use style="fill:#1f77b4;stroke:#1f77b4;" x="475.820854" xlink:href="#m028e418e5d" y="491.502124"/>
     <use style="fill:#1f77b4;stroke:#1f77b4;" x="477.328271" xlink:href="#m028e418e5d" y="491.584994"/>
     <use style="fill:#1f77b4;stroke:#1f77b4;" x="477.974307" xlink:href="#m028e418e5d" y="491.601569"/>
     <use style="fill:#1f77b4;stroke:#1f77b4;" x="483.573284" xlink:href="#m028e418e5d" y="491.68444"/>
     <use style="fill:#1f77b4;stroke:#1f77b4;" x="484.542338" xlink:href="#m028e418e5d" y="492.131942"/>
     <use style="fill:#1f77b4;stroke:#1f77b4;" x="488.956916" xlink:href="#m028e418e5d" y="492.297684"/>
     <use style="fill:#1f77b4;stroke:#1f77b4;" x="495.740293" xlink:href="#m028e418e5d" y="492.314258"/>
     <use style="fill:#1f77b4;stroke:#1f77b4;" x="498.109091" xlink:href="#m028e418e5d" y="492.48"/>
    </g>
   </g>
   <g id="matplotlib.axis_1">
    <g id="xtick_1">
     <g id="line2d_1">
      <defs>
       <path d="M 0 0 
L 0 3.5 
" id="md14b557af9" style="stroke:#000000;stroke-width:0.8;"/>
      </defs>
      <g>
       <use style="stroke:#000000;stroke-width:0.8;" x="106.61137" xlink:href="#md14b557af9" y="512.64"/>
      </g>
     </g>
     <g id="text_1">
      <!-- 1300 -->
      <g transform="translate(90.06887 529.517969)scale(0.13 -0.13)">
       <defs>
        <path d="M 12.40625 8.296875 
L 28.515625 8.296875 
L 28.515625 63.921875 
L 10.984375 60.40625 
L 10.984375 69.390625 
L 28.421875 72.90625 
L 38.28125 72.90625 
L 38.28125 8.296875 
L 54.390625 8.296875 
L 54.390625 0 
L 12.40625 0 
z
" id="DejaVuSans-49"/>
        <path d="M 40.578125 39.3125 
Q 47.65625 37.796875 51.625 33 
Q 55.609375 28.21875 55.609375 21.1875 
Q 55.609375 10.40625 48.1875 4.484375 
Q 40.765625 -1.421875 27.09375 -1.421875 
Q 22.515625 -1.421875 17.65625 -0.515625 
Q 12.796875 0.390625 7.625 2.203125 
L 7.625 11.71875 
Q 11.71875 9.328125 16.59375 8.109375 
Q 21.484375 6.890625 26.8125 6.890625 
Q 36.078125 6.890625 40.9375 10.546875 
Q 45.796875 14.203125 45.796875 21.1875 
Q 45.796875 27.640625 41.28125 31.265625 
Q 36.765625 34.90625 28.71875 34.90625 
L 20.21875 34.90625 
L 20.21875 43.015625 
L 29.109375 43.015625 
Q 36.375 43.015625 40.234375 45.921875 
Q 44.09375 48.828125 44.09375 54.296875 
Q 44.09375 59.90625 40.109375 62.90625 
Q 36.140625 65.921875 28.71875 65.921875 
Q 24.65625 65.921875 20.015625 65.03125 
Q 15.375 64.15625 9.8125 62.3125 
L 9.8125 71.09375 
Q 15.4375 72.65625 20.34375 73.4375 
Q 25.25 74.21875 29.59375 74.21875 
Q 40.828125 74.21875 47.359375 69.109375 
Q 53.90625 64.015625 53.90625 55.328125 
Q 53.90625 49.265625 50.4375 45.09375 
Q 46.96875 40.921875 40.578125 39.3125 
z
" id="DejaVuSans-51"/>
        <path d="M 31.78125 66.40625 
Q 24.171875 66.40625 20.328125 58.90625 
Q 16.5 51.421875 16.5 36.375 
Q 16.5 21.390625 20.328125 13.890625 
Q 24.171875 6.390625 31.78125 6.390625 
Q 39.453125 6.390625 43.28125 13.890625 
Q 47.125 21.390625 47.125 36.375 
Q 47.125 51.421875 43.28125 58.90625 
Q 39.453125 66.40625 31.78125 66.40625 
z
M 31.78125 74.21875 
Q 44.046875 74.21875 50.515625 64.515625 
Q 56.984375 54.828125 56.984375 36.375 
Q 56.984375 17.96875 50.515625 8.265625 
Q 44.046875 -1.421875 31.78125 -1.421875 
Q 19.53125 -1.421875 13.0625 8.265625 
Q 6.59375 17.96875 6.59375 36.375 
Q 6.59375 54.828125 13.0625 64.515625 
Q 19.53125 74.21875 31.78125 74.21875 
z
" id="DejaVuSans-48"/>
       </defs>
       <use xlink:href="#DejaVuSans-49"/>
       <use x="63.623047" xlink:href="#DejaVuSans-51"/>
       <use x="127.246094" xlink:href="#DejaVuSans-48"/>
       <use x="190.869141" xlink:href="#DejaVuSans-48"/>
      </g>
     </g>
    </g>
    <g id="xtick_2">
     <g id="line2d_2">
      <g>
       <use style="stroke:#000000;stroke-width:0.8;" x="160.44769" xlink:href="#md14b557af9" y="512.64"/>
      </g>
     </g>
     <g id="text_2">
      <!-- 1350 -->
      <g transform="translate(143.90519 529.517969)scale(0.13 -0.13)">
       <defs>
        <path d="M 10.796875 72.90625 
L 49.515625 72.90625 
L 49.515625 64.59375 
L 19.828125 64.59375 
L 19.828125 46.734375 
Q 21.96875 47.46875 24.109375 47.828125 
Q 26.265625 48.1875 28.421875 48.1875 
Q 40.625 48.1875 47.75 41.5 
Q 54.890625 34.8125 54.890625 23.390625 
Q 54.890625 11.625 47.5625 5.09375 
Q 40.234375 -1.421875 26.90625 -1.421875 
Q 22.3125 -1.421875 17.546875 -0.640625 
Q 12.796875 0.140625 7.71875 1.703125 
L 7.71875 11.625 
Q 12.109375 9.234375 16.796875 8.0625 
Q 21.484375 6.890625 26.703125 6.890625 
Q 35.15625 6.890625 40.078125 11.328125 
Q 45.015625 15.765625 45.015625 23.390625 
Q 45.015625 31 40.078125 35.4375 
Q 35.15625 39.890625 26.703125 39.890625 
Q 22.75 39.890625 18.8125 39.015625 
Q 14.890625 38.140625 10.796875 36.28125 
z
" id="DejaVuSans-53"/>
       </defs>
       <use xlink:href="#DejaVuSans-49"/>
       <use x="63.623047" xlink:href="#DejaVuSans-51"/>
       <use x="127.246094" xlink:href="#DejaVuSans-53"/>
       <use x="190.869141" xlink:href="#DejaVuSans-48"/>
      </g>
     </g>
    </g>
    <g id="xtick_3">
     <g id="line2d_3">
      <g>
       <use style="stroke:#000000;stroke-width:0.8;" x="214.284011" xlink:href="#md14b557af9" y="512.64"/>
      </g>
     </g>
     <g id="text_3">
      <!-- 1400 -->
      <g transform="translate(197.741511 529.517969)scale(0.13 -0.13)">
       <defs>
        <path d="M 37.796875 64.3125 
L 12.890625 25.390625 
L 37.796875 25.390625 
z
M 35.203125 72.90625 
L 47.609375 72.90625 
L 47.609375 25.390625 
L 58.015625 25.390625 
L 58.015625 17.1875 
L 47.609375 17.1875 
L 47.609375 0 
L 37.796875 0 
L 37.796875 17.1875 
L 4.890625 17.1875 
L 4.890625 26.703125 
z
" id="DejaVuSans-52"/>
       </defs>
       <use xlink:href="#DejaVuSans-49"/>
       <use x="63.623047" xlink:href="#DejaVuSans-52"/>
       <use x="127.246094" xlink:href="#DejaVuSans-48"/>
       <use x="190.869141" xlink:href="#DejaVuSans-48"/>
      </g>
     </g>
    </g>
    <g id="xtick_4">
     <g id="line2d_4">
      <g>
       <use style="stroke:#000000;stroke-width:0.8;" x="268.120331" xlink:href="#md14b557af9" y="512.64"/>
      </g>
     </g>
     <g id="text_4">
      <!-- 1450 -->
      <g transform="translate(251.577831 529.517969)scale(0.13 -0.13)">
       <use xlink:href="#DejaVuSans-49"/>
       <use x="63.623047" xlink:href="#DejaVuSans-52"/>
       <use x="127.246094" xlink:href="#DejaVuSans-53"/>
       <use x="190.869141" xlink:href="#DejaVuSans-48"/>
      </g>
     </g>
    </g>
    <g id="xtick_5">
     <g id="line2d_5">
      <g>
       <use style="stroke:#000000;stroke-width:0.8;" x="321.956651" xlink:href="#md14b557af9" y="512.64"/>
      </g>
     </g>
     <g id="text_5">
      <!-- 1500 -->
      <g transform="translate(305.414151 529.517969)scale(0.13 -0.13)">
       <use xlink:href="#DejaVuSans-49"/>
       <use x="63.623047" xlink:href="#DejaVuSans-53"/>
       <use x="127.246094" xlink:href="#DejaVuSans-48"/>
       <use x="190.869141" xlink:href="#DejaVuSans-48"/>
      </g>
     </g>
    </g>
    <g id="xtick_6">
     <g id="line2d_6">
      <g>
       <use style="stroke:#000000;stroke-width:0.8;" x="375.792971" xlink:href="#md14b557af9" y="512.64"/>
      </g>
     </g>
     <g id="text_6">
      <!-- 1550 -->
      <g transform="translate(359.250471 529.517969)scale(0.13 -0.13)">
       <use xlink:href="#DejaVuSans-49"/>
       <use x="63.623047" xlink:href="#DejaVuSans-53"/>
       <use x="127.246094" xlink:href="#DejaVuSans-53"/>
       <use x="190.869141" xlink:href="#DejaVuSans-48"/>
      </g>
     </g>
    </g>
    <g id="xtick_7">
     <g id="line2d_7">
      <g>
       <use style="stroke:#000000;stroke-width:0.8;" x="429.629292" xlink:href="#md14b557af9" y="512.64"/>
      </g>
     </g>
     <g id="text_7">
      <!-- 1600 -->
      <g transform="translate(413.086792 529.517969)scale(0.13 -0.13)">
       <defs>
        <path d="M 33.015625 40.375 
Q 26.375 40.375 22.484375 35.828125 
Q 18.609375 31.296875 18.609375 23.390625 
Q 18.609375 15.53125 22.484375 10.953125 
Q 26.375 6.390625 33.015625 6.390625 
Q 39.65625 6.390625 43.53125 10.953125 
Q 47.40625 15.53125 47.40625 23.390625 
Q 47.40625 31.296875 43.53125 35.828125 
Q 39.65625 40.375 33.015625 40.375 
z
M 52.59375 71.296875 
L 52.59375 62.3125 
Q 48.875 64.0625 45.09375 64.984375 
Q 41.3125 65.921875 37.59375 65.921875 
Q 27.828125 65.921875 22.671875 59.328125 
Q 17.53125 52.734375 16.796875 39.40625 
Q 19.671875 43.65625 24.015625 45.921875 
Q 28.375 48.1875 33.59375 48.1875 
Q 44.578125 48.1875 50.953125 41.515625 
Q 57.328125 34.859375 57.328125 23.390625 
Q 57.328125 12.15625 50.6875 5.359375 
Q 44.046875 -1.421875 33.015625 -1.421875 
Q 20.359375 -1.421875 13.671875 8.265625 
Q 6.984375 17.96875 6.984375 36.375 
Q 6.984375 53.65625 15.1875 63.9375 
Q 23.390625 74.21875 37.203125 74.21875 
Q 40.921875 74.21875 44.703125 73.484375 
Q 48.484375 72.75 52.59375 71.296875 
z
" id="DejaVuSans-54"/>
       </defs>
       <use xlink:href="#DejaVuSans-49"/>
       <use x="63.623047" xlink:href="#DejaVuSans-54"/>
       <use x="127.246094" xlink:href="#DejaVuSans-48"/>
       <use x="190.869141" xlink:href="#DejaVuSans-48"/>
      </g>
     </g>
    </g>
    <g id="xtick_8">
     <g id="line2d_8">
      <g>
       <use style="stroke:#000000;stroke-width:0.8;" x="483.465612" xlink:href="#md14b557af9" y="512.64"/>
      </g>
     </g>
     <g id="text_8">
      <!-- 1650 -->
      <g transform="translate(466.923112 529.517969)scale(0.13 -0.13)">
       <use xlink:href="#DejaVuSans-49"/>
       <use x="63.623047" xlink:href="#DejaVuSans-54"/>
       <use x="127.246094" xlink:href="#DejaVuSans-53"/>
       <use x="190.869141" xlink:href="#DejaVuSans-48"/>
      </g>
     </g>
    </g>
    <g id="text_9">
     <!-- Total traveled distance -->
     <g transform="translate(210.004687 547.619219)scale(0.15 -0.15)">
      <defs>
       <path d="M -0.296875 72.90625 
L 61.375 72.90625 
L 61.375 64.59375 
L 35.5 64.59375 
L 35.5 0 
L 25.59375 0 
L 25.59375 64.59375 
L -0.296875 64.59375 
z
" id="DejaVuSans-84"/>
       <path d="M 30.609375 48.390625 
Q 23.390625 48.390625 19.1875 42.75 
Q 14.984375 37.109375 14.984375 27.296875 
Q 14.984375 17.484375 19.15625 11.84375 
Q 23.34375 6.203125 30.609375 6.203125 
Q 37.796875 6.203125 41.984375 11.859375 
Q 46.1875 17.53125 46.1875 27.296875 
Q 46.1875 37.015625 41.984375 42.703125 
Q 37.796875 48.390625 30.609375 48.390625 
z
M 30.609375 56 
Q 42.328125 56 49.015625 48.375 
Q 55.71875 40.765625 55.71875 27.296875 
Q 55.71875 13.875 49.015625 6.21875 
Q 42.328125 -1.421875 30.609375 -1.421875 
Q 18.84375 -1.421875 12.171875 6.21875 
Q 5.515625 13.875 5.515625 27.296875 
Q 5.515625 40.765625 12.171875 48.375 
Q 18.84375 56 30.609375 56 
z
" id="DejaVuSans-111"/>
       <path d="M 18.3125 70.21875 
L 18.3125 54.6875 
L 36.8125 54.6875 
L 36.8125 47.703125 
L 18.3125 47.703125 
L 18.3125 18.015625 
Q 18.3125 11.328125 20.140625 9.421875 
Q 21.96875 7.515625 27.59375 7.515625 
L 36.8125 7.515625 
L 36.8125 0 
L 27.59375 0 
Q 17.1875 0 13.234375 3.875 
Q 9.28125 7.765625 9.28125 18.015625 
L 9.28125 47.703125 
L 2.6875 47.703125 
L 2.6875 54.6875 
L 9.28125 54.6875 
L 9.28125 70.21875 
z
" id="DejaVuSans-116"/>
       <path d="M 34.28125 27.484375 
Q 23.390625 27.484375 19.1875 25 
Q 14.984375 22.515625 14.984375 16.5 
Q 14.984375 11.71875 18.140625 8.90625 
Q 21.296875 6.109375 26.703125 6.109375 
Q 34.1875 6.109375 38.703125 11.40625 
Q 43.21875 16.703125 43.21875 25.484375 
L 43.21875 27.484375 
z
M 52.203125 31.203125 
L 52.203125 0 
L 43.21875 0 
L 43.21875 8.296875 
Q 40.140625 3.328125 35.546875 0.953125 
Q 30.953125 -1.421875 24.3125 -1.421875 
Q 15.921875 -1.421875 10.953125 3.296875 
Q 6 8.015625 6 15.921875 
Q 6 25.140625 12.171875 29.828125 
Q 18.359375 34.515625 30.609375 34.515625 
L 43.21875 34.515625 
L 43.21875 35.40625 
Q 43.21875 41.609375 39.140625 45 
Q 35.0625 48.390625 27.6875 48.390625 
Q 23 48.390625 18.546875 47.265625 
Q 14.109375 46.140625 10.015625 43.890625 
L 10.015625 52.203125 
Q 14.9375 54.109375 19.578125 55.046875 
Q 24.21875 56 28.609375 56 
Q 40.484375 56 46.34375 49.84375 
Q 52.203125 43.703125 52.203125 31.203125 
z
" id="DejaVuSans-97"/>
       <path d="M 9.421875 75.984375 
L 18.40625 75.984375 
L 18.40625 0 
L 9.421875 0 
z
" id="DejaVuSans-108"/>
       <path id="DejaVuSans-32"/>
       <path d="M 41.109375 46.296875 
Q 39.59375 47.171875 37.8125 47.578125 
Q 36.03125 48 33.890625 48 
Q 26.265625 48 22.1875 43.046875 
Q 18.109375 38.09375 18.109375 28.8125 
L 18.109375 0 
L 9.078125 0 
L 9.078125 54.6875 
L 18.109375 54.6875 
L 18.109375 46.1875 
Q 20.953125 51.171875 25.484375 53.578125 
Q 30.03125 56 36.53125 56 
Q 37.453125 56 38.578125 55.875 
Q 39.703125 55.765625 41.0625 55.515625 
z
" id="DejaVuSans-114"/>
       <path d="M 2.984375 54.6875 
L 12.5 54.6875 
L 29.59375 8.796875 
L 46.6875 54.6875 
L 56.203125 54.6875 
L 35.6875 0 
L 23.484375 0 
z
" id="DejaVuSans-118"/>
       <path d="M 56.203125 29.59375 
L 56.203125 25.203125 
L 14.890625 25.203125 
Q 15.484375 15.921875 20.484375 11.0625 
Q 25.484375 6.203125 34.421875 6.203125 
Q 39.59375 6.203125 44.453125 7.46875 
Q 49.3125 8.734375 54.109375 11.28125 
L 54.109375 2.78125 
Q 49.265625 0.734375 44.1875 -0.34375 
Q 39.109375 -1.421875 33.890625 -1.421875 
Q 20.796875 -1.421875 13.15625 6.1875 
Q 5.515625 13.8125 5.515625 26.8125 
Q 5.515625 40.234375 12.765625 48.109375 
Q 20.015625 56 32.328125 56 
Q 43.359375 56 49.78125 48.890625 
Q 56.203125 41.796875 56.203125 29.59375 
z
M 47.21875 32.234375 
Q 47.125 39.59375 43.09375 43.984375 
Q 39.0625 48.390625 32.421875 48.390625 
Q 24.90625 48.390625 20.390625 44.140625 
Q 15.875 39.890625 15.1875 32.171875 
z
" id="DejaVuSans-101"/>
       <path d="M 45.40625 46.390625 
L 45.40625 75.984375 
L 54.390625 75.984375 
L 54.390625 0 
L 45.40625 0 
L 45.40625 8.203125 
Q 42.578125 3.328125 38.25 0.953125 
Q 33.9375 -1.421875 27.875 -1.421875 
Q 17.96875 -1.421875 11.734375 6.484375 
Q 5.515625 14.40625 5.515625 27.296875 
Q 5.515625 40.1875 11.734375 48.09375 
Q 17.96875 56 27.875 56 
Q 33.9375 56 38.25 53.625 
Q 42.578125 51.265625 45.40625 46.390625 
z
M 14.796875 27.296875 
Q 14.796875 17.390625 18.875 11.75 
Q 22.953125 6.109375 30.078125 6.109375 
Q 37.203125 6.109375 41.296875 11.75 
Q 45.40625 17.390625 45.40625 27.296875 
Q 45.40625 37.203125 41.296875 42.84375 
Q 37.203125 48.484375 30.078125 48.484375 
Q 22.953125 48.484375 18.875 42.84375 
Q 14.796875 37.203125 14.796875 27.296875 
z
" id="DejaVuSans-100"/>
       <path d="M 9.421875 54.6875 
L 18.40625 54.6875 
L 18.40625 0 
L 9.421875 0 
z
M 9.421875 75.984375 
L 18.40625 75.984375 
L 18.40625 64.59375 
L 9.421875 64.59375 
z
" id="DejaVuSans-105"/>
       <path d="M 44.28125 53.078125 
L 44.28125 44.578125 
Q 40.484375 46.53125 36.375 47.5 
Q 32.28125 48.484375 27.875 48.484375 
Q 21.1875 48.484375 17.84375 46.4375 
Q 14.5 44.390625 14.5 40.28125 
Q 14.5 37.15625 16.890625 35.375 
Q 19.28125 33.59375 26.515625 31.984375 
L 29.59375 31.296875 
Q 39.15625 29.25 43.1875 25.515625 
Q 47.21875 21.78125 47.21875 15.09375 
Q 47.21875 7.46875 41.1875 3.015625 
Q 35.15625 -1.421875 24.609375 -1.421875 
Q 20.21875 -1.421875 15.453125 -0.5625 
Q 10.6875 0.296875 5.421875 2 
L 5.421875 11.28125 
Q 10.40625 8.6875 15.234375 7.390625 
Q 20.0625 6.109375 24.8125 6.109375 
Q 31.15625 6.109375 34.5625 8.28125 
Q 37.984375 10.453125 37.984375 14.40625 
Q 37.984375 18.0625 35.515625 20.015625 
Q 33.0625 21.96875 24.703125 23.78125 
L 21.578125 24.515625 
Q 13.234375 26.265625 9.515625 29.90625 
Q 5.8125 33.546875 5.8125 39.890625 
Q 5.8125 47.609375 11.28125 51.796875 
Q 16.75 56 26.8125 56 
Q 31.78125 56 36.171875 55.265625 
Q 40.578125 54.546875 44.28125 53.078125 
z
" id="DejaVuSans-115"/>
       <path d="M 54.890625 33.015625 
L 54.890625 0 
L 45.90625 0 
L 45.90625 32.71875 
Q 45.90625 40.484375 42.875 44.328125 
Q 39.84375 48.1875 33.796875 48.1875 
Q 26.515625 48.1875 22.3125 43.546875 
Q 18.109375 38.921875 18.109375 30.90625 
L 18.109375 0 
L 9.078125 0 
L 9.078125 54.6875 
L 18.109375 54.6875 
L 18.109375 46.1875 
Q 21.34375 51.125 25.703125 53.5625 
Q 30.078125 56 35.796875 56 
Q 45.21875 56 50.046875 50.171875 
Q 54.890625 44.34375 54.890625 33.015625 
z
" id="DejaVuSans-110"/>
       <path d="M 48.78125 52.59375 
L 48.78125 44.1875 
Q 44.96875 46.296875 41.140625 47.34375 
Q 37.3125 48.390625 33.40625 48.390625 
Q 24.65625 48.390625 19.8125 42.84375 
Q 14.984375 37.3125 14.984375 27.296875 
Q 14.984375 17.28125 19.8125 11.734375 
Q 24.65625 6.203125 33.40625 6.203125 
Q 37.3125 6.203125 41.140625 7.25 
Q 44.96875 8.296875 48.78125 10.40625 
L 48.78125 2.09375 
Q 45.015625 0.34375 40.984375 -0.53125 
Q 36.96875 -1.421875 32.421875 -1.421875 
Q 20.0625 -1.421875 12.78125 6.34375 
Q 5.515625 14.109375 5.515625 27.296875 
Q 5.515625 40.671875 12.859375 48.328125 
Q 20.21875 56 33.015625 56 
Q 37.15625 56 41.109375 55.140625 
Q 45.0625 54.296875 48.78125 52.59375 
z
" id="DejaVuSans-99"/>
      </defs>
      <use xlink:href="#DejaVuSans-84"/>
      <use x="44.083984" xlink:href="#DejaVuSans-111"/>
      <use x="105.265625" xlink:href="#DejaVuSans-116"/>
      <use x="144.474609" xlink:href="#DejaVuSans-97"/>
      <use x="205.753906" xlink:href="#DejaVuSans-108"/>
      <use x="233.537109" xlink:href="#DejaVuSans-32"/>
      <use x="265.324219" xlink:href="#DejaVuSans-116"/>
      <use x="304.533203" xlink:href="#DejaVuSans-114"/>
      <use x="345.646484" xlink:href="#DejaVuSans-97"/>
      <use x="406.925781" xlink:href="#DejaVuSans-118"/>
      <use x="466.105469" xlink:href="#DejaVuSans-101"/>
      <use x="527.628906" xlink:href="#DejaVuSans-108"/>
      <use x="555.412109" xlink:href="#DejaVuSans-101"/>
      <use x="616.935547" xlink:href="#DejaVuSans-100"/>
      <use x="680.412109" xlink:href="#DejaVuSans-32"/>
      <use x="712.199219" xlink:href="#DejaVuSans-100"/>
      <use x="775.675781" xlink:href="#DejaVuSans-105"/>
      <use x="803.458984" xlink:href="#DejaVuSans-115"/>
      <use x="855.558594" xlink:href="#DejaVuSans-116"/>
      <use x="894.767578" xlink:href="#DejaVuSans-97"/>
      <use x="956.046875" xlink:href="#DejaVuSans-110"/>
      <use x="1019.425781" xlink:href="#DejaVuSans-99"/>
      <use x="1074.40625" xlink:href="#DejaVuSans-101"/>
     </g>
    </g>
   </g>
   <g id="matplotlib.axis_2">
    <g id="ytick_1">
     <g id="line2d_9">
      <defs>
       <path d="M 0 0 
L -3.5 0 
" id="m3451e55c3c" style="stroke:#000000;stroke-width:0.8;"/>
      </defs>
      <g>
       <use style="stroke:#000000;stroke-width:0.8;" x="72" xlink:href="#m3451e55c3c" y="492.48"/>
      </g>
     </g>
     <g id="text_10">
      <!-- 0 -->
      <g transform="translate(56.72875 497.418984)scale(0.13 -0.13)">
       <use xlink:href="#DejaVuSans-48"/>
      </g>
     </g>
    </g>
    <g id="ytick_2">
     <g id="line2d_10">
      <g>
       <use style="stroke:#000000;stroke-width:0.8;" x="72" xlink:href="#m3451e55c3c" y="409.609116"/>
      </g>
     </g>
     <g id="text_11">
      <!-- 500 -->
      <g transform="translate(40.18625 414.5481)scale(0.13 -0.13)">
       <use xlink:href="#DejaVuSans-53"/>
       <use x="63.623047" xlink:href="#DejaVuSans-48"/>
       <use x="127.246094" xlink:href="#DejaVuSans-48"/>
      </g>
     </g>
    </g>
    <g id="ytick_3">
     <g id="line2d_11">
      <g>
       <use style="stroke:#000000;stroke-width:0.8;" x="72" xlink:href="#m3451e55c3c" y="326.738232"/>
      </g>
     </g>
     <g id="text_12">
      <!-- 1000 -->
      <g transform="translate(31.915 331.677216)scale(0.13 -0.13)">
       <use xlink:href="#DejaVuSans-49"/>
       <use x="63.623047" xlink:href="#DejaVuSans-48"/>
       <use x="127.246094" xlink:href="#DejaVuSans-48"/>
       <use x="190.869141" xlink:href="#DejaVuSans-48"/>
      </g>
     </g>
    </g>
    <g id="ytick_4">
     <g id="line2d_12">
      <g>
       <use style="stroke:#000000;stroke-width:0.8;" x="72" xlink:href="#m3451e55c3c" y="243.867347"/>
      </g>
     </g>
     <g id="text_13">
      <!-- 1500 -->
      <g transform="translate(31.915 248.806332)scale(0.13 -0.13)">
       <use xlink:href="#DejaVuSans-49"/>
       <use x="63.623047" xlink:href="#DejaVuSans-53"/>
       <use x="127.246094" xlink:href="#DejaVuSans-48"/>
       <use x="190.869141" xlink:href="#DejaVuSans-48"/>
      </g>
     </g>
    </g>
    <g id="ytick_5">
     <g id="line2d_13">
      <g>
       <use style="stroke:#000000;stroke-width:0.8;" x="72" xlink:href="#m3451e55c3c" y="160.996463"/>
      </g>
     </g>
     <g id="text_14">
      <!-- 2000 -->
      <g transform="translate(31.915 165.935448)scale(0.13 -0.13)">
       <defs>
        <path d="M 19.1875 8.296875 
L 53.609375 8.296875 
L 53.609375 0 
L 7.328125 0 
L 7.328125 8.296875 
Q 12.9375 14.109375 22.625 23.890625 
Q 32.328125 33.6875 34.8125 36.53125 
Q 39.546875 41.84375 41.421875 45.53125 
Q 43.3125 49.21875 43.3125 52.78125 
Q 43.3125 58.59375 39.234375 62.25 
Q 35.15625 65.921875 28.609375 65.921875 
Q 23.96875 65.921875 18.8125 64.3125 
Q 13.671875 62.703125 7.8125 59.421875 
L 7.8125 69.390625 
Q 13.765625 71.78125 18.9375 73 
Q 24.125 74.21875 28.421875 74.21875 
Q 39.75 74.21875 46.484375 68.546875 
Q 53.21875 62.890625 53.21875 53.421875 
Q 53.21875 48.921875 51.53125 44.890625 
Q 49.859375 40.875 45.40625 35.40625 
Q 44.1875 33.984375 37.640625 27.21875 
Q 31.109375 20.453125 19.1875 8.296875 
z
" id="DejaVuSans-50"/>
       </defs>
       <use xlink:href="#DejaVuSans-50"/>
       <use x="63.623047" xlink:href="#DejaVuSans-48"/>
       <use x="127.246094" xlink:href="#DejaVuSans-48"/>
       <use x="190.869141" xlink:href="#DejaVuSans-48"/>
      </g>
     </g>
    </g>
    <g id="ytick_6">
     <g id="line2d_14">
      <g>
       <use style="stroke:#000000;stroke-width:0.8;" x="72" xlink:href="#m3451e55c3c" y="78.125579"/>
      </g>
     </g>
     <g id="text_15">
      <!-- 2500 -->
      <g transform="translate(31.915 83.064563)scale(0.13 -0.13)">
       <use xlink:href="#DejaVuSans-50"/>
       <use x="63.623047" xlink:href="#DejaVuSans-53"/>
       <use x="127.246094" xlink:href="#DejaVuSans-48"/>
       <use x="190.869141" xlink:href="#DejaVuSans-48"/>
      </g>
     </g>
    </g>
    <g id="text_16">
     <!-- Total waiting time -->
     <g transform="translate(24.795469 357.457734)rotate(-90)scale(0.15 -0.15)">
      <defs>
       <path d="M 4.203125 54.6875 
L 13.1875 54.6875 
L 24.421875 12.015625 
L 35.59375 54.6875 
L 46.1875 54.6875 
L 57.421875 12.015625 
L 68.609375 54.6875 
L 77.59375 54.6875 
L 63.28125 0 
L 52.6875 0 
L 40.921875 44.828125 
L 29.109375 0 
L 18.5 0 
z
" id="DejaVuSans-119"/>
       <path d="M 45.40625 27.984375 
Q 45.40625 37.75 41.375 43.109375 
Q 37.359375 48.484375 30.078125 48.484375 
Q 22.859375 48.484375 18.828125 43.109375 
Q 14.796875 37.75 14.796875 27.984375 
Q 14.796875 18.265625 18.828125 12.890625 
Q 22.859375 7.515625 30.078125 7.515625 
Q 37.359375 7.515625 41.375 12.890625 
Q 45.40625 18.265625 45.40625 27.984375 
z
M 54.390625 6.78125 
Q 54.390625 -7.171875 48.1875 -13.984375 
Q 42 -20.796875 29.203125 -20.796875 
Q 24.46875 -20.796875 20.265625 -20.09375 
Q 16.0625 -19.390625 12.109375 -17.921875 
L 12.109375 -9.1875 
Q 16.0625 -11.328125 19.921875 -12.34375 
Q 23.78125 -13.375 27.78125 -13.375 
Q 36.625 -13.375 41.015625 -8.765625 
Q 45.40625 -4.15625 45.40625 5.171875 
L 45.40625 9.625 
Q 42.625 4.78125 38.28125 2.390625 
Q 33.9375 0 27.875 0 
Q 17.828125 0 11.671875 7.65625 
Q 5.515625 15.328125 5.515625 27.984375 
Q 5.515625 40.671875 11.671875 48.328125 
Q 17.828125 56 27.875 56 
Q 33.9375 56 38.28125 53.609375 
Q 42.625 51.21875 45.40625 46.390625 
L 45.40625 54.6875 
L 54.390625 54.6875 
z
" id="DejaVuSans-103"/>
       <path d="M 52 44.1875 
Q 55.375 50.25 60.0625 53.125 
Q 64.75 56 71.09375 56 
Q 79.640625 56 84.28125 50.015625 
Q 88.921875 44.046875 88.921875 33.015625 
L 88.921875 0 
L 79.890625 0 
L 79.890625 32.71875 
Q 79.890625 40.578125 77.09375 44.375 
Q 74.3125 48.1875 68.609375 48.1875 
Q 61.625 48.1875 57.5625 43.546875 
Q 53.515625 38.921875 53.515625 30.90625 
L 53.515625 0 
L 44.484375 0 
L 44.484375 32.71875 
Q 44.484375 40.625 41.703125 44.40625 
Q 38.921875 48.1875 33.109375 48.1875 
Q 26.21875 48.1875 22.15625 43.53125 
Q 18.109375 38.875 18.109375 30.90625 
L 18.109375 0 
L 9.078125 0 
L 9.078125 54.6875 
L 18.109375 54.6875 
L 18.109375 46.1875 
Q 21.1875 51.21875 25.484375 53.609375 
Q 29.78125 56 35.6875 56 
Q 41.65625 56 45.828125 52.96875 
Q 50 49.953125 52 44.1875 
z
" id="DejaVuSans-109"/>
      </defs>
      <use xlink:href="#DejaVuSans-84"/>
      <use x="44.083984" xlink:href="#DejaVuSans-111"/>
      <use x="105.265625" xlink:href="#DejaVuSans-116"/>
      <use x="144.474609" xlink:href="#DejaVuSans-97"/>
      <use x="205.753906" xlink:href="#DejaVuSans-108"/>
      <use x="233.537109" xlink:href="#DejaVuSans-32"/>
      <use x="265.324219" xlink:href="#DejaVuSans-119"/>
      <use x="347.111328" xlink:href="#DejaVuSans-97"/>
      <use x="408.390625" xlink:href="#DejaVuSans-105"/>
      <use x="436.173828" xlink:href="#DejaVuSans-116"/>
      <use x="475.382812" xlink:href="#DejaVuSans-105"/>
      <use x="503.166016" xlink:href="#DejaVuSans-110"/>
      <use x="566.544922" xlink:href="#DejaVuSans-103"/>
      <use x="630.021484" xlink:href="#DejaVuSans-32"/>
      <use x="661.808594" xlink:href="#DejaVuSans-116"/>
      <use x="701.017578" xlink:href="#DejaVuSans-105"/>
      <use x="728.800781" xlink:href="#DejaVuSans-109"/>
      <use x="826.212891" xlink:href="#DejaVuSans-101"/>
     </g>
    </g>
   </g>
   <g id="patch_3">
    <path d="M 72 512.64 
L 72 69.12 
" style="fill:none;stroke:#000000;stroke-linecap:square;stroke-linejoin:miter;stroke-width:0.8;"/>
   </g>
   <g id="patch_4">
    <path d="M 518.4 512.64 
L 518.4 69.12 
" style="fill:none;stroke:#000000;stroke-linecap:square;stroke-linejoin:miter;stroke-width:0.8;"/>
   </g>
   <g id="patch_5">
    <path d="M 72 512.64 
L 518.4 512.64 
" style="fill:none;stroke:#000000;stroke-linecap:square;stroke-linejoin:miter;stroke-width:0.8;"/>
   </g>
   <g id="patch_6">
    <path d="M 72 69.12 
L 518.4 69.12 
" style="fill:none;stroke:#000000;stroke-linecap:square;stroke-linejoin:miter;stroke-width:0.8;"/>
   </g>
   <g id="text_17">
    <!-- Pareto-front of RC201-100 -->
    <g transform="translate(197.269922 63.12)scale(0.15 -0.15)">
     <defs>
      <path d="M 19.671875 64.796875 
L 19.671875 37.40625 
L 32.078125 37.40625 
Q 38.96875 37.40625 42.71875 40.96875 
Q 46.484375 44.53125 46.484375 51.125 
Q 46.484375 57.671875 42.71875 61.234375 
Q 38.96875 64.796875 32.078125 64.796875 
z
M 9.8125 72.90625 
L 32.078125 72.90625 
Q 44.34375 72.90625 50.609375 67.359375 
Q 56.890625 61.8125 56.890625 51.125 
Q 56.890625 40.328125 50.609375 34.8125 
Q 44.34375 29.296875 32.078125 29.296875 
L 19.671875 29.296875 
L 19.671875 0 
L 9.8125 0 
z
" id="DejaVuSans-80"/>
      <path d="M 4.890625 31.390625 
L 31.203125 31.390625 
L 31.203125 23.390625 
L 4.890625 23.390625 
z
" id="DejaVuSans-45"/>
      <path d="M 37.109375 75.984375 
L 37.109375 68.5 
L 28.515625 68.5 
Q 23.6875 68.5 21.796875 66.546875 
Q 19.921875 64.59375 19.921875 59.515625 
L 19.921875 54.6875 
L 34.71875 54.6875 
L 34.71875 47.703125 
L 19.921875 47.703125 
L 19.921875 0 
L 10.890625 0 
L 10.890625 47.703125 
L 2.296875 47.703125 
L 2.296875 54.6875 
L 10.890625 54.6875 
L 10.890625 58.5 
Q 10.890625 67.625 15.140625 71.796875 
Q 19.390625 75.984375 28.609375 75.984375 
z
" id="DejaVuSans-102"/>
      <path d="M 44.390625 34.1875 
Q 47.5625 33.109375 50.5625 29.59375 
Q 53.5625 26.078125 56.59375 19.921875 
L 66.609375 0 
L 56 0 
L 46.6875 18.703125 
Q 43.0625 26.03125 39.671875 28.421875 
Q 36.28125 30.8125 30.421875 30.8125 
L 19.671875 30.8125 
L 19.671875 0 
L 9.8125 0 
L 9.8125 72.90625 
L 32.078125 72.90625 
Q 44.578125 72.90625 50.734375 67.671875 
Q 56.890625 62.453125 56.890625 51.90625 
Q 56.890625 45.015625 53.6875 40.46875 
Q 50.484375 35.9375 44.390625 34.1875 
z
M 19.671875 64.796875 
L 19.671875 38.921875 
L 32.078125 38.921875 
Q 39.203125 38.921875 42.84375 42.21875 
Q 46.484375 45.515625 46.484375 51.90625 
Q 46.484375 58.296875 42.84375 61.546875 
Q 39.203125 64.796875 32.078125 64.796875 
z
" id="DejaVuSans-82"/>
      <path d="M 64.40625 67.28125 
L 64.40625 56.890625 
Q 59.421875 61.53125 53.78125 63.8125 
Q 48.140625 66.109375 41.796875 66.109375 
Q 29.296875 66.109375 22.65625 58.46875 
Q 16.015625 50.828125 16.015625 36.375 
Q 16.015625 21.96875 22.65625 14.328125 
Q 29.296875 6.6875 41.796875 6.6875 
Q 48.140625 6.6875 53.78125 8.984375 
Q 59.421875 11.28125 64.40625 15.921875 
L 64.40625 5.609375 
Q 59.234375 2.09375 53.4375 0.328125 
Q 47.65625 -1.421875 41.21875 -1.421875 
Q 24.65625 -1.421875 15.125 8.703125 
Q 5.609375 18.84375 5.609375 36.375 
Q 5.609375 53.953125 15.125 64.078125 
Q 24.65625 74.21875 41.21875 74.21875 
Q 47.75 74.21875 53.53125 72.484375 
Q 59.328125 70.75 64.40625 67.28125 
z
" id="DejaVuSans-67"/>
     </defs>
     <use xlink:href="#DejaVuSans-80"/>
     <use x="55.802734" xlink:href="#DejaVuSans-97"/>
     <use x="117.082031" xlink:href="#DejaVuSans-114"/>
     <use x="155.945312" xlink:href="#DejaVuSans-101"/>
     <use x="217.46875" xlink:href="#DejaVuSans-116"/>
     <use x="256.677734" xlink:href="#DejaVuSans-111"/>
     <use x="319.734375" xlink:href="#DejaVuSans-45"/>
     <use x="355.818359" xlink:href="#DejaVuSans-102"/>
     <use x="391.023438" xlink:href="#DejaVuSans-114"/>
     <use x="429.886719" xlink:href="#DejaVuSans-111"/>
     <use x="491.068359" xlink:href="#DejaVuSans-110"/>
     <use x="554.447266" xlink:href="#DejaVuSans-116"/>
     <use x="593.65625" xlink:href="#DejaVuSans-32"/>
     <use x="625.443359" xlink:href="#DejaVuSans-111"/>
     <use x="686.625" xlink:href="#DejaVuSans-102"/>
     <use x="721.830078" xlink:href="#DejaVuSans-32"/>
     <use x="753.617188" xlink:href="#DejaVuSans-82"/>
     <use x="818.099609" xlink:href="#DejaVuSans-67"/>
     <use x="887.923828" xlink:href="#DejaVuSans-50"/>
     <use x="951.546875" xlink:href="#DejaVuSans-48"/>
     <use x="1015.169922" xlink:href="#DejaVuSans-49"/>
     <use x="1078.792969" xlink:href="#DejaVuSans-45"/>
     <use x="1114.876953" xlink:href="#DejaVuSans-49"/>
     <use x="1178.5" xlink:href="#DejaVuSans-48"/>
     <use x="1242.123047" xlink:href="#DejaVuSans-48"/>
    </g>
   </g>
  </g>
 </g>
 <defs>
  <clipPath id="p1fcec1fa47">
   <rect height="443.52" width="446.4" x="72" y="69.12"/>
  </clipPath>
 </defs>
</svg>
