<?xml version="1.0" encoding="utf-8" standalone="no"?>
<!DOCTYPE svg PUBLIC "-//W3C//DTD SVG 1.1//EN"
  "http://www.w3.org/Graphics/SVG/1.1/DTD/svg11.dtd">
<!-- Created with matplotlib (https://matplotlib.org/) -->
<svg height="576pt" version="1.1" viewBox="0 0 576 576" width="576pt" xmlns="http://www.w3.org/2000/svg" xmlns:xlink="http://www.w3.org/1999/xlink">
 <metadata>
  <rdf:RDF xmlns:cc="http://creativecommons.org/ns#" xmlns:dc="http://purl.org/dc/elements/1.1/" xmlns:rdf="http://www.w3.org/1999/02/22-rdf-syntax-ns#">
   <cc:Work>
    <dc:type rdf:resource="http://purl.org/dc/dcmitype/StillImage"/>
    <dc:date>2022-03-29T10:55:28.055125</dc:date>
    <dc:format>image/svg+xml</dc:format>
    <dc:creator>
     <cc:Agent>
      <dc:title>Matplotlib v3.3.4, https://matplotlib.org/</dc:title>
     </cc:Agent>
    </dc:creator>
   </cc:Work>
  </rdf:RDF>
 </metadata>
 <defs>
  <style type="text/css">*{stroke-linecap:butt;stroke-linejoin:round;}</style>
 </defs>
 <g id="figure_1">
  <g id="patch_1">
   <path d="M 0 576 
L 576 576 
L 576 0 
L 0 0 
z
" style="fill:#ffffff;"/>
  </g>
  <g id="axes_1">
   <g id="patch_2">
    <path d="M 72 512.64 
L 518.4 512.64 
L 518.4 69.12 
L 72 69.12 
z
" style="fill:#ffffff;"/>
   </g>
   <g id="PathCollection_1">
    <defs>
     <path d="M 0 3 
C 0.795609 3 1.55874 2.683901 2.12132 2.12132 
C 2.683901 1.55874 3 0.795609 3 0 
C 3 -0.795609 2.683901 -1.55874 2.12132 -2.12132 
C 1.55874 -2.683901 0.795609 -3 0 -3 
C -0.795609 -3 -1.55874 -2.683901 -2.12132 -2.12132 
C -2.683901 -1.55874 -3 -0.795609 -3 0 
C -3 0.795609 -2.683901 1.55874 -2.12132 2.12132 
C -1.55874 2.683901 -0.795609 3 0 3 
z
" id="m1ef30ebe0e" style="stroke:#1f77b4;"/>
    </defs>
    <g clip-path="url(#p0919cb159c)">
     <use style="fill:#1f77b4;stroke:#1f77b4;" x="92.290909" xlink:href="#m1ef30ebe0e" y="89.28"/>
     <use style="fill:#1f77b4;stroke:#1f77b4;" x="92.730868" xlink:href="#m1ef30ebe0e" y="144.893793"/>
     <use style="fill:#1f77b4;stroke:#1f77b4;" x="93.170827" xlink:href="#m1ef30ebe0e" y="170.012178"/>
     <use style="fill:#1f77b4;stroke:#1f77b4;" x="93.346811" xlink:href="#m1ef30ebe0e" y="170.165807"/>
     <use style="fill:#1f77b4;stroke:#1f77b4;" x="93.78677" xlink:href="#m1ef30ebe0e" y="174.621055"/>
     <use style="fill:#1f77b4;stroke:#1f77b4;" x="93.962753" xlink:href="#m1ef30ebe0e" y="175.542831"/>
     <use style="fill:#1f77b4;stroke:#1f77b4;" x="94.226729" xlink:href="#m1ef30ebe0e" y="189.062206"/>
     <use style="fill:#1f77b4;stroke:#1f77b4;" x="94.402712" xlink:href="#m1ef30ebe0e" y="199.662625"/>
     <use style="fill:#1f77b4;stroke:#1f77b4;" x="94.578696" xlink:href="#m1ef30ebe0e" y="200.584401"/>
     <use style="fill:#1f77b4;stroke:#1f77b4;" x="94.666688" xlink:href="#m1ef30ebe0e" y="213.412444"/>
     <use style="fill:#1f77b4;stroke:#1f77b4;" x="94.842671" xlink:href="#m1ef30ebe0e" y="214.33422"/>
     <use style="fill:#1f77b4;stroke:#1f77b4;" x="95.018655" xlink:href="#m1ef30ebe0e" y="214.487849"/>
     <use style="fill:#1f77b4;stroke:#1f77b4;" x="95.28263" xlink:href="#m1ef30ebe0e" y="218.789468"/>
     <use style="fill:#1f77b4;stroke:#1f77b4;" x="95.458614" xlink:href="#m1ef30ebe0e" y="219.711244"/>
     <use style="fill:#1f77b4;stroke:#1f77b4;" x="95.634597" xlink:href="#m1ef30ebe0e" y="219.864873"/>
     <use style="fill:#1f77b4;stroke:#1f77b4;" x="95.722589" xlink:href="#m1ef30ebe0e" y="219.941688"/>
     <use style="fill:#1f77b4;stroke:#1f77b4;" x="96.074556" xlink:href="#m1ef30ebe0e" y="224.089678"/>
     <use style="fill:#1f77b4;stroke:#1f77b4;" x="96.162548" xlink:href="#m1ef30ebe0e" y="224.166493"/>
     <use style="fill:#1f77b4;stroke:#1f77b4;" x="96.25054" xlink:href="#m1ef30ebe0e" y="224.243307"/>
     <use style="fill:#1f77b4;stroke:#1f77b4;" x="96.338532" xlink:href="#m1ef30ebe0e" y="224.320122"/>
     <use style="fill:#1f77b4;stroke:#1f77b4;" x="96.778491" xlink:href="#m1ef30ebe0e" y="224.704195"/>
     <use style="fill:#1f77b4;stroke:#1f77b4;" x="96.866483" xlink:href="#m1ef30ebe0e" y="224.78101"/>
     <use style="fill:#1f77b4;stroke:#1f77b4;" x="97.834392" xlink:href="#m1ef30ebe0e" y="239.606234"/>
     <use style="fill:#1f77b4;stroke:#1f77b4;" x="98.010376" xlink:href="#m1ef30ebe0e" y="239.759863"/>
     <use style="fill:#1f77b4;stroke:#1f77b4;" x="98.098368" xlink:href="#m1ef30ebe0e" y="239.836677"/>
     <use style="fill:#1f77b4;stroke:#1f77b4;" x="98.450335" xlink:href="#m1ef30ebe0e" y="243.984668"/>
     <use style="fill:#1f77b4;stroke:#1f77b4;" x="98.626319" xlink:href="#m1ef30ebe0e" y="244.138297"/>
     <use style="fill:#1f77b4;stroke:#1f77b4;" x="98.71431" xlink:href="#m1ef30ebe0e" y="244.215111"/>
     <use style="fill:#1f77b4;stroke:#1f77b4;" x="99.242261" xlink:href="#m1ef30ebe0e" y="244.675999"/>
     <use style="fill:#1f77b4;stroke:#1f77b4;" x="99.418245" xlink:href="#m1ef30ebe0e" y="245.828219"/>
     <use style="fill:#1f77b4;stroke:#1f77b4;" x="99.506237" xlink:href="#m1ef30ebe0e" y="245.905033"/>
     <use style="fill:#1f77b4;stroke:#1f77b4;" x="99.594228" xlink:href="#m1ef30ebe0e" y="245.981848"/>
     <use style="fill:#1f77b4;stroke:#1f77b4;" x="99.68222" xlink:href="#m1ef30ebe0e" y="246.058663"/>
     <use style="fill:#1f77b4;stroke:#1f77b4;" x="101.090089" xlink:href="#m1ef30ebe0e" y="246.442736"/>
     <use style="fill:#1f77b4;stroke:#1f77b4;" x="101.882015" xlink:href="#m1ef30ebe0e" y="253.432867"/>
     <use style="fill:#1f77b4;stroke:#1f77b4;" x="102.057999" xlink:href="#m1ef30ebe0e" y="254.354643"/>
     <use style="fill:#1f77b4;stroke:#1f77b4;" x="102.497958" xlink:href="#m1ef30ebe0e" y="259.578038"/>
     <use style="fill:#1f77b4;stroke:#1f77b4;" x="102.673941" xlink:href="#m1ef30ebe0e" y="259.731667"/>
     <use style="fill:#1f77b4;stroke:#1f77b4;" x="103.1139" xlink:href="#m1ef30ebe0e" y="263.956472"/>
     <use style="fill:#1f77b4;stroke:#1f77b4;" x="103.289884" xlink:href="#m1ef30ebe0e" y="264.110101"/>
     <use style="fill:#1f77b4;stroke:#1f77b4;" x="103.377876" xlink:href="#m1ef30ebe0e" y="264.186916"/>
     <use style="fill:#1f77b4;stroke:#1f77b4;" x="104.697753" xlink:href="#m1ef30ebe0e" y="268.642164"/>
     <use style="fill:#1f77b4;stroke:#1f77b4;" x="108.569392" xlink:href="#m1ef30ebe0e" y="269.640754"/>
     <use style="fill:#1f77b4;stroke:#1f77b4;" x="109.009351" xlink:href="#m1ef30ebe0e" y="270.024828"/>
     <use style="fill:#1f77b4;stroke:#1f77b4;" x="109.361318" xlink:href="#m1ef30ebe0e" y="272.252452"/>
     <use style="fill:#1f77b4;stroke:#1f77b4;" x="109.713286" xlink:href="#m1ef30ebe0e" y="281.239764"/>
     <use style="fill:#1f77b4;stroke:#1f77b4;" x="109.801277" xlink:href="#m1ef30ebe0e" y="281.316578"/>
     <use style="fill:#1f77b4;stroke:#1f77b4;" x="110.593204" xlink:href="#m1ef30ebe0e" y="282.00791"/>
     <use style="fill:#1f77b4;stroke:#1f77b4;" x="110.681195" xlink:href="#m1ef30ebe0e" y="283.083315"/>
     <use style="fill:#1f77b4;stroke:#1f77b4;" x="110.769187" xlink:href="#m1ef30ebe0e" y="283.16013"/>
     <use style="fill:#1f77b4;stroke:#1f77b4;" x="111.561113" xlink:href="#m1ef30ebe0e" y="283.851461"/>
     <use style="fill:#1f77b4;stroke:#1f77b4;" x="111.649105" xlink:href="#m1ef30ebe0e" y="283.928276"/>
     <use style="fill:#1f77b4;stroke:#1f77b4;" x="113.408941" xlink:href="#m1ef30ebe0e" y="286.1559"/>
     <use style="fill:#1f77b4;stroke:#1f77b4;" x="113.496933" xlink:href="#m1ef30ebe0e" y="287.231305"/>
     <use style="fill:#1f77b4;stroke:#1f77b4;" x="113.760908" xlink:href="#m1ef30ebe0e" y="295.834544"/>
     <use style="fill:#1f77b4;stroke:#1f77b4;" x="114.376851" xlink:href="#m1ef30ebe0e" y="301.211568"/>
     <use style="fill:#1f77b4;stroke:#1f77b4;" x="114.464843" xlink:href="#m1ef30ebe0e" y="301.288383"/>
     <use style="fill:#1f77b4;stroke:#1f77b4;" x="115.256769" xlink:href="#m1ef30ebe0e" y="301.979714"/>
     <use style="fill:#1f77b4;stroke:#1f77b4;" x="115.344761" xlink:href="#m1ef30ebe0e" y="302.056529"/>
     <use style="fill:#1f77b4;stroke:#1f77b4;" x="115.78472" xlink:href="#m1ef30ebe0e" y="305.743631"/>
     <use style="fill:#1f77b4;stroke:#1f77b4;" x="115.872712" xlink:href="#m1ef30ebe0e" y="305.820446"/>
     <use style="fill:#1f77b4;stroke:#1f77b4;" x="116.664638" xlink:href="#m1ef30ebe0e" y="306.511777"/>
     <use style="fill:#1f77b4;stroke:#1f77b4;" x="116.75263" xlink:href="#m1ef30ebe0e" y="306.588592"/>
     <use style="fill:#1f77b4;stroke:#1f77b4;" x="118.600457" xlink:href="#m1ef30ebe0e" y="309.891621"/>
     <use style="fill:#1f77b4;stroke:#1f77b4;" x="119.480375" xlink:href="#m1ef30ebe0e" y="310.659768"/>
     <use style="fill:#1f77b4;stroke:#1f77b4;" x="121.504187" xlink:href="#m1ef30ebe0e" y="310.736582"/>
     <use style="fill:#1f77b4;stroke:#1f77b4;" x="126.07976" xlink:href="#m1ef30ebe0e" y="320.64567"/>
     <use style="fill:#1f77b4;stroke:#1f77b4;" x="126.783695" xlink:href="#m1ef30ebe0e" y="324.64003"/>
     <use style="fill:#1f77b4;stroke:#1f77b4;" x="126.871687" xlink:href="#m1ef30ebe0e" y="324.716845"/>
     <use style="fill:#1f77b4;stroke:#1f77b4;" x="127.663613" xlink:href="#m1ef30ebe0e" y="325.408177"/>
     <use style="fill:#1f77b4;stroke:#1f77b4;" x="127.751605" xlink:href="#m1ef30ebe0e" y="325.484991"/>
     <use style="fill:#1f77b4;stroke:#1f77b4;" x="129.599432" xlink:href="#m1ef30ebe0e" y="328.788021"/>
     <use style="fill:#1f77b4;stroke:#1f77b4;" x="130.215375" xlink:href="#m1ef30ebe0e" y="329.325723"/>
     <use style="fill:#1f77b4;stroke:#1f77b4;" x="130.47935" xlink:href="#m1ef30ebe0e" y="329.556167"/>
     <use style="fill:#1f77b4;stroke:#1f77b4;" x="132.767137" xlink:href="#m1ef30ebe0e" y="329.94024"/>
     <use style="fill:#1f77b4;stroke:#1f77b4;" x="132.943121" xlink:href="#m1ef30ebe0e" y="331.706977"/>
     <use style="fill:#1f77b4;stroke:#1f77b4;" x="134.526973" xlink:href="#m1ef30ebe0e" y="333.08964"/>
     <use style="fill:#1f77b4;stroke:#1f77b4;" x="135.318899" xlink:href="#m1ef30ebe0e" y="333.780972"/>
     <use style="fill:#1f77b4;stroke:#1f77b4;" x="135.670867" xlink:href="#m1ef30ebe0e" y="334.318674"/>
     <use style="fill:#1f77b4;stroke:#1f77b4;" x="136.198817" xlink:href="#m1ef30ebe0e" y="334.549118"/>
     <use style="fill:#1f77b4;stroke:#1f77b4;" x="136.550785" xlink:href="#m1ef30ebe0e" y="335.08682"/>
     <use style="fill:#1f77b4;stroke:#1f77b4;" x="138.310621" xlink:href="#m1ef30ebe0e" y="336.853557"/>
     <use style="fill:#1f77b4;stroke:#1f77b4;" x="138.574596" xlink:href="#m1ef30ebe0e" y="337.084001"/>
     <use style="fill:#1f77b4;stroke:#1f77b4;" x="139.190539" xlink:href="#m1ef30ebe0e" y="337.621703"/>
     <use style="fill:#1f77b4;stroke:#1f77b4;" x="139.894473" xlink:href="#m1ef30ebe0e" y="338.23622"/>
     <use style="fill:#1f77b4;stroke:#1f77b4;" x="141.390334" xlink:href="#m1ef30ebe0e" y="339.311625"/>
     <use style="fill:#1f77b4;stroke:#1f77b4;" x="142.270252" xlink:href="#m1ef30ebe0e" y="340.079771"/>
     <use style="fill:#1f77b4;stroke:#1f77b4;" x="142.886194" xlink:href="#m1ef30ebe0e" y="340.38703"/>
     <use style="fill:#1f77b4;stroke:#1f77b4;" x="144.734022" xlink:href="#m1ef30ebe0e" y="342.230581"/>
     <use style="fill:#1f77b4;stroke:#1f77b4;" x="146.933817" xlink:href="#m1ef30ebe0e" y="344.381391"/>
     <use style="fill:#1f77b4;stroke:#1f77b4;" x="147.461768" xlink:href="#m1ef30ebe0e" y="344.842279"/>
     <use style="fill:#1f77b4;stroke:#1f77b4;" x="147.637751" xlink:href="#m1ef30ebe0e" y="344.995908"/>
     <use style="fill:#1f77b4;stroke:#1f77b4;" x="148.07771" xlink:href="#m1ef30ebe0e" y="345.379981"/>
     <use style="fill:#1f77b4;stroke:#1f77b4;" x="148.957628" xlink:href="#m1ef30ebe0e" y="346.148127"/>
     <use style="fill:#1f77b4;stroke:#1f77b4;" x="149.221604" xlink:href="#m1ef30ebe0e" y="346.378571"/>
     <use style="fill:#1f77b4;stroke:#1f77b4;" x="149.485579" xlink:href="#m1ef30ebe0e" y="346.609015"/>
     <use style="fill:#1f77b4;stroke:#1f77b4;" x="149.573571" xlink:href="#m1ef30ebe0e" y="346.68583"/>
     <use style="fill:#1f77b4;stroke:#1f77b4;" x="150.453489" xlink:href="#m1ef30ebe0e" y="347.453976"/>
     <use style="fill:#1f77b4;stroke:#1f77b4;" x="152.037341" xlink:href="#m1ef30ebe0e" y="348.606195"/>
     <use style="fill:#1f77b4;stroke:#1f77b4;" x="153.005251" xlink:href="#m1ef30ebe0e" y="349.6816"/>
     <use style="fill:#1f77b4;stroke:#1f77b4;" x="154.765087" xlink:href="#m1ef30ebe0e" y="351.217893"/>
     <use style="fill:#1f77b4;stroke:#1f77b4;" x="155.38103" xlink:href="#m1ef30ebe0e" y="351.755595"/>
     <use style="fill:#1f77b4;stroke:#1f77b4;" x="155.908981" xlink:href="#m1ef30ebe0e" y="352.216483"/>
     <use style="fill:#1f77b4;stroke:#1f77b4;" x="156.34894" xlink:href="#m1ef30ebe0e" y="352.600556"/>
     <use style="fill:#1f77b4;stroke:#1f77b4;" x="157.140866" xlink:href="#m1ef30ebe0e" y="353.291888"/>
     <use style="fill:#1f77b4;stroke:#1f77b4;" x="158.108776" xlink:href="#m1ef30ebe0e" y="353.675961"/>
     <use style="fill:#1f77b4;stroke:#1f77b4;" x="160.308571" xlink:href="#m1ef30ebe0e" y="354.597737"/>
     <use style="fill:#1f77b4;stroke:#1f77b4;" x="161.540456" xlink:href="#m1ef30ebe0e" y="357.13262"/>
     <use style="fill:#1f77b4;stroke:#1f77b4;" x="161.892423" xlink:href="#m1ef30ebe0e" y="357.439878"/>
     <use style="fill:#1f77b4;stroke:#1f77b4;" x="166.907956" xlink:href="#m1ef30ebe0e" y="361.357424"/>
     <use style="fill:#1f77b4;stroke:#1f77b4;" x="167.171931" xlink:href="#m1ef30ebe0e" y="362.048756"/>
     <use style="fill:#1f77b4;stroke:#1f77b4;" x="171.659513" xlink:href="#m1ef30ebe0e" y="362.509644"/>
     <use style="fill:#1f77b4;stroke:#1f77b4;" x="172.275455" xlink:href="#m1ef30ebe0e" y="366.504005"/>
     <use style="fill:#1f77b4;stroke:#1f77b4;" x="172.715414" xlink:href="#m1ef30ebe0e" y="366.888078"/>
     <use style="fill:#1f77b4;stroke:#1f77b4;" x="173.507341" xlink:href="#m1ef30ebe0e" y="367.579409"/>
     <use style="fill:#1f77b4;stroke:#1f77b4;" x="176.147095" xlink:href="#m1ef30ebe0e" y="369.883848"/>
     <use style="fill:#1f77b4;stroke:#1f77b4;" x="179.138816" xlink:href="#m1ef30ebe0e" y="372.495546"/>
     <use style="fill:#1f77b4;stroke:#1f77b4;" x="179.84275" xlink:href="#m1ef30ebe0e" y="373.110063"/>
     <use style="fill:#1f77b4;stroke:#1f77b4;" x="183.186439" xlink:href="#m1ef30ebe0e" y="373.955024"/>
     <use style="fill:#1f77b4;stroke:#1f77b4;" x="186.354143" xlink:href="#m1ef30ebe0e" y="378.717531"/>
     <use style="fill:#1f77b4;stroke:#1f77b4;" x="187.14607" xlink:href="#m1ef30ebe0e" y="379.101604"/>
     <use style="fill:#1f77b4;stroke:#1f77b4;" x="189.169881" xlink:href="#m1ef30ebe0e" y="379.639307"/>
     <use style="fill:#1f77b4;stroke:#1f77b4;" x="189.961807" xlink:href="#m1ef30ebe0e" y="381.866931"/>
     <use style="fill:#1f77b4;stroke:#1f77b4;" x="190.049799" xlink:href="#m1ef30ebe0e" y="382.02056"/>
     <use style="fill:#1f77b4;stroke:#1f77b4;" x="190.665742" xlink:href="#m1ef30ebe0e" y="382.558263"/>
     <use style="fill:#1f77b4;stroke:#1f77b4;" x="192.689553" xlink:href="#m1ef30ebe0e" y="384.324999"/>
     <use style="fill:#1f77b4;stroke:#1f77b4;" x="194.00943" xlink:href="#m1ef30ebe0e" y="384.632258"/>
     <use style="fill:#1f77b4;stroke:#1f77b4;" x="195.681274" xlink:href="#m1ef30ebe0e" y="386.859882"/>
     <use style="fill:#1f77b4;stroke:#1f77b4;" x="196.737176" xlink:href="#m1ef30ebe0e" y="387.32077"/>
     <use style="fill:#1f77b4;stroke:#1f77b4;" x="197.529102" xlink:href="#m1ef30ebe0e" y="388.549804"/>
     <use style="fill:#1f77b4;stroke:#1f77b4;" x="199.024963" xlink:href="#m1ef30ebe0e" y="389.855653"/>
     <use style="fill:#1f77b4;stroke:#1f77b4;" x="199.904881" xlink:href="#m1ef30ebe0e" y="390.393355"/>
     <use style="fill:#1f77b4;stroke:#1f77b4;" x="200.608815" xlink:href="#m1ef30ebe0e" y="391.007872"/>
     <use style="fill:#1f77b4;stroke:#1f77b4;" x="201.048774" xlink:href="#m1ef30ebe0e" y="391.622389"/>
     <use style="fill:#1f77b4;stroke:#1f77b4;" x="202.104676" xlink:href="#m1ef30ebe0e" y="392.083277"/>
     <use style="fill:#1f77b4;stroke:#1f77b4;" x="202.368651" xlink:href="#m1ef30ebe0e" y="392.313721"/>
     <use style="fill:#1f77b4;stroke:#1f77b4;" x="202.80861" xlink:href="#m1ef30ebe0e" y="392.928238"/>
     <use style="fill:#1f77b4;stroke:#1f77b4;" x="203.336561" xlink:href="#m1ef30ebe0e" y="393.235496"/>
     <use style="fill:#1f77b4;stroke:#1f77b4;" x="204.392462" xlink:href="#m1ef30ebe0e" y="394.541345"/>
     <use style="fill:#1f77b4;stroke:#1f77b4;" x="205.096397" xlink:href="#m1ef30ebe0e" y="395.155862"/>
     <use style="fill:#1f77b4;stroke:#1f77b4;" x="206.152298" xlink:href="#m1ef30ebe0e" y="395.61675"/>
     <use style="fill:#1f77b4;stroke:#1f77b4;" x="206.592257" xlink:href="#m1ef30ebe0e" y="396.231267"/>
     <use style="fill:#1f77b4;stroke:#1f77b4;" x="207.912134" xlink:href="#m1ef30ebe0e" y="396.768969"/>
     <use style="fill:#1f77b4;stroke:#1f77b4;" x="208.704061" xlink:href="#m1ef30ebe0e" y="397.306672"/>
     <use style="fill:#1f77b4;stroke:#1f77b4;" x="209.14402" xlink:href="#m1ef30ebe0e" y="398.151633"/>
     <use style="fill:#1f77b4;stroke:#1f77b4;" x="209.583979" xlink:href="#m1ef30ebe0e" y="398.76615"/>
     <use style="fill:#1f77b4;stroke:#1f77b4;" x="214.07156" xlink:href="#m1ef30ebe0e" y="400.302442"/>
     <use style="fill:#1f77b4;stroke:#1f77b4;" x="214.159552" xlink:href="#m1ef30ebe0e" y="400.609701"/>
     <use style="fill:#1f77b4;stroke:#1f77b4;" x="214.599511" xlink:href="#m1ef30ebe0e" y="401.224218"/>
     <use style="fill:#1f77b4;stroke:#1f77b4;" x="215.567421" xlink:href="#m1ef30ebe0e" y="401.608291"/>
     <use style="fill:#1f77b4;stroke:#1f77b4;" x="216.447339" xlink:href="#m1ef30ebe0e" y="402.145994"/>
     <use style="fill:#1f77b4;stroke:#1f77b4;" x="217.239265" xlink:href="#m1ef30ebe0e" y="403.067769"/>
     <use style="fill:#1f77b4;stroke:#1f77b4;" x="217.767216" xlink:href="#m1ef30ebe0e" y="404.066359"/>
     <use style="fill:#1f77b4;stroke:#1f77b4;" x="218.735126" xlink:href="#m1ef30ebe0e" y="404.373618"/>
     <use style="fill:#1f77b4;stroke:#1f77b4;" x="219.703036" xlink:href="#m1ef30ebe0e" y="404.988135"/>
     <use style="fill:#1f77b4;stroke:#1f77b4;" x="222.518773" xlink:href="#m1ef30ebe0e" y="407.446203"/>
     <use style="fill:#1f77b4;stroke:#1f77b4;" x="223.926642" xlink:href="#m1ef30ebe0e" y="408.905681"/>
     <use style="fill:#1f77b4;stroke:#1f77b4;" x="225.070535" xlink:href="#m1ef30ebe0e" y="409.366569"/>
     <use style="fill:#1f77b4;stroke:#1f77b4;" x="225.510494" xlink:href="#m1ef30ebe0e" y="409.981086"/>
     <use style="fill:#1f77b4;stroke:#1f77b4;" x="228.414224" xlink:href="#m1ef30ebe0e" y="411.517379"/>
     <use style="fill:#1f77b4;stroke:#1f77b4;" x="233.693732" xlink:href="#m1ef30ebe0e" y="415.281295"/>
     <use style="fill:#1f77b4;stroke:#1f77b4;" x="234.397666" xlink:href="#m1ef30ebe0e" y="416.203071"/>
     <use style="fill:#1f77b4;stroke:#1f77b4;" x="238.357297" xlink:href="#m1ef30ebe0e" y="418.123437"/>
     <use style="fill:#1f77b4;stroke:#1f77b4;" x="241.349018" xlink:href="#m1ef30ebe0e" y="420.65832"/>
     <use style="fill:#1f77b4;stroke:#1f77b4;" x="242.844879" xlink:href="#m1ef30ebe0e" y="421.426466"/>
     <use style="fill:#1f77b4;stroke:#1f77b4;" x="244.34074" xlink:href="#m1ef30ebe0e" y="422.732315"/>
     <use style="fill:#1f77b4;stroke:#1f77b4;" x="246.012584" xlink:href="#m1ef30ebe0e" y="422.885944"/>
     <use style="fill:#1f77b4;stroke:#1f77b4;" x="248.036395" xlink:href="#m1ef30ebe0e" y="424.652681"/>
     <use style="fill:#1f77b4;stroke:#1f77b4;" x="249.26828" xlink:href="#m1ef30ebe0e" y="426.880305"/>
     <use style="fill:#1f77b4;stroke:#1f77b4;" x="251.028116" xlink:href="#m1ef30ebe0e" y="427.187563"/>
     <use style="fill:#1f77b4;stroke:#1f77b4;" x="256.395616" xlink:href="#m1ef30ebe0e" y="429.107929"/>
     <use style="fill:#1f77b4;stroke:#1f77b4;" x="257.187542" xlink:href="#m1ef30ebe0e" y="430.721036"/>
     <use style="fill:#1f77b4;stroke:#1f77b4;" x="262.291067" xlink:href="#m1ef30ebe0e" y="430.797851"/>
     <use style="fill:#1f77b4;stroke:#1f77b4;" x="263.082993" xlink:href="#m1ef30ebe0e" y="433.563178"/>
     <use style="fill:#1f77b4;stroke:#1f77b4;" x="265.282788" xlink:href="#m1ef30ebe0e" y="433.870436"/>
     <use style="fill:#1f77b4;stroke:#1f77b4;" x="265.37078" xlink:href="#m1ef30ebe0e" y="437.327095"/>
     <use style="fill:#1f77b4;stroke:#1f77b4;" x="269.330411" xlink:href="#m1ef30ebe0e" y="438.24887"/>
     <use style="fill:#1f77b4;stroke:#1f77b4;" x="270.386312" xlink:href="#m1ef30ebe0e" y="438.4025"/>
     <use style="fill:#1f77b4;stroke:#1f77b4;" x="273.730001" xlink:href="#m1ef30ebe0e" y="439.40109"/>
     <use style="fill:#1f77b4;stroke:#1f77b4;" x="274.785902" xlink:href="#m1ef30ebe0e" y="444.086782"/>
     <use style="fill:#1f77b4;stroke:#1f77b4;" x="279.361476" xlink:href="#m1ef30ebe0e" y="444.54767"/>
     <use style="fill:#1f77b4;stroke:#1f77b4;" x="279.801435" xlink:href="#m1ef30ebe0e" y="445.162187"/>
     <use style="fill:#1f77b4;stroke:#1f77b4;" x="282.793156" xlink:href="#m1ef30ebe0e" y="447.69707"/>
     <use style="fill:#1f77b4;stroke:#1f77b4;" x="289.568525" xlink:href="#m1ef30ebe0e" y="449.69425"/>
     <use style="fill:#1f77b4;stroke:#1f77b4;" x="290.360451" xlink:href="#m1ef30ebe0e" y="450.616026"/>
     <use style="fill:#1f77b4;stroke:#1f77b4;" x="291.856312" xlink:href="#m1ef30ebe0e" y="451.691431"/>
     <use style="fill:#1f77b4;stroke:#1f77b4;" x="293.528156" xlink:href="#m1ef30ebe0e" y="451.84506"/>
     <use style="fill:#1f77b4;stroke:#1f77b4;" x="295.024016" xlink:href="#m1ef30ebe0e" y="455.378533"/>
     <use style="fill:#1f77b4;stroke:#1f77b4;" x="298.807664" xlink:href="#m1ef30ebe0e" y="456.453938"/>
     <use style="fill:#1f77b4;stroke:#1f77b4;" x="300.5675" xlink:href="#m1ef30ebe0e" y="456.607567"/>
     <use style="fill:#1f77b4;stroke:#1f77b4;" x="301.711393" xlink:href="#m1ef30ebe0e" y="459.833782"/>
     <use style="fill:#1f77b4;stroke:#1f77b4;" x="304.263155" xlink:href="#m1ef30ebe0e" y="460.755557"/>
     <use style="fill:#1f77b4;stroke:#1f77b4;" x="306.726926" xlink:href="#m1ef30ebe0e" y="460.909187"/>
     <use style="fill:#1f77b4;stroke:#1f77b4;" x="307.078893" xlink:href="#m1ef30ebe0e" y="461.754147"/>
     <use style="fill:#1f77b4;stroke:#1f77b4;" x="312.270409" xlink:href="#m1ef30ebe0e" y="462.29185"/>
     <use style="fill:#1f77b4;stroke:#1f77b4;" x="313.76627" xlink:href="#m1ef30ebe0e" y="466.209396"/>
     <use style="fill:#1f77b4;stroke:#1f77b4;" x="316.318032" xlink:href="#m1ef30ebe0e" y="467.131172"/>
     <use style="fill:#1f77b4;stroke:#1f77b4;" x="316.845983" xlink:href="#m1ef30ebe0e" y="467.284801"/>
     <use style="fill:#1f77b4;stroke:#1f77b4;" x="320.101679" xlink:href="#m1ef30ebe0e" y="468.206576"/>
     <use style="fill:#1f77b4;stroke:#1f77b4;" x="327.844958" xlink:href="#m1ef30ebe0e" y="469.896498"/>
     <use style="fill:#1f77b4;stroke:#1f77b4;" x="338.052007" xlink:href="#m1ef30ebe0e" y="471.893679"/>
     <use style="fill:#1f77b4;stroke:#1f77b4;" x="346.235244" xlink:href="#m1ef30ebe0e" y="472.277752"/>
     <use style="fill:#1f77b4;stroke:#1f77b4;" x="349.666924" xlink:href="#m1ef30ebe0e" y="473.583601"/>
     <use style="fill:#1f77b4;stroke:#1f77b4;" x="350.370859" xlink:href="#m1ef30ebe0e" y="474.274932"/>
     <use style="fill:#1f77b4;stroke:#1f77b4;" x="354.682457" xlink:href="#m1ef30ebe0e" y="475.043079"/>
     <use style="fill:#1f77b4;stroke:#1f77b4;" x="356.354301" xlink:href="#m1ef30ebe0e" y="475.350337"/>
     <use style="fill:#1f77b4;stroke:#1f77b4;" x="364.889506" xlink:href="#m1ef30ebe0e" y="477.040259"/>
     <use style="fill:#1f77b4;stroke:#1f77b4;" x="365.59344" xlink:href="#m1ef30ebe0e" y="477.193888"/>
     <use style="fill:#1f77b4;stroke:#1f77b4;" x="367.001309" xlink:href="#m1ef30ebe0e" y="477.424332"/>
     <use style="fill:#1f77b4;stroke:#1f77b4;" x="374.744587" xlink:href="#m1ef30ebe0e" y="479.114254"/>
     <use style="fill:#1f77b4;stroke:#1f77b4;" x="383.719751" xlink:href="#m1ef30ebe0e" y="479.191069"/>
     <use style="fill:#1f77b4;stroke:#1f77b4;" x="385.303603" xlink:href="#m1ef30ebe0e" y="479.805586"/>
     <use style="fill:#1f77b4;stroke:#1f77b4;" x="386.447497" xlink:href="#m1ef30ebe0e" y="480.343288"/>
     <use style="fill:#1f77b4;stroke:#1f77b4;" x="387.943357" xlink:href="#m1ef30ebe0e" y="480.573732"/>
     <use style="fill:#1f77b4;stroke:#1f77b4;" x="390.407128" xlink:href="#m1ef30ebe0e" y="481.572322"/>
     <use style="fill:#1f77b4;stroke:#1f77b4;" x="392.782906" xlink:href="#m1ef30ebe0e" y="481.649137"/>
     <use style="fill:#1f77b4;stroke:#1f77b4;" x="396.918521" xlink:href="#m1ef30ebe0e" y="482.340469"/>
     <use style="fill:#1f77b4;stroke:#1f77b4;" x="398.414381" xlink:href="#m1ef30ebe0e" y="482.724542"/>
     <use style="fill:#1f77b4;stroke:#1f77b4;" x="402.198029" xlink:href="#m1ef30ebe0e" y="483.569503"/>
     <use style="fill:#1f77b4;stroke:#1f77b4;" x="404.309832" xlink:href="#m1ef30ebe0e" y="483.723132"/>
     <use style="fill:#1f77b4;stroke:#1f77b4;" x="405.453725" xlink:href="#m1ef30ebe0e" y="484.030391"/>
     <use style="fill:#1f77b4;stroke:#1f77b4;" x="407.213561" xlink:href="#m1ef30ebe0e" y="484.414464"/>
     <use style="fill:#1f77b4;stroke:#1f77b4;" x="408.445447" xlink:href="#m1ef30ebe0e" y="484.491278"/>
     <use style="fill:#1f77b4;stroke:#1f77b4;" x="415.836758" xlink:href="#m1ef30ebe0e" y="485.028981"/>
     <use style="fill:#1f77b4;stroke:#1f77b4;" x="415.92475" xlink:href="#m1ef30ebe0e" y="485.336239"/>
     <use style="fill:#1f77b4;stroke:#1f77b4;" x="417.244627" xlink:href="#m1ef30ebe0e" y="485.566683"/>
     <use style="fill:#1f77b4;stroke:#1f77b4;" x="417.684586" xlink:href="#m1ef30ebe0e" y="486.258015"/>
     <use style="fill:#1f77b4;stroke:#1f77b4;" x="423.316061" xlink:href="#m1ef30ebe0e" y="487.256605"/>
     <use style="fill:#1f77b4;stroke:#1f77b4;" x="430.883356" xlink:href="#m1ef30ebe0e" y="487.410234"/>
     <use style="fill:#1f77b4;stroke:#1f77b4;" x="431.58729" xlink:href="#m1ef30ebe0e" y="489.023342"/>
     <use style="fill:#1f77b4;stroke:#1f77b4;" x="436.250855" xlink:href="#m1ef30ebe0e" y="489.253785"/>
     <use style="fill:#1f77b4;stroke:#1f77b4;" x="440.562454" xlink:href="#m1ef30ebe0e" y="489.484229"/>
     <use style="fill:#1f77b4;stroke:#1f77b4;" x="442.938232" xlink:href="#m1ef30ebe0e" y="490.32919"/>
     <use style="fill:#1f77b4;stroke:#1f77b4;" x="447.601798" xlink:href="#m1ef30ebe0e" y="490.559634"/>
     <use style="fill:#1f77b4;stroke:#1f77b4;" x="456.04901" xlink:href="#m1ef30ebe0e" y="490.636449"/>
     <use style="fill:#1f77b4;stroke:#1f77b4;" x="458.072822" xlink:href="#m1ef30ebe0e" y="490.866893"/>
     <use style="fill:#1f77b4;stroke:#1f77b4;" x="459.304707" xlink:href="#m1ef30ebe0e" y="491.942298"/>
     <use style="fill:#1f77b4;stroke:#1f77b4;" x="471.447575" xlink:href="#m1ef30ebe0e" y="492.019112"/>
     <use style="fill:#1f77b4;stroke:#1f77b4;" x="476.5511" xlink:href="#m1ef30ebe0e" y="492.249556"/>
     <use style="fill:#1f77b4;stroke:#1f77b4;" x="487.726059" xlink:href="#m1ef30ebe0e" y="492.403185"/>
     <use style="fill:#1f77b4;stroke:#1f77b4;" x="498.109091" xlink:href="#m1ef30ebe0e" y="492.48"/>
    </g>
   </g>
   <g id="matplotlib.axis_1">
    <g id="xtick_1">
     <g id="line2d_1">
      <defs>
       <path d="M 0 0 
L 0 3.5 
" id="m788e6de1ad" style="stroke:#000000;stroke-width:0.8;"/>
      </defs>
      <g>
       <use style="stroke:#000000;stroke-width:0.8;" x="145.965907" xlink:href="#m788e6de1ad" y="512.64"/>
      </g>
     </g>
     <g id="text_1">
      <!-- 1700 -->
      <g transform="translate(129.423407 529.517969)scale(0.13 -0.13)">
       <defs>
        <path d="M 12.40625 8.296875 
L 28.515625 8.296875 
L 28.515625 63.921875 
L 10.984375 60.40625 
L 10.984375 69.390625 
L 28.421875 72.90625 
L 38.28125 72.90625 
L 38.28125 8.296875 
L 54.390625 8.296875 
L 54.390625 0 
L 12.40625 0 
z
" id="DejaVuSans-49"/>
        <path d="M 8.203125 72.90625 
L 55.078125 72.90625 
L 55.078125 68.703125 
L 28.609375 0 
L 18.3125 0 
L 43.21875 64.59375 
L 8.203125 64.59375 
z
" id="DejaVuSans-55"/>
        <path d="M 31.78125 66.40625 
Q 24.171875 66.40625 20.328125 58.90625 
Q 16.5 51.421875 16.5 36.375 
Q 16.5 21.390625 20.328125 13.890625 
Q 24.171875 6.390625 31.78125 6.390625 
Q 39.453125 6.390625 43.28125 13.890625 
Q 47.125 21.390625 47.125 36.375 
Q 47.125 51.421875 43.28125 58.90625 
Q 39.453125 66.40625 31.78125 66.40625 
z
M 31.78125 74.21875 
Q 44.046875 74.21875 50.515625 64.515625 
Q 56.984375 54.828125 56.984375 36.375 
Q 56.984375 17.96875 50.515625 8.265625 
Q 44.046875 -1.421875 31.78125 -1.421875 
Q 19.53125 -1.421875 13.0625 8.265625 
Q 6.59375 17.96875 6.59375 36.375 
Q 6.59375 54.828125 13.0625 64.515625 
Q 19.53125 74.21875 31.78125 74.21875 
z
" id="DejaVuSans-48"/>
       </defs>
       <use xlink:href="#DejaVuSans-49"/>
       <use x="63.623047" xlink:href="#DejaVuSans-55"/>
       <use x="127.246094" xlink:href="#DejaVuSans-48"/>
       <use x="190.869141" xlink:href="#DejaVuSans-48"/>
      </g>
     </g>
    </g>
    <g id="xtick_2">
     <g id="line2d_2">
      <g>
       <use style="stroke:#000000;stroke-width:0.8;" x="233.957707" xlink:href="#m788e6de1ad" y="512.64"/>
      </g>
     </g>
     <g id="text_2">
      <!-- 1800 -->
      <g transform="translate(217.415207 529.517969)scale(0.13 -0.13)">
       <defs>
        <path d="M 31.78125 34.625 
Q 24.75 34.625 20.71875 30.859375 
Q 16.703125 27.09375 16.703125 20.515625 
Q 16.703125 13.921875 20.71875 10.15625 
Q 24.75 6.390625 31.78125 6.390625 
Q 38.8125 6.390625 42.859375 10.171875 
Q 46.921875 13.96875 46.921875 20.515625 
Q 46.921875 27.09375 42.890625 30.859375 
Q 38.875 34.625 31.78125 34.625 
z
M 21.921875 38.8125 
Q 15.578125 40.375 12.03125 44.71875 
Q 8.5 49.078125 8.5 55.328125 
Q 8.5 64.0625 14.71875 69.140625 
Q 20.953125 74.21875 31.78125 74.21875 
Q 42.671875 74.21875 48.875 69.140625 
Q 55.078125 64.0625 55.078125 55.328125 
Q 55.078125 49.078125 51.53125 44.71875 
Q 48 40.375 41.703125 38.8125 
Q 48.828125 37.15625 52.796875 32.3125 
Q 56.78125 27.484375 56.78125 20.515625 
Q 56.78125 9.90625 50.3125 4.234375 
Q 43.84375 -1.421875 31.78125 -1.421875 
Q 19.734375 -1.421875 13.25 4.234375 
Q 6.78125 9.90625 6.78125 20.515625 
Q 6.78125 27.484375 10.78125 32.3125 
Q 14.796875 37.15625 21.921875 38.8125 
z
M 18.3125 54.390625 
Q 18.3125 48.734375 21.84375 45.5625 
Q 25.390625 42.390625 31.78125 42.390625 
Q 38.140625 42.390625 41.71875 45.5625 
Q 45.3125 48.734375 45.3125 54.390625 
Q 45.3125 60.0625 41.71875 63.234375 
Q 38.140625 66.40625 31.78125 66.40625 
Q 25.390625 66.40625 21.84375 63.234375 
Q 18.3125 60.0625 18.3125 54.390625 
z
" id="DejaVuSans-56"/>
       </defs>
       <use xlink:href="#DejaVuSans-49"/>
       <use x="63.623047" xlink:href="#DejaVuSans-56"/>
       <use x="127.246094" xlink:href="#DejaVuSans-48"/>
       <use x="190.869141" xlink:href="#DejaVuSans-48"/>
      </g>
     </g>
    </g>
    <g id="xtick_3">
     <g id="line2d_3">
      <g>
       <use style="stroke:#000000;stroke-width:0.8;" x="321.949507" xlink:href="#m788e6de1ad" y="512.64"/>
      </g>
     </g>
     <g id="text_3">
      <!-- 1900 -->
      <g transform="translate(305.407007 529.517969)scale(0.13 -0.13)">
       <defs>
        <path d="M 10.984375 1.515625 
L 10.984375 10.5 
Q 14.703125 8.734375 18.5 7.8125 
Q 22.3125 6.890625 25.984375 6.890625 
Q 35.75 6.890625 40.890625 13.453125 
Q 46.046875 20.015625 46.78125 33.40625 
Q 43.953125 29.203125 39.59375 26.953125 
Q 35.25 24.703125 29.984375 24.703125 
Q 19.046875 24.703125 12.671875 31.3125 
Q 6.296875 37.9375 6.296875 49.421875 
Q 6.296875 60.640625 12.9375 67.421875 
Q 19.578125 74.21875 30.609375 74.21875 
Q 43.265625 74.21875 49.921875 64.515625 
Q 56.59375 54.828125 56.59375 36.375 
Q 56.59375 19.140625 48.40625 8.859375 
Q 40.234375 -1.421875 26.421875 -1.421875 
Q 22.703125 -1.421875 18.890625 -0.6875 
Q 15.09375 0.046875 10.984375 1.515625 
z
M 30.609375 32.421875 
Q 37.25 32.421875 41.125 36.953125 
Q 45.015625 41.5 45.015625 49.421875 
Q 45.015625 57.28125 41.125 61.84375 
Q 37.25 66.40625 30.609375 66.40625 
Q 23.96875 66.40625 20.09375 61.84375 
Q 16.21875 57.28125 16.21875 49.421875 
Q 16.21875 41.5 20.09375 36.953125 
Q 23.96875 32.421875 30.609375 32.421875 
z
" id="DejaVuSans-57"/>
       </defs>
       <use xlink:href="#DejaVuSans-49"/>
       <use x="63.623047" xlink:href="#DejaVuSans-57"/>
       <use x="127.246094" xlink:href="#DejaVuSans-48"/>
       <use x="190.869141" xlink:href="#DejaVuSans-48"/>
      </g>
     </g>
    </g>
    <g id="xtick_4">
     <g id="line2d_4">
      <g>
       <use style="stroke:#000000;stroke-width:0.8;" x="409.941307" xlink:href="#m788e6de1ad" y="512.64"/>
      </g>
     </g>
     <g id="text_4">
      <!-- 2000 -->
      <g transform="translate(393.398807 529.517969)scale(0.13 -0.13)">
       <defs>
        <path d="M 19.1875 8.296875 
L 53.609375 8.296875 
L 53.609375 0 
L 7.328125 0 
L 7.328125 8.296875 
Q 12.9375 14.109375 22.625 23.890625 
Q 32.328125 33.6875 34.8125 36.53125 
Q 39.546875 41.84375 41.421875 45.53125 
Q 43.3125 49.21875 43.3125 52.78125 
Q 43.3125 58.59375 39.234375 62.25 
Q 35.15625 65.921875 28.609375 65.921875 
Q 23.96875 65.921875 18.8125 64.3125 
Q 13.671875 62.703125 7.8125 59.421875 
L 7.8125 69.390625 
Q 13.765625 71.78125 18.9375 73 
Q 24.125 74.21875 28.421875 74.21875 
Q 39.75 74.21875 46.484375 68.546875 
Q 53.21875 62.890625 53.21875 53.421875 
Q 53.21875 48.921875 51.53125 44.890625 
Q 49.859375 40.875 45.40625 35.40625 
Q 44.1875 33.984375 37.640625 27.21875 
Q 31.109375 20.453125 19.1875 8.296875 
z
" id="DejaVuSans-50"/>
       </defs>
       <use xlink:href="#DejaVuSans-50"/>
       <use x="63.623047" xlink:href="#DejaVuSans-48"/>
       <use x="127.246094" xlink:href="#DejaVuSans-48"/>
       <use x="190.869141" xlink:href="#DejaVuSans-48"/>
      </g>
     </g>
    </g>
    <g id="xtick_5">
     <g id="line2d_5">
      <g>
       <use style="stroke:#000000;stroke-width:0.8;" x="497.933107" xlink:href="#m788e6de1ad" y="512.64"/>
      </g>
     </g>
     <g id="text_5">
      <!-- 2100 -->
      <g transform="translate(481.390607 529.517969)scale(0.13 -0.13)">
       <use xlink:href="#DejaVuSans-50"/>
       <use x="63.623047" xlink:href="#DejaVuSans-49"/>
       <use x="127.246094" xlink:href="#DejaVuSans-48"/>
       <use x="190.869141" xlink:href="#DejaVuSans-48"/>
      </g>
     </g>
    </g>
    <g id="text_6">
     <!-- Total traveled distance -->
     <g transform="translate(210.004687 547.619219)scale(0.15 -0.15)">
      <defs>
       <path d="M -0.296875 72.90625 
L 61.375 72.90625 
L 61.375 64.59375 
L 35.5 64.59375 
L 35.5 0 
L 25.59375 0 
L 25.59375 64.59375 
L -0.296875 64.59375 
z
" id="DejaVuSans-84"/>
       <path d="M 30.609375 48.390625 
Q 23.390625 48.390625 19.1875 42.75 
Q 14.984375 37.109375 14.984375 27.296875 
Q 14.984375 17.484375 19.15625 11.84375 
Q 23.34375 6.203125 30.609375 6.203125 
Q 37.796875 6.203125 41.984375 11.859375 
Q 46.1875 17.53125 46.1875 27.296875 
Q 46.1875 37.015625 41.984375 42.703125 
Q 37.796875 48.390625 30.609375 48.390625 
z
M 30.609375 56 
Q 42.328125 56 49.015625 48.375 
Q 55.71875 40.765625 55.71875 27.296875 
Q 55.71875 13.875 49.015625 6.21875 
Q 42.328125 -1.421875 30.609375 -1.421875 
Q 18.84375 -1.421875 12.171875 6.21875 
Q 5.515625 13.875 5.515625 27.296875 
Q 5.515625 40.765625 12.171875 48.375 
Q 18.84375 56 30.609375 56 
z
" id="DejaVuSans-111"/>
       <path d="M 18.3125 70.21875 
L 18.3125 54.6875 
L 36.8125 54.6875 
L 36.8125 47.703125 
L 18.3125 47.703125 
L 18.3125 18.015625 
Q 18.3125 11.328125 20.140625 9.421875 
Q 21.96875 7.515625 27.59375 7.515625 
L 36.8125 7.515625 
L 36.8125 0 
L 27.59375 0 
Q 17.1875 0 13.234375 3.875 
Q 9.28125 7.765625 9.28125 18.015625 
L 9.28125 47.703125 
L 2.6875 47.703125 
L 2.6875 54.6875 
L 9.28125 54.6875 
L 9.28125 70.21875 
z
" id="DejaVuSans-116"/>
       <path d="M 34.28125 27.484375 
Q 23.390625 27.484375 19.1875 25 
Q 14.984375 22.515625 14.984375 16.5 
Q 14.984375 11.71875 18.140625 8.90625 
Q 21.296875 6.109375 26.703125 6.109375 
Q 34.1875 6.109375 38.703125 11.40625 
Q 43.21875 16.703125 43.21875 25.484375 
L 43.21875 27.484375 
z
M 52.203125 31.203125 
L 52.203125 0 
L 43.21875 0 
L 43.21875 8.296875 
Q 40.140625 3.328125 35.546875 0.953125 
Q 30.953125 -1.421875 24.3125 -1.421875 
Q 15.921875 -1.421875 10.953125 3.296875 
Q 6 8.015625 6 15.921875 
Q 6 25.140625 12.171875 29.828125 
Q 18.359375 34.515625 30.609375 34.515625 
L 43.21875 34.515625 
L 43.21875 35.40625 
Q 43.21875 41.609375 39.140625 45 
Q 35.0625 48.390625 27.6875 48.390625 
Q 23 48.390625 18.546875 47.265625 
Q 14.109375 46.140625 10.015625 43.890625 
L 10.015625 52.203125 
Q 14.9375 54.109375 19.578125 55.046875 
Q 24.21875 56 28.609375 56 
Q 40.484375 56 46.34375 49.84375 
Q 52.203125 43.703125 52.203125 31.203125 
z
" id="DejaVuSans-97"/>
       <path d="M 9.421875 75.984375 
L 18.40625 75.984375 
L 18.40625 0 
L 9.421875 0 
z
" id="DejaVuSans-108"/>
       <path id="DejaVuSans-32"/>
       <path d="M 41.109375 46.296875 
Q 39.59375 47.171875 37.8125 47.578125 
Q 36.03125 48 33.890625 48 
Q 26.265625 48 22.1875 43.046875 
Q 18.109375 38.09375 18.109375 28.8125 
L 18.109375 0 
L 9.078125 0 
L 9.078125 54.6875 
L 18.109375 54.6875 
L 18.109375 46.1875 
Q 20.953125 51.171875 25.484375 53.578125 
Q 30.03125 56 36.53125 56 
Q 37.453125 56 38.578125 55.875 
Q 39.703125 55.765625 41.0625 55.515625 
z
" id="DejaVuSans-114"/>
       <path d="M 2.984375 54.6875 
L 12.5 54.6875 
L 29.59375 8.796875 
L 46.6875 54.6875 
L 56.203125 54.6875 
L 35.6875 0 
L 23.484375 0 
z
" id="DejaVuSans-118"/>
       <path d="M 56.203125 29.59375 
L 56.203125 25.203125 
L 14.890625 25.203125 
Q 15.484375 15.921875 20.484375 11.0625 
Q 25.484375 6.203125 34.421875 6.203125 
Q 39.59375 6.203125 44.453125 7.46875 
Q 49.3125 8.734375 54.109375 11.28125 
L 54.109375 2.78125 
Q 49.265625 0.734375 44.1875 -0.34375 
Q 39.109375 -1.421875 33.890625 -1.421875 
Q 20.796875 -1.421875 13.15625 6.1875 
Q 5.515625 13.8125 5.515625 26.8125 
Q 5.515625 40.234375 12.765625 48.109375 
Q 20.015625 56 32.328125 56 
Q 43.359375 56 49.78125 48.890625 
Q 56.203125 41.796875 56.203125 29.59375 
z
M 47.21875 32.234375 
Q 47.125 39.59375 43.09375 43.984375 
Q 39.0625 48.390625 32.421875 48.390625 
Q 24.90625 48.390625 20.390625 44.140625 
Q 15.875 39.890625 15.1875 32.171875 
z
" id="DejaVuSans-101"/>
       <path d="M 45.40625 46.390625 
L 45.40625 75.984375 
L 54.390625 75.984375 
L 54.390625 0 
L 45.40625 0 
L 45.40625 8.203125 
Q 42.578125 3.328125 38.25 0.953125 
Q 33.9375 -1.421875 27.875 -1.421875 
Q 17.96875 -1.421875 11.734375 6.484375 
Q 5.515625 14.40625 5.515625 27.296875 
Q 5.515625 40.1875 11.734375 48.09375 
Q 17.96875 56 27.875 56 
Q 33.9375 56 38.25 53.625 
Q 42.578125 51.265625 45.40625 46.390625 
z
M 14.796875 27.296875 
Q 14.796875 17.390625 18.875 11.75 
Q 22.953125 6.109375 30.078125 6.109375 
Q 37.203125 6.109375 41.296875 11.75 
Q 45.40625 17.390625 45.40625 27.296875 
Q 45.40625 37.203125 41.296875 42.84375 
Q 37.203125 48.484375 30.078125 48.484375 
Q 22.953125 48.484375 18.875 42.84375 
Q 14.796875 37.203125 14.796875 27.296875 
z
" id="DejaVuSans-100"/>
       <path d="M 9.421875 54.6875 
L 18.40625 54.6875 
L 18.40625 0 
L 9.421875 0 
z
M 9.421875 75.984375 
L 18.40625 75.984375 
L 18.40625 64.59375 
L 9.421875 64.59375 
z
" id="DejaVuSans-105"/>
       <path d="M 44.28125 53.078125 
L 44.28125 44.578125 
Q 40.484375 46.53125 36.375 47.5 
Q 32.28125 48.484375 27.875 48.484375 
Q 21.1875 48.484375 17.84375 46.4375 
Q 14.5 44.390625 14.5 40.28125 
Q 14.5 37.15625 16.890625 35.375 
Q 19.28125 33.59375 26.515625 31.984375 
L 29.59375 31.296875 
Q 39.15625 29.25 43.1875 25.515625 
Q 47.21875 21.78125 47.21875 15.09375 
Q 47.21875 7.46875 41.1875 3.015625 
Q 35.15625 -1.421875 24.609375 -1.421875 
Q 20.21875 -1.421875 15.453125 -0.5625 
Q 10.6875 0.296875 5.421875 2 
L 5.421875 11.28125 
Q 10.40625 8.6875 15.234375 7.390625 
Q 20.0625 6.109375 24.8125 6.109375 
Q 31.15625 6.109375 34.5625 8.28125 
Q 37.984375 10.453125 37.984375 14.40625 
Q 37.984375 18.0625 35.515625 20.015625 
Q 33.0625 21.96875 24.703125 23.78125 
L 21.578125 24.515625 
Q 13.234375 26.265625 9.515625 29.90625 
Q 5.8125 33.546875 5.8125 39.890625 
Q 5.8125 47.609375 11.28125 51.796875 
Q 16.75 56 26.8125 56 
Q 31.78125 56 36.171875 55.265625 
Q 40.578125 54.546875 44.28125 53.078125 
z
" id="DejaVuSans-115"/>
       <path d="M 54.890625 33.015625 
L 54.890625 0 
L 45.90625 0 
L 45.90625 32.71875 
Q 45.90625 40.484375 42.875 44.328125 
Q 39.84375 48.1875 33.796875 48.1875 
Q 26.515625 48.1875 22.3125 43.546875 
Q 18.109375 38.921875 18.109375 30.90625 
L 18.109375 0 
L 9.078125 0 
L 9.078125 54.6875 
L 18.109375 54.6875 
L 18.109375 46.1875 
Q 21.34375 51.125 25.703125 53.5625 
Q 30.078125 56 35.796875 56 
Q 45.21875 56 50.046875 50.171875 
Q 54.890625 44.34375 54.890625 33.015625 
z
" id="DejaVuSans-110"/>
       <path d="M 48.78125 52.59375 
L 48.78125 44.1875 
Q 44.96875 46.296875 41.140625 47.34375 
Q 37.3125 48.390625 33.40625 48.390625 
Q 24.65625 48.390625 19.8125 42.84375 
Q 14.984375 37.3125 14.984375 27.296875 
Q 14.984375 17.28125 19.8125 11.734375 
Q 24.65625 6.203125 33.40625 6.203125 
Q 37.3125 6.203125 41.140625 7.25 
Q 44.96875 8.296875 48.78125 10.40625 
L 48.78125 2.09375 
Q 45.015625 0.34375 40.984375 -0.53125 
Q 36.96875 -1.421875 32.421875 -1.421875 
Q 20.0625 -1.421875 12.78125 6.34375 
Q 5.515625 14.109375 5.515625 27.296875 
Q 5.515625 40.671875 12.859375 48.328125 
Q 20.21875 56 33.015625 56 
Q 37.15625 56 41.109375 55.140625 
Q 45.0625 54.296875 48.78125 52.59375 
z
" id="DejaVuSans-99"/>
      </defs>
      <use xlink:href="#DejaVuSans-84"/>
      <use x="44.083984" xlink:href="#DejaVuSans-111"/>
      <use x="105.265625" xlink:href="#DejaVuSans-116"/>
      <use x="144.474609" xlink:href="#DejaVuSans-97"/>
      <use x="205.753906" xlink:href="#DejaVuSans-108"/>
      <use x="233.537109" xlink:href="#DejaVuSans-32"/>
      <use x="265.324219" xlink:href="#DejaVuSans-116"/>
      <use x="304.533203" xlink:href="#DejaVuSans-114"/>
      <use x="345.646484" xlink:href="#DejaVuSans-97"/>
      <use x="406.925781" xlink:href="#DejaVuSans-118"/>
      <use x="466.105469" xlink:href="#DejaVuSans-101"/>
      <use x="527.628906" xlink:href="#DejaVuSans-108"/>
      <use x="555.412109" xlink:href="#DejaVuSans-101"/>
      <use x="616.935547" xlink:href="#DejaVuSans-100"/>
      <use x="680.412109" xlink:href="#DejaVuSans-32"/>
      <use x="712.199219" xlink:href="#DejaVuSans-100"/>
      <use x="775.675781" xlink:href="#DejaVuSans-105"/>
      <use x="803.458984" xlink:href="#DejaVuSans-115"/>
      <use x="855.558594" xlink:href="#DejaVuSans-116"/>
      <use x="894.767578" xlink:href="#DejaVuSans-97"/>
      <use x="956.046875" xlink:href="#DejaVuSans-110"/>
      <use x="1019.425781" xlink:href="#DejaVuSans-99"/>
      <use x="1074.40625" xlink:href="#DejaVuSans-101"/>
     </g>
    </g>
   </g>
   <g id="matplotlib.axis_2">
    <g id="ytick_1">
     <g id="line2d_6">
      <defs>
       <path d="M 0 0 
L -3.5 0 
" id="m3ea42d4cc9" style="stroke:#000000;stroke-width:0.8;"/>
      </defs>
      <g>
       <use style="stroke:#000000;stroke-width:0.8;" x="72" xlink:href="#m3ea42d4cc9" y="492.48"/>
      </g>
     </g>
     <g id="text_7">
      <!-- 0 -->
      <g transform="translate(56.72875 497.418984)scale(0.13 -0.13)">
       <use xlink:href="#DejaVuSans-48"/>
      </g>
     </g>
    </g>
    <g id="ytick_2">
     <g id="line2d_7">
      <g>
       <use style="stroke:#000000;stroke-width:0.8;" x="72" xlink:href="#m3ea42d4cc9" y="415.665369"/>
      </g>
     </g>
     <g id="text_8">
      <!-- 100 -->
      <g transform="translate(40.18625 420.604353)scale(0.13 -0.13)">
       <use xlink:href="#DejaVuSans-49"/>
       <use x="63.623047" xlink:href="#DejaVuSans-48"/>
       <use x="127.246094" xlink:href="#DejaVuSans-48"/>
      </g>
     </g>
    </g>
    <g id="ytick_3">
     <g id="line2d_8">
      <g>
       <use style="stroke:#000000;stroke-width:0.8;" x="72" xlink:href="#m3ea42d4cc9" y="338.850737"/>
      </g>
     </g>
     <g id="text_9">
      <!-- 200 -->
      <g transform="translate(40.18625 343.789722)scale(0.13 -0.13)">
       <use xlink:href="#DejaVuSans-50"/>
       <use x="63.623047" xlink:href="#DejaVuSans-48"/>
       <use x="127.246094" xlink:href="#DejaVuSans-48"/>
      </g>
     </g>
    </g>
    <g id="ytick_4">
     <g id="line2d_9">
      <g>
       <use style="stroke:#000000;stroke-width:0.8;" x="72" xlink:href="#m3ea42d4cc9" y="262.036106"/>
      </g>
     </g>
     <g id="text_10">
      <!-- 300 -->
      <g transform="translate(40.18625 266.97509)scale(0.13 -0.13)">
       <defs>
        <path d="M 40.578125 39.3125 
Q 47.65625 37.796875 51.625 33 
Q 55.609375 28.21875 55.609375 21.1875 
Q 55.609375 10.40625 48.1875 4.484375 
Q 40.765625 -1.421875 27.09375 -1.421875 
Q 22.515625 -1.421875 17.65625 -0.515625 
Q 12.796875 0.390625 7.625 2.203125 
L 7.625 11.71875 
Q 11.71875 9.328125 16.59375 8.109375 
Q 21.484375 6.890625 26.8125 6.890625 
Q 36.078125 6.890625 40.9375 10.546875 
Q 45.796875 14.203125 45.796875 21.1875 
Q 45.796875 27.640625 41.28125 31.265625 
Q 36.765625 34.90625 28.71875 34.90625 
L 20.21875 34.90625 
L 20.21875 43.015625 
L 29.109375 43.015625 
Q 36.375 43.015625 40.234375 45.921875 
Q 44.09375 48.828125 44.09375 54.296875 
Q 44.09375 59.90625 40.109375 62.90625 
Q 36.140625 65.921875 28.71875 65.921875 
Q 24.65625 65.921875 20.015625 65.03125 
Q 15.375 64.15625 9.8125 62.3125 
L 9.8125 71.09375 
Q 15.4375 72.65625 20.34375 73.4375 
Q 25.25 74.21875 29.59375 74.21875 
Q 40.828125 74.21875 47.359375 69.109375 
Q 53.90625 64.015625 53.90625 55.328125 
Q 53.90625 49.265625 50.4375 45.09375 
Q 46.96875 40.921875 40.578125 39.3125 
z
" id="DejaVuSans-51"/>
       </defs>
       <use xlink:href="#DejaVuSans-51"/>
       <use x="63.623047" xlink:href="#DejaVuSans-48"/>
       <use x="127.246094" xlink:href="#DejaVuSans-48"/>
      </g>
     </g>
    </g>
    <g id="ytick_5">
     <g id="line2d_10">
      <g>
       <use style="stroke:#000000;stroke-width:0.8;" x="72" xlink:href="#m3ea42d4cc9" y="185.221475"/>
      </g>
     </g>
     <g id="text_11">
      <!-- 400 -->
      <g transform="translate(40.18625 190.160459)scale(0.13 -0.13)">
       <defs>
        <path d="M 37.796875 64.3125 
L 12.890625 25.390625 
L 37.796875 25.390625 
z
M 35.203125 72.90625 
L 47.609375 72.90625 
L 47.609375 25.390625 
L 58.015625 25.390625 
L 58.015625 17.1875 
L 47.609375 17.1875 
L 47.609375 0 
L 37.796875 0 
L 37.796875 17.1875 
L 4.890625 17.1875 
L 4.890625 26.703125 
z
" id="DejaVuSans-52"/>
       </defs>
       <use xlink:href="#DejaVuSans-52"/>
       <use x="63.623047" xlink:href="#DejaVuSans-48"/>
       <use x="127.246094" xlink:href="#DejaVuSans-48"/>
      </g>
     </g>
    </g>
    <g id="ytick_6">
     <g id="line2d_11">
      <g>
       <use style="stroke:#000000;stroke-width:0.8;" x="72" xlink:href="#m3ea42d4cc9" y="108.406843"/>
      </g>
     </g>
     <g id="text_12">
      <!-- 500 -->
      <g transform="translate(40.18625 113.345828)scale(0.13 -0.13)">
       <defs>
        <path d="M 10.796875 72.90625 
L 49.515625 72.90625 
L 49.515625 64.59375 
L 19.828125 64.59375 
L 19.828125 46.734375 
Q 21.96875 47.46875 24.109375 47.828125 
Q 26.265625 48.1875 28.421875 48.1875 
Q 40.625 48.1875 47.75 41.5 
Q 54.890625 34.8125 54.890625 23.390625 
Q 54.890625 11.625 47.5625 5.09375 
Q 40.234375 -1.421875 26.90625 -1.421875 
Q 22.3125 -1.421875 17.546875 -0.640625 
Q 12.796875 0.140625 7.71875 1.703125 
L 7.71875 11.625 
Q 12.109375 9.234375 16.796875 8.0625 
Q 21.484375 6.890625 26.703125 6.890625 
Q 35.15625 6.890625 40.078125 11.328125 
Q 45.015625 15.765625 45.015625 23.390625 
Q 45.015625 31 40.078125 35.4375 
Q 35.15625 39.890625 26.703125 39.890625 
Q 22.75 39.890625 18.8125 39.015625 
Q 14.890625 38.140625 10.796875 36.28125 
z
" id="DejaVuSans-53"/>
       </defs>
       <use xlink:href="#DejaVuSans-53"/>
       <use x="63.623047" xlink:href="#DejaVuSans-48"/>
       <use x="127.246094" xlink:href="#DejaVuSans-48"/>
      </g>
     </g>
    </g>
    <g id="text_13">
     <!-- Total waiting time -->
     <g transform="translate(33.066719 357.457734)rotate(-90)scale(0.15 -0.15)">
      <defs>
       <path d="M 4.203125 54.6875 
L 13.1875 54.6875 
L 24.421875 12.015625 
L 35.59375 54.6875 
L 46.1875 54.6875 
L 57.421875 12.015625 
L 68.609375 54.6875 
L 77.59375 54.6875 
L 63.28125 0 
L 52.6875 0 
L 40.921875 44.828125 
L 29.109375 0 
L 18.5 0 
z
" id="DejaVuSans-119"/>
       <path d="M 45.40625 27.984375 
Q 45.40625 37.75 41.375 43.109375 
Q 37.359375 48.484375 30.078125 48.484375 
Q 22.859375 48.484375 18.828125 43.109375 
Q 14.796875 37.75 14.796875 27.984375 
Q 14.796875 18.265625 18.828125 12.890625 
Q 22.859375 7.515625 30.078125 7.515625 
Q 37.359375 7.515625 41.375 12.890625 
Q 45.40625 18.265625 45.40625 27.984375 
z
M 54.390625 6.78125 
Q 54.390625 -7.171875 48.1875 -13.984375 
Q 42 -20.796875 29.203125 -20.796875 
Q 24.46875 -20.796875 20.265625 -20.09375 
Q 16.0625 -19.390625 12.109375 -17.921875 
L 12.109375 -9.1875 
Q 16.0625 -11.328125 19.921875 -12.34375 
Q 23.78125 -13.375 27.78125 -13.375 
Q 36.625 -13.375 41.015625 -8.765625 
Q 45.40625 -4.15625 45.40625 5.171875 
L 45.40625 9.625 
Q 42.625 4.78125 38.28125 2.390625 
Q 33.9375 0 27.875 0 
Q 17.828125 0 11.671875 7.65625 
Q 5.515625 15.328125 5.515625 27.984375 
Q 5.515625 40.671875 11.671875 48.328125 
Q 17.828125 56 27.875 56 
Q 33.9375 56 38.28125 53.609375 
Q 42.625 51.21875 45.40625 46.390625 
L 45.40625 54.6875 
L 54.390625 54.6875 
z
" id="DejaVuSans-103"/>
       <path d="M 52 44.1875 
Q 55.375 50.25 60.0625 53.125 
Q 64.75 56 71.09375 56 
Q 79.640625 56 84.28125 50.015625 
Q 88.921875 44.046875 88.921875 33.015625 
L 88.921875 0 
L 79.890625 0 
L 79.890625 32.71875 
Q 79.890625 40.578125 77.09375 44.375 
Q 74.3125 48.1875 68.609375 48.1875 
Q 61.625 48.1875 57.5625 43.546875 
Q 53.515625 38.921875 53.515625 30.90625 
L 53.515625 0 
L 44.484375 0 
L 44.484375 32.71875 
Q 44.484375 40.625 41.703125 44.40625 
Q 38.921875 48.1875 33.109375 48.1875 
Q 26.21875 48.1875 22.15625 43.53125 
Q 18.109375 38.875 18.109375 30.90625 
L 18.109375 0 
L 9.078125 0 
L 9.078125 54.6875 
L 18.109375 54.6875 
L 18.109375 46.1875 
Q 21.1875 51.21875 25.484375 53.609375 
Q 29.78125 56 35.6875 56 
Q 41.65625 56 45.828125 52.96875 
Q 50 49.953125 52 44.1875 
z
" id="DejaVuSans-109"/>
      </defs>
      <use xlink:href="#DejaVuSans-84"/>
      <use x="44.083984" xlink:href="#DejaVuSans-111"/>
      <use x="105.265625" xlink:href="#DejaVuSans-116"/>
      <use x="144.474609" xlink:href="#DejaVuSans-97"/>
      <use x="205.753906" xlink:href="#DejaVuSans-108"/>
      <use x="233.537109" xlink:href="#DejaVuSans-32"/>
      <use x="265.324219" xlink:href="#DejaVuSans-119"/>
      <use x="347.111328" xlink:href="#DejaVuSans-97"/>
      <use x="408.390625" xlink:href="#DejaVuSans-105"/>
      <use x="436.173828" xlink:href="#DejaVuSans-116"/>
      <use x="475.382812" xlink:href="#DejaVuSans-105"/>
      <use x="503.166016" xlink:href="#DejaVuSans-110"/>
      <use x="566.544922" xlink:href="#DejaVuSans-103"/>
      <use x="630.021484" xlink:href="#DejaVuSans-32"/>
      <use x="661.808594" xlink:href="#DejaVuSans-116"/>
      <use x="701.017578" xlink:href="#DejaVuSans-105"/>
      <use x="728.800781" xlink:href="#DejaVuSans-109"/>
      <use x="826.212891" xlink:href="#DejaVuSans-101"/>
     </g>
    </g>
   </g>
   <g id="patch_3">
    <path d="M 72 512.64 
L 72 69.12 
" style="fill:none;stroke:#000000;stroke-linecap:square;stroke-linejoin:miter;stroke-width:0.8;"/>
   </g>
   <g id="patch_4">
    <path d="M 518.4 512.64 
L 518.4 69.12 
" style="fill:none;stroke:#000000;stroke-linecap:square;stroke-linejoin:miter;stroke-width:0.8;"/>
   </g>
   <g id="patch_5">
    <path d="M 72 512.64 
L 518.4 512.64 
" style="fill:none;stroke:#000000;stroke-linecap:square;stroke-linejoin:miter;stroke-width:0.8;"/>
   </g>
   <g id="patch_6">
    <path d="M 72 69.12 
L 518.4 69.12 
" style="fill:none;stroke:#000000;stroke-linecap:square;stroke-linejoin:miter;stroke-width:0.8;"/>
   </g>
   <g id="text_14">
    <!-- Pareto-front of R101-100 -->
    <g transform="translate(202.132031 63.12)scale(0.15 -0.15)">
     <defs>
      <path d="M 19.671875 64.796875 
L 19.671875 37.40625 
L 32.078125 37.40625 
Q 38.96875 37.40625 42.71875 40.96875 
Q 46.484375 44.53125 46.484375 51.125 
Q 46.484375 57.671875 42.71875 61.234375 
Q 38.96875 64.796875 32.078125 64.796875 
z
M 9.8125 72.90625 
L 32.078125 72.90625 
Q 44.34375 72.90625 50.609375 67.359375 
Q 56.890625 61.8125 56.890625 51.125 
Q 56.890625 40.328125 50.609375 34.8125 
Q 44.34375 29.296875 32.078125 29.296875 
L 19.671875 29.296875 
L 19.671875 0 
L 9.8125 0 
z
" id="DejaVuSans-80"/>
      <path d="M 4.890625 31.390625 
L 31.203125 31.390625 
L 31.203125 23.390625 
L 4.890625 23.390625 
z
" id="DejaVuSans-45"/>
      <path d="M 37.109375 75.984375 
L 37.109375 68.5 
L 28.515625 68.5 
Q 23.6875 68.5 21.796875 66.546875 
Q 19.921875 64.59375 19.921875 59.515625 
L 19.921875 54.6875 
L 34.71875 54.6875 
L 34.71875 47.703125 
L 19.921875 47.703125 
L 19.921875 0 
L 10.890625 0 
L 10.890625 47.703125 
L 2.296875 47.703125 
L 2.296875 54.6875 
L 10.890625 54.6875 
L 10.890625 58.5 
Q 10.890625 67.625 15.140625 71.796875 
Q 19.390625 75.984375 28.609375 75.984375 
z
" id="DejaVuSans-102"/>
      <path d="M 44.390625 34.1875 
Q 47.5625 33.109375 50.5625 29.59375 
Q 53.5625 26.078125 56.59375 19.921875 
L 66.609375 0 
L 56 0 
L 46.6875 18.703125 
Q 43.0625 26.03125 39.671875 28.421875 
Q 36.28125 30.8125 30.421875 30.8125 
L 19.671875 30.8125 
L 19.671875 0 
L 9.8125 0 
L 9.8125 72.90625 
L 32.078125 72.90625 
Q 44.578125 72.90625 50.734375 67.671875 
Q 56.890625 62.453125 56.890625 51.90625 
Q 56.890625 45.015625 53.6875 40.46875 
Q 50.484375 35.9375 44.390625 34.1875 
z
M 19.671875 64.796875 
L 19.671875 38.921875 
L 32.078125 38.921875 
Q 39.203125 38.921875 42.84375 42.21875 
Q 46.484375 45.515625 46.484375 51.90625 
Q 46.484375 58.296875 42.84375 61.546875 
Q 39.203125 64.796875 32.078125 64.796875 
z
" id="DejaVuSans-82"/>
     </defs>
     <use xlink:href="#DejaVuSans-80"/>
     <use x="55.802734" xlink:href="#DejaVuSans-97"/>
     <use x="117.082031" xlink:href="#DejaVuSans-114"/>
     <use x="155.945312" xlink:href="#DejaVuSans-101"/>
     <use x="217.46875" xlink:href="#DejaVuSans-116"/>
     <use x="256.677734" xlink:href="#DejaVuSans-111"/>
     <use x="319.734375" xlink:href="#DejaVuSans-45"/>
     <use x="355.818359" xlink:href="#DejaVuSans-102"/>
     <use x="391.023438" xlink:href="#DejaVuSans-114"/>
     <use x="429.886719" xlink:href="#DejaVuSans-111"/>
     <use x="491.068359" xlink:href="#DejaVuSans-110"/>
     <use x="554.447266" xlink:href="#DejaVuSans-116"/>
     <use x="593.65625" xlink:href="#DejaVuSans-32"/>
     <use x="625.443359" xlink:href="#DejaVuSans-111"/>
     <use x="686.625" xlink:href="#DejaVuSans-102"/>
     <use x="721.830078" xlink:href="#DejaVuSans-32"/>
     <use x="753.617188" xlink:href="#DejaVuSans-82"/>
     <use x="823.099609" xlink:href="#DejaVuSans-49"/>
     <use x="886.722656" xlink:href="#DejaVuSans-48"/>
     <use x="950.345703" xlink:href="#DejaVuSans-49"/>
     <use x="1013.96875" xlink:href="#DejaVuSans-45"/>
     <use x="1050.052734" xlink:href="#DejaVuSans-49"/>
     <use x="1113.675781" xlink:href="#DejaVuSans-48"/>
     <use x="1177.298828" xlink:href="#DejaVuSans-48"/>
    </g>
   </g>
  </g>
 </g>
 <defs>
  <clipPath id="p0919cb159c">
   <rect height="443.52" width="446.4" x="72" y="69.12"/>
  </clipPath>
 </defs>
</svg>
