<?xml version="1.0" encoding="utf-8" standalone="no"?>
<!DOCTYPE svg PUBLIC "-//W3C//DTD SVG 1.1//EN"
  "http://www.w3.org/Graphics/SVG/1.1/DTD/svg11.dtd">
<!-- Created with matplotlib (https://matplotlib.org/) -->
<svg height="576pt" version="1.1" viewBox="0 0 576 576" width="576pt" xmlns="http://www.w3.org/2000/svg" xmlns:xlink="http://www.w3.org/1999/xlink">
 <metadata>
  <rdf:RDF xmlns:cc="http://creativecommons.org/ns#" xmlns:dc="http://purl.org/dc/elements/1.1/" xmlns:rdf="http://www.w3.org/1999/02/22-rdf-syntax-ns#">
   <cc:Work>
    <dc:type rdf:resource="http://purl.org/dc/dcmitype/StillImage"/>
    <dc:date>2022-03-29T10:55:17.609430</dc:date>
    <dc:format>image/svg+xml</dc:format>
    <dc:creator>
     <cc:Agent>
      <dc:title>Matplotlib v3.3.4, https://matplotlib.org/</dc:title>
     </cc:Agent>
    </dc:creator>
   </cc:Work>
  </rdf:RDF>
 </metadata>
 <defs>
  <style type="text/css">*{stroke-linecap:butt;stroke-linejoin:round;}</style>
 </defs>
 <g id="figure_1">
  <g id="patch_1">
   <path d="M 0 576 
L 576 576 
L 576 0 
L 0 0 
z
" style="fill:#ffffff;"/>
  </g>
  <g id="axes_1">
   <g id="patch_2">
    <path d="M 72 512.64 
L 518.4 512.64 
L 518.4 69.12 
L 72 69.12 
z
" style="fill:#ffffff;"/>
   </g>
   <g id="PathCollection_1">
    <defs>
     <path d="M 0 3 
C 0.795609 3 1.55874 2.683901 2.12132 2.12132 
C 2.683901 1.55874 3 0.795609 3 0 
C 3 -0.795609 2.683901 -1.55874 2.12132 -2.12132 
C 1.55874 -2.683901 0.795609 -3 0 -3 
C -0.795609 -3 -1.55874 -2.683901 -2.12132 -2.12132 
C -2.683901 -1.55874 -3 -0.795609 -3 0 
C -3 0.795609 -2.683901 1.55874 -2.12132 2.12132 
C -1.55874 2.683901 -0.795609 3 0 3 
z
" id="mad2c3a6e0c" style="stroke:#1f77b4;"/>
    </defs>
    <g clip-path="url(#pbe9c22f5d1)">
     <use style="fill:#1f77b4;stroke:#1f77b4;" x="92.290909" xlink:href="#mad2c3a6e0c" y="89.28"/>
     <use style="fill:#1f77b4;stroke:#1f77b4;" x="92.598114" xlink:href="#mad2c3a6e0c" y="97.526965"/>
     <use style="fill:#1f77b4;stroke:#1f77b4;" x="95.977373" xlink:href="#mad2c3a6e0c" y="102.799616"/>
     <use style="fill:#1f77b4;stroke:#1f77b4;" x="99.663836" xlink:href="#mad2c3a6e0c" y="108.072266"/>
     <use style="fill:#1f77b4;stroke:#1f77b4;" x="104.271915" xlink:href="#mad2c3a6e0c" y="113.840635"/>
     <use style="fill:#1f77b4;stroke:#1f77b4;" x="109.494405" xlink:href="#mad2c3a6e0c" y="121.772143"/>
     <use style="fill:#1f77b4;stroke:#1f77b4;" x="109.80161" xlink:href="#mad2c3a6e0c" y="126.368812"/>
     <use style="fill:#1f77b4;stroke:#1f77b4;" x="113.488074" xlink:href="#mad2c3a6e0c" y="131.641462"/>
     <use style="fill:#1f77b4;stroke:#1f77b4;" x="117.788948" xlink:href="#mad2c3a6e0c" y="132.813162"/>
     <use style="fill:#1f77b4;stroke:#1f77b4;" x="118.096153" xlink:href="#mad2c3a6e0c" y="137.409831"/>
     <use style="fill:#1f77b4;stroke:#1f77b4;" x="123.011438" xlink:href="#mad2c3a6e0c" y="138.130877"/>
     <use style="fill:#1f77b4;stroke:#1f77b4;" x="140.214934" xlink:href="#mad2c3a6e0c" y="150.073204"/>
     <use style="fill:#1f77b4;stroke:#1f77b4;" x="157.725635" xlink:href="#mad2c3a6e0c" y="151.740624"/>
     <use style="fill:#1f77b4;stroke:#1f77b4;" x="159.261661" xlink:href="#mad2c3a6e0c" y="156.337293"/>
     <use style="fill:#1f77b4;stroke:#1f77b4;" x="162.026509" xlink:href="#mad2c3a6e0c" y="165.125043"/>
     <use style="fill:#1f77b4;stroke:#1f77b4;" x="192.132627" xlink:href="#mad2c3a6e0c" y="166.071416"/>
     <use style="fill:#1f77b4;stroke:#1f77b4;" x="199.198348" xlink:href="#mad2c3a6e0c" y="285.494686"/>
     <use style="fill:#1f77b4;stroke:#1f77b4;" x="199.505554" xlink:href="#mad2c3a6e0c" y="293.741652"/>
     <use style="fill:#1f77b4;stroke:#1f77b4;" x="203.192017" xlink:href="#mad2c3a6e0c" y="299.014302"/>
     <use style="fill:#1f77b4;stroke:#1f77b4;" x="207.800096" xlink:href="#mad2c3a6e0c" y="304.782671"/>
     <use style="fill:#1f77b4;stroke:#1f77b4;" x="215.480228" xlink:href="#mad2c3a6e0c" y="314.697056"/>
     <use style="fill:#1f77b4;stroke:#1f77b4;" x="234.526956" xlink:href="#mad2c3a6e0c" y="320.555556"/>
     <use style="fill:#1f77b4;stroke:#1f77b4;" x="246.815168" xlink:href="#mad2c3a6e0c" y="328.757456"/>
     <use style="fill:#1f77b4;stroke:#1f77b4;" x="255.724121" xlink:href="#mad2c3a6e0c" y="329.20811"/>
     <use style="fill:#1f77b4;stroke:#1f77b4;" x="258.796174" xlink:href="#mad2c3a6e0c" y="329.658764"/>
     <use style="fill:#1f77b4;stroke:#1f77b4;" x="276.921286" xlink:href="#mad2c3a6e0c" y="334.210368"/>
     <use style="fill:#1f77b4;stroke:#1f77b4;" x="289.209497" xlink:href="#mad2c3a6e0c" y="337.364945"/>
     <use style="fill:#1f77b4;stroke:#1f77b4;" x="296.275218" xlink:href="#mad2c3a6e0c" y="359.446983"/>
     <use style="fill:#1f77b4;stroke:#1f77b4;" x="309.485046" xlink:href="#mad2c3a6e0c" y="432.993692"/>
     <use style="fill:#1f77b4;stroke:#1f77b4;" x="314.093125" xlink:href="#mad2c3a6e0c" y="438.762061"/>
     <use style="fill:#1f77b4;stroke:#1f77b4;" x="325.152515" xlink:href="#mad2c3a6e0c" y="439.483107"/>
     <use style="fill:#1f77b4;stroke:#1f77b4;" x="325.766926" xlink:href="#mad2c3a6e0c" y="442.547553"/>
     <use style="fill:#1f77b4;stroke:#1f77b4;" x="328.838979" xlink:href="#mad2c3a6e0c" y="444.755757"/>
     <use style="fill:#1f77b4;stroke:#1f77b4;" x="330.375005" xlink:href="#mad2c3a6e0c" y="448.315923"/>
     <use style="fill:#1f77b4;stroke:#1f77b4;" x="333.447058" xlink:href="#mad2c3a6e0c" y="450.524127"/>
     <use style="fill:#1f77b4;stroke:#1f77b4;" x="336.211906" xlink:href="#mad2c3a6e0c" y="451.425434"/>
     <use style="fill:#1f77b4;stroke:#1f77b4;" x="336.826316" xlink:href="#mad2c3a6e0c" y="451.515565"/>
     <use style="fill:#1f77b4;stroke:#1f77b4;" x="343.892038" xlink:href="#mad2c3a6e0c" y="452.326742"/>
     <use style="fill:#1f77b4;stroke:#1f77b4;" x="344.813654" xlink:href="#mad2c3a6e0c" y="458.140177"/>
     <use style="fill:#1f77b4;stroke:#1f77b4;" x="345.735269" xlink:href="#mad2c3a6e0c" y="458.275373"/>
     <use style="fill:#1f77b4;stroke:#1f77b4;" x="347.271296" xlink:href="#mad2c3a6e0c" y="458.5007"/>
     <use style="fill:#1f77b4;stroke:#1f77b4;" x="348.192912" xlink:href="#mad2c3a6e0c" y="458.635896"/>
     <use style="fill:#1f77b4;stroke:#1f77b4;" x="348.807322" xlink:href="#mad2c3a6e0c" y="458.726027"/>
     <use style="fill:#1f77b4;stroke:#1f77b4;" x="352.493786" xlink:href="#mad2c3a6e0c" y="460.979296"/>
     <use style="fill:#1f77b4;stroke:#1f77b4;" x="353.108196" xlink:href="#mad2c3a6e0c" y="461.069427"/>
     <use style="fill:#1f77b4;stroke:#1f77b4;" x="354.029812" xlink:href="#mad2c3a6e0c" y="461.204623"/>
     <use style="fill:#1f77b4;stroke:#1f77b4;" x="355.565839" xlink:href="#mad2c3a6e0c" y="463.1875"/>
     <use style="fill:#1f77b4;stroke:#1f77b4;" x="356.180249" xlink:href="#mad2c3a6e0c" y="463.27763"/>
     <use style="fill:#1f77b4;stroke:#1f77b4;" x="357.101865" xlink:href="#mad2c3a6e0c" y="463.412827"/>
     <use style="fill:#1f77b4;stroke:#1f77b4;" x="360.173918" xlink:href="#mad2c3a6e0c" y="466.972992"/>
     <use style="fill:#1f77b4;stroke:#1f77b4;" x="366.932434" xlink:href="#mad2c3a6e0c" y="467.423646"/>
     <use style="fill:#1f77b4;stroke:#1f77b4;" x="367.546845" xlink:href="#mad2c3a6e0c" y="470.80355"/>
     <use style="fill:#1f77b4;stroke:#1f77b4;" x="370.618898" xlink:href="#mad2c3a6e0c" y="473.913061"/>
     <use style="fill:#1f77b4;stroke:#1f77b4;" x="377.991824" xlink:href="#mad2c3a6e0c" y="477.743619"/>
     <use style="fill:#1f77b4;stroke:#1f77b4;" x="384.13593" xlink:href="#mad2c3a6e0c" y="478.644927"/>
     <use style="fill:#1f77b4;stroke:#1f77b4;" x="404.411479" xlink:href="#mad2c3a6e0c" y="478.735058"/>
     <use style="fill:#1f77b4;stroke:#1f77b4;" x="405.947505" xlink:href="#mad2c3a6e0c" y="478.960384"/>
     <use style="fill:#1f77b4;stroke:#1f77b4;" x="406.561916" xlink:href="#mad2c3a6e0c" y="479.00545"/>
     <use style="fill:#1f77b4;stroke:#1f77b4;" x="406.869121" xlink:href="#mad2c3a6e0c" y="479.501169"/>
     <use style="fill:#1f77b4;stroke:#1f77b4;" x="410.248379" xlink:href="#mad2c3a6e0c" y="479.5913"/>
     <use style="fill:#1f77b4;stroke:#1f77b4;" x="410.86279" xlink:href="#mad2c3a6e0c" y="479.636365"/>
     <use style="fill:#1f77b4;stroke:#1f77b4;" x="411.169995" xlink:href="#mad2c3a6e0c" y="479.726496"/>
     <use style="fill:#1f77b4;stroke:#1f77b4;" x="411.4772" xlink:href="#mad2c3a6e0c" y="479.771561"/>
     <use style="fill:#1f77b4;stroke:#1f77b4;" x="412.398816" xlink:href="#mad2c3a6e0c" y="479.861692"/>
     <use style="fill:#1f77b4;stroke:#1f77b4;" x="413.013227" xlink:href="#mad2c3a6e0c" y="479.996888"/>
     <use style="fill:#1f77b4;stroke:#1f77b4;" x="413.627637" xlink:href="#mad2c3a6e0c" y="480.087019"/>
     <use style="fill:#1f77b4;stroke:#1f77b4;" x="413.934843" xlink:href="#mad2c3a6e0c" y="480.132084"/>
     <use style="fill:#1f77b4;stroke:#1f77b4;" x="415.163664" xlink:href="#mad2c3a6e0c" y="480.312346"/>
     <use style="fill:#1f77b4;stroke:#1f77b4;" x="415.778074" xlink:href="#mad2c3a6e0c" y="480.402477"/>
     <use style="fill:#1f77b4;stroke:#1f77b4;" x="416.08528" xlink:href="#mad2c3a6e0c" y="480.447542"/>
     <use style="fill:#1f77b4;stroke:#1f77b4;" x="416.392485" xlink:href="#mad2c3a6e0c" y="480.898196"/>
     <use style="fill:#1f77b4;stroke:#1f77b4;" x="419.464538" xlink:href="#mad2c3a6e0c" y="480.943261"/>
     <use style="fill:#1f77b4;stroke:#1f77b4;" x="419.771743" xlink:href="#mad2c3a6e0c" y="480.988327"/>
     <use style="fill:#1f77b4;stroke:#1f77b4;" x="420.693359" xlink:href="#mad2c3a6e0c" y="481.123523"/>
     <use style="fill:#1f77b4;stroke:#1f77b4;" x="421.614975" xlink:href="#mad2c3a6e0c" y="481.258719"/>
     <use style="fill:#1f77b4;stroke:#1f77b4;" x="421.92218" xlink:href="#mad2c3a6e0c" y="481.303785"/>
     <use style="fill:#1f77b4;stroke:#1f77b4;" x="422.229385" xlink:href="#mad2c3a6e0c" y="481.34885"/>
     <use style="fill:#1f77b4;stroke:#1f77b4;" x="422.536591" xlink:href="#mad2c3a6e0c" y="481.393915"/>
     <use style="fill:#1f77b4;stroke:#1f77b4;" x="422.843796" xlink:href="#mad2c3a6e0c" y="481.438981"/>
     <use style="fill:#1f77b4;stroke:#1f77b4;" x="423.151001" xlink:href="#mad2c3a6e0c" y="481.484046"/>
     <use style="fill:#1f77b4;stroke:#1f77b4;" x="424.687028" xlink:href="#mad2c3a6e0c" y="481.709373"/>
     <use style="fill:#1f77b4;stroke:#1f77b4;" x="425.301438" xlink:href="#mad2c3a6e0c" y="481.754438"/>
     <use style="fill:#1f77b4;stroke:#1f77b4;" x="425.608644" xlink:href="#mad2c3a6e0c" y="481.844569"/>
     <use style="fill:#1f77b4;stroke:#1f77b4;" x="427.14467" xlink:href="#mad2c3a6e0c" y="482.069896"/>
     <use style="fill:#1f77b4;stroke:#1f77b4;" x="428.680696" xlink:href="#mad2c3a6e0c" y="482.295223"/>
     <use style="fill:#1f77b4;stroke:#1f77b4;" x="429.295107" xlink:href="#mad2c3a6e0c" y="482.340288"/>
     <use style="fill:#1f77b4;stroke:#1f77b4;" x="430.831133" xlink:href="#mad2c3a6e0c" y="482.610681"/>
     <use style="fill:#1f77b4;stroke:#1f77b4;" x="431.752749" xlink:href="#mad2c3a6e0c" y="482.745877"/>
     <use style="fill:#1f77b4;stroke:#1f77b4;" x="432.36716" xlink:href="#mad2c3a6e0c" y="482.836008"/>
     <use style="fill:#1f77b4;stroke:#1f77b4;" x="433.595981" xlink:href="#mad2c3a6e0c" y="482.971204"/>
     <use style="fill:#1f77b4;stroke:#1f77b4;" x="434.517597" xlink:href="#mad2c3a6e0c" y="483.151465"/>
     <use style="fill:#1f77b4;stroke:#1f77b4;" x="434.824802" xlink:href="#mad2c3a6e0c" y="483.196531"/>
     <use style="fill:#1f77b4;stroke:#1f77b4;" x="436.360829" xlink:href="#mad2c3a6e0c" y="483.421858"/>
     <use style="fill:#1f77b4;stroke:#1f77b4;" x="438.20406" xlink:href="#mad2c3a6e0c" y="483.69225"/>
     <use style="fill:#1f77b4;stroke:#1f77b4;" x="439.432881" xlink:href="#mad2c3a6e0c" y="483.872511"/>
     <use style="fill:#1f77b4;stroke:#1f77b4;" x="440.047292" xlink:href="#mad2c3a6e0c" y="483.917577"/>
     <use style="fill:#1f77b4;stroke:#1f77b4;" x="441.276113" xlink:href="#mad2c3a6e0c" y="484.097838"/>
     <use style="fill:#1f77b4;stroke:#1f77b4;" x="441.890524" xlink:href="#mad2c3a6e0c" y="484.233035"/>
     <use style="fill:#1f77b4;stroke:#1f77b4;" x="442.504934" xlink:href="#mad2c3a6e0c" y="484.2781"/>
     <use style="fill:#1f77b4;stroke:#1f77b4;" x="442.81214" xlink:href="#mad2c3a6e0c" y="484.368231"/>
     <use style="fill:#1f77b4;stroke:#1f77b4;" x="444.962577" xlink:href="#mad2c3a6e0c" y="484.683688"/>
     <use style="fill:#1f77b4;stroke:#1f77b4;" x="445.269782" xlink:href="#mad2c3a6e0c" y="484.728754"/>
     <use style="fill:#1f77b4;stroke:#1f77b4;" x="445.884192" xlink:href="#mad2c3a6e0c" y="484.818885"/>
     <use style="fill:#1f77b4;stroke:#1f77b4;" x="446.191398" xlink:href="#mad2c3a6e0c" y="484.86395"/>
     <use style="fill:#1f77b4;stroke:#1f77b4;" x="448.034629" xlink:href="#mad2c3a6e0c" y="485.089277"/>
     <use style="fill:#1f77b4;stroke:#1f77b4;" x="448.956245" xlink:href="#mad2c3a6e0c" y="485.224473"/>
     <use style="fill:#1f77b4;stroke:#1f77b4;" x="449.263451" xlink:href="#mad2c3a6e0c" y="485.314604"/>
     <use style="fill:#1f77b4;stroke:#1f77b4;" x="450.492272" xlink:href="#mad2c3a6e0c" y="485.494865"/>
     <use style="fill:#1f77b4;stroke:#1f77b4;" x="451.413888" xlink:href="#mad2c3a6e0c" y="485.630061"/>
     <use style="fill:#1f77b4;stroke:#1f77b4;" x="452.642709" xlink:href="#mad2c3a6e0c" y="485.765258"/>
     <use style="fill:#1f77b4;stroke:#1f77b4;" x="452.949914" xlink:href="#mad2c3a6e0c" y="485.855388"/>
     <use style="fill:#1f77b4;stroke:#1f77b4;" x="454.48594" xlink:href="#mad2c3a6e0c" y="486.080715"/>
     <use style="fill:#1f77b4;stroke:#1f77b4;" x="455.100351" xlink:href="#mad2c3a6e0c" y="486.125781"/>
     <use style="fill:#1f77b4;stroke:#1f77b4;" x="456.636377" xlink:href="#mad2c3a6e0c" y="486.801761"/>
     <use style="fill:#1f77b4;stroke:#1f77b4;" x="460.015636" xlink:href="#mad2c3a6e0c" y="486.891892"/>
     <use style="fill:#1f77b4;stroke:#1f77b4;" x="460.322841" xlink:href="#mad2c3a6e0c" y="486.936958"/>
     <use style="fill:#1f77b4;stroke:#1f77b4;" x="460.630046" xlink:href="#mad2c3a6e0c" y="486.982023"/>
     <use style="fill:#1f77b4;stroke:#1f77b4;" x="460.937251" xlink:href="#mad2c3a6e0c" y="487.027088"/>
     <use style="fill:#1f77b4;stroke:#1f77b4;" x="463.394894" xlink:href="#mad2c3a6e0c" y="487.387611"/>
     <use style="fill:#1f77b4;stroke:#1f77b4;" x="465.238125" xlink:href="#mad2c3a6e0c" y="487.612938"/>
     <use style="fill:#1f77b4;stroke:#1f77b4;" x="465.852536" xlink:href="#mad2c3a6e0c" y="487.703069"/>
     <use style="fill:#1f77b4;stroke:#1f77b4;" x="466.159741" xlink:href="#mad2c3a6e0c" y="487.748135"/>
     <use style="fill:#1f77b4;stroke:#1f77b4;" x="467.081357" xlink:href="#mad2c3a6e0c" y="490.812581"/>
     <use style="fill:#1f77b4;stroke:#1f77b4;" x="469.846205" xlink:href="#mad2c3a6e0c" y="491.218169"/>
     <use style="fill:#1f77b4;stroke:#1f77b4;" x="473.839873" xlink:href="#mad2c3a6e0c" y="491.804019"/>
     <use style="fill:#1f77b4;stroke:#1f77b4;" x="475.3759" xlink:href="#mad2c3a6e0c" y="492.029346"/>
     <use style="fill:#1f77b4;stroke:#1f77b4;" x="495.344243" xlink:href="#mad2c3a6e0c" y="492.074412"/>
     <use style="fill:#1f77b4;stroke:#1f77b4;" x="495.651449" xlink:href="#mad2c3a6e0c" y="492.119477"/>
     <use style="fill:#1f77b4;stroke:#1f77b4;" x="496.265859" xlink:href="#mad2c3a6e0c" y="492.209608"/>
     <use style="fill:#1f77b4;stroke:#1f77b4;" x="496.573064" xlink:href="#mad2c3a6e0c" y="492.254673"/>
     <use style="fill:#1f77b4;stroke:#1f77b4;" x="496.88027" xlink:href="#mad2c3a6e0c" y="492.299738"/>
     <use style="fill:#1f77b4;stroke:#1f77b4;" x="497.187475" xlink:href="#mad2c3a6e0c" y="492.344804"/>
     <use style="fill:#1f77b4;stroke:#1f77b4;" x="497.49468" xlink:href="#mad2c3a6e0c" y="492.389869"/>
     <use style="fill:#1f77b4;stroke:#1f77b4;" x="497.801886" xlink:href="#mad2c3a6e0c" y="492.434935"/>
     <use style="fill:#1f77b4;stroke:#1f77b4;" x="498.109091" xlink:href="#mad2c3a6e0c" y="492.48"/>
    </g>
   </g>
   <g id="matplotlib.axis_1">
    <g id="xtick_1">
     <g id="line2d_1">
      <defs>
       <path d="M 0 0 
L 0 3.5 
" id="mbef4d3a535" style="stroke:#000000;stroke-width:0.8;"/>
      </defs>
      <g>
       <use style="stroke:#000000;stroke-width:0.8;" x="79.388287" xlink:href="#mbef4d3a535" y="512.64"/>
      </g>
     </g>
     <g id="text_1">
      <!-- 440 -->
      <g transform="translate(66.981412 529.517969)scale(0.13 -0.13)">
       <defs>
        <path d="M 37.796875 64.3125 
L 12.890625 25.390625 
L 37.796875 25.390625 
z
M 35.203125 72.90625 
L 47.609375 72.90625 
L 47.609375 25.390625 
L 58.015625 25.390625 
L 58.015625 17.1875 
L 47.609375 17.1875 
L 47.609375 0 
L 37.796875 0 
L 37.796875 17.1875 
L 4.890625 17.1875 
L 4.890625 26.703125 
z
" id="DejaVuSans-52"/>
        <path d="M 31.78125 66.40625 
Q 24.171875 66.40625 20.328125 58.90625 
Q 16.5 51.421875 16.5 36.375 
Q 16.5 21.390625 20.328125 13.890625 
Q 24.171875 6.390625 31.78125 6.390625 
Q 39.453125 6.390625 43.28125 13.890625 
Q 47.125 21.390625 47.125 36.375 
Q 47.125 51.421875 43.28125 58.90625 
Q 39.453125 66.40625 31.78125 66.40625 
z
M 31.78125 74.21875 
Q 44.046875 74.21875 50.515625 64.515625 
Q 56.984375 54.828125 56.984375 36.375 
Q 56.984375 17.96875 50.515625 8.265625 
Q 44.046875 -1.421875 31.78125 -1.421875 
Q 19.53125 -1.421875 13.0625 8.265625 
Q 6.59375 17.96875 6.59375 36.375 
Q 6.59375 54.828125 13.0625 64.515625 
Q 19.53125 74.21875 31.78125 74.21875 
z
" id="DejaVuSans-48"/>
       </defs>
       <use xlink:href="#DejaVuSans-52"/>
       <use x="63.623047" xlink:href="#DejaVuSans-52"/>
       <use x="127.246094" xlink:href="#DejaVuSans-48"/>
      </g>
     </g>
    </g>
    <g id="xtick_2">
     <g id="line2d_2">
      <g>
       <use style="stroke:#000000;stroke-width:0.8;" x="140.829344" xlink:href="#mbef4d3a535" y="512.64"/>
      </g>
     </g>
     <g id="text_2">
      <!-- 460 -->
      <g transform="translate(128.422469 529.517969)scale(0.13 -0.13)">
       <defs>
        <path d="M 33.015625 40.375 
Q 26.375 40.375 22.484375 35.828125 
Q 18.609375 31.296875 18.609375 23.390625 
Q 18.609375 15.53125 22.484375 10.953125 
Q 26.375 6.390625 33.015625 6.390625 
Q 39.65625 6.390625 43.53125 10.953125 
Q 47.40625 15.53125 47.40625 23.390625 
Q 47.40625 31.296875 43.53125 35.828125 
Q 39.65625 40.375 33.015625 40.375 
z
M 52.59375 71.296875 
L 52.59375 62.3125 
Q 48.875 64.0625 45.09375 64.984375 
Q 41.3125 65.921875 37.59375 65.921875 
Q 27.828125 65.921875 22.671875 59.328125 
Q 17.53125 52.734375 16.796875 39.40625 
Q 19.671875 43.65625 24.015625 45.921875 
Q 28.375 48.1875 33.59375 48.1875 
Q 44.578125 48.1875 50.953125 41.515625 
Q 57.328125 34.859375 57.328125 23.390625 
Q 57.328125 12.15625 50.6875 5.359375 
Q 44.046875 -1.421875 33.015625 -1.421875 
Q 20.359375 -1.421875 13.671875 8.265625 
Q 6.984375 17.96875 6.984375 36.375 
Q 6.984375 53.65625 15.1875 63.9375 
Q 23.390625 74.21875 37.203125 74.21875 
Q 40.921875 74.21875 44.703125 73.484375 
Q 48.484375 72.75 52.59375 71.296875 
z
" id="DejaVuSans-54"/>
       </defs>
       <use xlink:href="#DejaVuSans-52"/>
       <use x="63.623047" xlink:href="#DejaVuSans-54"/>
       <use x="127.246094" xlink:href="#DejaVuSans-48"/>
      </g>
     </g>
    </g>
    <g id="xtick_3">
     <g id="line2d_3">
      <g>
       <use style="stroke:#000000;stroke-width:0.8;" x="202.270401" xlink:href="#mbef4d3a535" y="512.64"/>
      </g>
     </g>
     <g id="text_3">
      <!-- 480 -->
      <g transform="translate(189.863526 529.517969)scale(0.13 -0.13)">
       <defs>
        <path d="M 31.78125 34.625 
Q 24.75 34.625 20.71875 30.859375 
Q 16.703125 27.09375 16.703125 20.515625 
Q 16.703125 13.921875 20.71875 10.15625 
Q 24.75 6.390625 31.78125 6.390625 
Q 38.8125 6.390625 42.859375 10.171875 
Q 46.921875 13.96875 46.921875 20.515625 
Q 46.921875 27.09375 42.890625 30.859375 
Q 38.875 34.625 31.78125 34.625 
z
M 21.921875 38.8125 
Q 15.578125 40.375 12.03125 44.71875 
Q 8.5 49.078125 8.5 55.328125 
Q 8.5 64.0625 14.71875 69.140625 
Q 20.953125 74.21875 31.78125 74.21875 
Q 42.671875 74.21875 48.875 69.140625 
Q 55.078125 64.0625 55.078125 55.328125 
Q 55.078125 49.078125 51.53125 44.71875 
Q 48 40.375 41.703125 38.8125 
Q 48.828125 37.15625 52.796875 32.3125 
Q 56.78125 27.484375 56.78125 20.515625 
Q 56.78125 9.90625 50.3125 4.234375 
Q 43.84375 -1.421875 31.78125 -1.421875 
Q 19.734375 -1.421875 13.25 4.234375 
Q 6.78125 9.90625 6.78125 20.515625 
Q 6.78125 27.484375 10.78125 32.3125 
Q 14.796875 37.15625 21.921875 38.8125 
z
M 18.3125 54.390625 
Q 18.3125 48.734375 21.84375 45.5625 
Q 25.390625 42.390625 31.78125 42.390625 
Q 38.140625 42.390625 41.71875 45.5625 
Q 45.3125 48.734375 45.3125 54.390625 
Q 45.3125 60.0625 41.71875 63.234375 
Q 38.140625 66.40625 31.78125 66.40625 
Q 25.390625 66.40625 21.84375 63.234375 
Q 18.3125 60.0625 18.3125 54.390625 
z
" id="DejaVuSans-56"/>
       </defs>
       <use xlink:href="#DejaVuSans-52"/>
       <use x="63.623047" xlink:href="#DejaVuSans-56"/>
       <use x="127.246094" xlink:href="#DejaVuSans-48"/>
      </g>
     </g>
    </g>
    <g id="xtick_4">
     <g id="line2d_4">
      <g>
       <use style="stroke:#000000;stroke-width:0.8;" x="263.711458" xlink:href="#mbef4d3a535" y="512.64"/>
      </g>
     </g>
     <g id="text_4">
      <!-- 500 -->
      <g transform="translate(251.304583 529.517969)scale(0.13 -0.13)">
       <defs>
        <path d="M 10.796875 72.90625 
L 49.515625 72.90625 
L 49.515625 64.59375 
L 19.828125 64.59375 
L 19.828125 46.734375 
Q 21.96875 47.46875 24.109375 47.828125 
Q 26.265625 48.1875 28.421875 48.1875 
Q 40.625 48.1875 47.75 41.5 
Q 54.890625 34.8125 54.890625 23.390625 
Q 54.890625 11.625 47.5625 5.09375 
Q 40.234375 -1.421875 26.90625 -1.421875 
Q 22.3125 -1.421875 17.546875 -0.640625 
Q 12.796875 0.140625 7.71875 1.703125 
L 7.71875 11.625 
Q 12.109375 9.234375 16.796875 8.0625 
Q 21.484375 6.890625 26.703125 6.890625 
Q 35.15625 6.890625 40.078125 11.328125 
Q 45.015625 15.765625 45.015625 23.390625 
Q 45.015625 31 40.078125 35.4375 
Q 35.15625 39.890625 26.703125 39.890625 
Q 22.75 39.890625 18.8125 39.015625 
Q 14.890625 38.140625 10.796875 36.28125 
z
" id="DejaVuSans-53"/>
       </defs>
       <use xlink:href="#DejaVuSans-53"/>
       <use x="63.623047" xlink:href="#DejaVuSans-48"/>
       <use x="127.246094" xlink:href="#DejaVuSans-48"/>
      </g>
     </g>
    </g>
    <g id="xtick_5">
     <g id="line2d_5">
      <g>
       <use style="stroke:#000000;stroke-width:0.8;" x="325.152515" xlink:href="#mbef4d3a535" y="512.64"/>
      </g>
     </g>
     <g id="text_5">
      <!-- 520 -->
      <g transform="translate(312.74564 529.517969)scale(0.13 -0.13)">
       <defs>
        <path d="M 19.1875 8.296875 
L 53.609375 8.296875 
L 53.609375 0 
L 7.328125 0 
L 7.328125 8.296875 
Q 12.9375 14.109375 22.625 23.890625 
Q 32.328125 33.6875 34.8125 36.53125 
Q 39.546875 41.84375 41.421875 45.53125 
Q 43.3125 49.21875 43.3125 52.78125 
Q 43.3125 58.59375 39.234375 62.25 
Q 35.15625 65.921875 28.609375 65.921875 
Q 23.96875 65.921875 18.8125 64.3125 
Q 13.671875 62.703125 7.8125 59.421875 
L 7.8125 69.390625 
Q 13.765625 71.78125 18.9375 73 
Q 24.125 74.21875 28.421875 74.21875 
Q 39.75 74.21875 46.484375 68.546875 
Q 53.21875 62.890625 53.21875 53.421875 
Q 53.21875 48.921875 51.53125 44.890625 
Q 49.859375 40.875 45.40625 35.40625 
Q 44.1875 33.984375 37.640625 27.21875 
Q 31.109375 20.453125 19.1875 8.296875 
z
" id="DejaVuSans-50"/>
       </defs>
       <use xlink:href="#DejaVuSans-53"/>
       <use x="63.623047" xlink:href="#DejaVuSans-50"/>
       <use x="127.246094" xlink:href="#DejaVuSans-48"/>
      </g>
     </g>
    </g>
    <g id="xtick_6">
     <g id="line2d_6">
      <g>
       <use style="stroke:#000000;stroke-width:0.8;" x="386.593572" xlink:href="#mbef4d3a535" y="512.64"/>
      </g>
     </g>
     <g id="text_6">
      <!-- 540 -->
      <g transform="translate(374.186697 529.517969)scale(0.13 -0.13)">
       <use xlink:href="#DejaVuSans-53"/>
       <use x="63.623047" xlink:href="#DejaVuSans-52"/>
       <use x="127.246094" xlink:href="#DejaVuSans-48"/>
      </g>
     </g>
    </g>
    <g id="xtick_7">
     <g id="line2d_7">
      <g>
       <use style="stroke:#000000;stroke-width:0.8;" x="448.034629" xlink:href="#mbef4d3a535" y="512.64"/>
      </g>
     </g>
     <g id="text_7">
      <!-- 560 -->
      <g transform="translate(435.627754 529.517969)scale(0.13 -0.13)">
       <use xlink:href="#DejaVuSans-53"/>
       <use x="63.623047" xlink:href="#DejaVuSans-54"/>
       <use x="127.246094" xlink:href="#DejaVuSans-48"/>
      </g>
     </g>
    </g>
    <g id="xtick_8">
     <g id="line2d_8">
      <g>
       <use style="stroke:#000000;stroke-width:0.8;" x="509.475686" xlink:href="#mbef4d3a535" y="512.64"/>
      </g>
     </g>
     <g id="text_8">
      <!-- 580 -->
      <g transform="translate(497.068811 529.517969)scale(0.13 -0.13)">
       <use xlink:href="#DejaVuSans-53"/>
       <use x="63.623047" xlink:href="#DejaVuSans-56"/>
       <use x="127.246094" xlink:href="#DejaVuSans-48"/>
      </g>
     </g>
    </g>
    <g id="text_9">
     <!-- Total traveled distance -->
     <g transform="translate(210.004687 547.619219)scale(0.15 -0.15)">
      <defs>
       <path d="M -0.296875 72.90625 
L 61.375 72.90625 
L 61.375 64.59375 
L 35.5 64.59375 
L 35.5 0 
L 25.59375 0 
L 25.59375 64.59375 
L -0.296875 64.59375 
z
" id="DejaVuSans-84"/>
       <path d="M 30.609375 48.390625 
Q 23.390625 48.390625 19.1875 42.75 
Q 14.984375 37.109375 14.984375 27.296875 
Q 14.984375 17.484375 19.15625 11.84375 
Q 23.34375 6.203125 30.609375 6.203125 
Q 37.796875 6.203125 41.984375 11.859375 
Q 46.1875 17.53125 46.1875 27.296875 
Q 46.1875 37.015625 41.984375 42.703125 
Q 37.796875 48.390625 30.609375 48.390625 
z
M 30.609375 56 
Q 42.328125 56 49.015625 48.375 
Q 55.71875 40.765625 55.71875 27.296875 
Q 55.71875 13.875 49.015625 6.21875 
Q 42.328125 -1.421875 30.609375 -1.421875 
Q 18.84375 -1.421875 12.171875 6.21875 
Q 5.515625 13.875 5.515625 27.296875 
Q 5.515625 40.765625 12.171875 48.375 
Q 18.84375 56 30.609375 56 
z
" id="DejaVuSans-111"/>
       <path d="M 18.3125 70.21875 
L 18.3125 54.6875 
L 36.8125 54.6875 
L 36.8125 47.703125 
L 18.3125 47.703125 
L 18.3125 18.015625 
Q 18.3125 11.328125 20.140625 9.421875 
Q 21.96875 7.515625 27.59375 7.515625 
L 36.8125 7.515625 
L 36.8125 0 
L 27.59375 0 
Q 17.1875 0 13.234375 3.875 
Q 9.28125 7.765625 9.28125 18.015625 
L 9.28125 47.703125 
L 2.6875 47.703125 
L 2.6875 54.6875 
L 9.28125 54.6875 
L 9.28125 70.21875 
z
" id="DejaVuSans-116"/>
       <path d="M 34.28125 27.484375 
Q 23.390625 27.484375 19.1875 25 
Q 14.984375 22.515625 14.984375 16.5 
Q 14.984375 11.71875 18.140625 8.90625 
Q 21.296875 6.109375 26.703125 6.109375 
Q 34.1875 6.109375 38.703125 11.40625 
Q 43.21875 16.703125 43.21875 25.484375 
L 43.21875 27.484375 
z
M 52.203125 31.203125 
L 52.203125 0 
L 43.21875 0 
L 43.21875 8.296875 
Q 40.140625 3.328125 35.546875 0.953125 
Q 30.953125 -1.421875 24.3125 -1.421875 
Q 15.921875 -1.421875 10.953125 3.296875 
Q 6 8.015625 6 15.921875 
Q 6 25.140625 12.171875 29.828125 
Q 18.359375 34.515625 30.609375 34.515625 
L 43.21875 34.515625 
L 43.21875 35.40625 
Q 43.21875 41.609375 39.140625 45 
Q 35.0625 48.390625 27.6875 48.390625 
Q 23 48.390625 18.546875 47.265625 
Q 14.109375 46.140625 10.015625 43.890625 
L 10.015625 52.203125 
Q 14.9375 54.109375 19.578125 55.046875 
Q 24.21875 56 28.609375 56 
Q 40.484375 56 46.34375 49.84375 
Q 52.203125 43.703125 52.203125 31.203125 
z
" id="DejaVuSans-97"/>
       <path d="M 9.421875 75.984375 
L 18.40625 75.984375 
L 18.40625 0 
L 9.421875 0 
z
" id="DejaVuSans-108"/>
       <path id="DejaVuSans-32"/>
       <path d="M 41.109375 46.296875 
Q 39.59375 47.171875 37.8125 47.578125 
Q 36.03125 48 33.890625 48 
Q 26.265625 48 22.1875 43.046875 
Q 18.109375 38.09375 18.109375 28.8125 
L 18.109375 0 
L 9.078125 0 
L 9.078125 54.6875 
L 18.109375 54.6875 
L 18.109375 46.1875 
Q 20.953125 51.171875 25.484375 53.578125 
Q 30.03125 56 36.53125 56 
Q 37.453125 56 38.578125 55.875 
Q 39.703125 55.765625 41.0625 55.515625 
z
" id="DejaVuSans-114"/>
       <path d="M 2.984375 54.6875 
L 12.5 54.6875 
L 29.59375 8.796875 
L 46.6875 54.6875 
L 56.203125 54.6875 
L 35.6875 0 
L 23.484375 0 
z
" id="DejaVuSans-118"/>
       <path d="M 56.203125 29.59375 
L 56.203125 25.203125 
L 14.890625 25.203125 
Q 15.484375 15.921875 20.484375 11.0625 
Q 25.484375 6.203125 34.421875 6.203125 
Q 39.59375 6.203125 44.453125 7.46875 
Q 49.3125 8.734375 54.109375 11.28125 
L 54.109375 2.78125 
Q 49.265625 0.734375 44.1875 -0.34375 
Q 39.109375 -1.421875 33.890625 -1.421875 
Q 20.796875 -1.421875 13.15625 6.1875 
Q 5.515625 13.8125 5.515625 26.8125 
Q 5.515625 40.234375 12.765625 48.109375 
Q 20.015625 56 32.328125 56 
Q 43.359375 56 49.78125 48.890625 
Q 56.203125 41.796875 56.203125 29.59375 
z
M 47.21875 32.234375 
Q 47.125 39.59375 43.09375 43.984375 
Q 39.0625 48.390625 32.421875 48.390625 
Q 24.90625 48.390625 20.390625 44.140625 
Q 15.875 39.890625 15.1875 32.171875 
z
" id="DejaVuSans-101"/>
       <path d="M 45.40625 46.390625 
L 45.40625 75.984375 
L 54.390625 75.984375 
L 54.390625 0 
L 45.40625 0 
L 45.40625 8.203125 
Q 42.578125 3.328125 38.25 0.953125 
Q 33.9375 -1.421875 27.875 -1.421875 
Q 17.96875 -1.421875 11.734375 6.484375 
Q 5.515625 14.40625 5.515625 27.296875 
Q 5.515625 40.1875 11.734375 48.09375 
Q 17.96875 56 27.875 56 
Q 33.9375 56 38.25 53.625 
Q 42.578125 51.265625 45.40625 46.390625 
z
M 14.796875 27.296875 
Q 14.796875 17.390625 18.875 11.75 
Q 22.953125 6.109375 30.078125 6.109375 
Q 37.203125 6.109375 41.296875 11.75 
Q 45.40625 17.390625 45.40625 27.296875 
Q 45.40625 37.203125 41.296875 42.84375 
Q 37.203125 48.484375 30.078125 48.484375 
Q 22.953125 48.484375 18.875 42.84375 
Q 14.796875 37.203125 14.796875 27.296875 
z
" id="DejaVuSans-100"/>
       <path d="M 9.421875 54.6875 
L 18.40625 54.6875 
L 18.40625 0 
L 9.421875 0 
z
M 9.421875 75.984375 
L 18.40625 75.984375 
L 18.40625 64.59375 
L 9.421875 64.59375 
z
" id="DejaVuSans-105"/>
       <path d="M 44.28125 53.078125 
L 44.28125 44.578125 
Q 40.484375 46.53125 36.375 47.5 
Q 32.28125 48.484375 27.875 48.484375 
Q 21.1875 48.484375 17.84375 46.4375 
Q 14.5 44.390625 14.5 40.28125 
Q 14.5 37.15625 16.890625 35.375 
Q 19.28125 33.59375 26.515625 31.984375 
L 29.59375 31.296875 
Q 39.15625 29.25 43.1875 25.515625 
Q 47.21875 21.78125 47.21875 15.09375 
Q 47.21875 7.46875 41.1875 3.015625 
Q 35.15625 -1.421875 24.609375 -1.421875 
Q 20.21875 -1.421875 15.453125 -0.5625 
Q 10.6875 0.296875 5.421875 2 
L 5.421875 11.28125 
Q 10.40625 8.6875 15.234375 7.390625 
Q 20.0625 6.109375 24.8125 6.109375 
Q 31.15625 6.109375 34.5625 8.28125 
Q 37.984375 10.453125 37.984375 14.40625 
Q 37.984375 18.0625 35.515625 20.015625 
Q 33.0625 21.96875 24.703125 23.78125 
L 21.578125 24.515625 
Q 13.234375 26.265625 9.515625 29.90625 
Q 5.8125 33.546875 5.8125 39.890625 
Q 5.8125 47.609375 11.28125 51.796875 
Q 16.75 56 26.8125 56 
Q 31.78125 56 36.171875 55.265625 
Q 40.578125 54.546875 44.28125 53.078125 
z
" id="DejaVuSans-115"/>
       <path d="M 54.890625 33.015625 
L 54.890625 0 
L 45.90625 0 
L 45.90625 32.71875 
Q 45.90625 40.484375 42.875 44.328125 
Q 39.84375 48.1875 33.796875 48.1875 
Q 26.515625 48.1875 22.3125 43.546875 
Q 18.109375 38.921875 18.109375 30.90625 
L 18.109375 0 
L 9.078125 0 
L 9.078125 54.6875 
L 18.109375 54.6875 
L 18.109375 46.1875 
Q 21.34375 51.125 25.703125 53.5625 
Q 30.078125 56 35.796875 56 
Q 45.21875 56 50.046875 50.171875 
Q 54.890625 44.34375 54.890625 33.015625 
z
" id="DejaVuSans-110"/>
       <path d="M 48.78125 52.59375 
L 48.78125 44.1875 
Q 44.96875 46.296875 41.140625 47.34375 
Q 37.3125 48.390625 33.40625 48.390625 
Q 24.65625 48.390625 19.8125 42.84375 
Q 14.984375 37.3125 14.984375 27.296875 
Q 14.984375 17.28125 19.8125 11.734375 
Q 24.65625 6.203125 33.40625 6.203125 
Q 37.3125 6.203125 41.140625 7.25 
Q 44.96875 8.296875 48.78125 10.40625 
L 48.78125 2.09375 
Q 45.015625 0.34375 40.984375 -0.53125 
Q 36.96875 -1.421875 32.421875 -1.421875 
Q 20.0625 -1.421875 12.78125 6.34375 
Q 5.515625 14.109375 5.515625 27.296875 
Q 5.515625 40.671875 12.859375 48.328125 
Q 20.21875 56 33.015625 56 
Q 37.15625 56 41.109375 55.140625 
Q 45.0625 54.296875 48.78125 52.59375 
z
" id="DejaVuSans-99"/>
      </defs>
      <use xlink:href="#DejaVuSans-84"/>
      <use x="44.083984" xlink:href="#DejaVuSans-111"/>
      <use x="105.265625" xlink:href="#DejaVuSans-116"/>
      <use x="144.474609" xlink:href="#DejaVuSans-97"/>
      <use x="205.753906" xlink:href="#DejaVuSans-108"/>
      <use x="233.537109" xlink:href="#DejaVuSans-32"/>
      <use x="265.324219" xlink:href="#DejaVuSans-116"/>
      <use x="304.533203" xlink:href="#DejaVuSans-114"/>
      <use x="345.646484" xlink:href="#DejaVuSans-97"/>
      <use x="406.925781" xlink:href="#DejaVuSans-118"/>
      <use x="466.105469" xlink:href="#DejaVuSans-101"/>
      <use x="527.628906" xlink:href="#DejaVuSans-108"/>
      <use x="555.412109" xlink:href="#DejaVuSans-101"/>
      <use x="616.935547" xlink:href="#DejaVuSans-100"/>
      <use x="680.412109" xlink:href="#DejaVuSans-32"/>
      <use x="712.199219" xlink:href="#DejaVuSans-100"/>
      <use x="775.675781" xlink:href="#DejaVuSans-105"/>
      <use x="803.458984" xlink:href="#DejaVuSans-115"/>
      <use x="855.558594" xlink:href="#DejaVuSans-116"/>
      <use x="894.767578" xlink:href="#DejaVuSans-97"/>
      <use x="956.046875" xlink:href="#DejaVuSans-110"/>
      <use x="1019.425781" xlink:href="#DejaVuSans-99"/>
      <use x="1074.40625" xlink:href="#DejaVuSans-101"/>
     </g>
    </g>
   </g>
   <g id="matplotlib.axis_2">
    <g id="ytick_1">
     <g id="line2d_9">
      <defs>
       <path d="M 0 0 
L -3.5 0 
" id="mae609ce572" style="stroke:#000000;stroke-width:0.8;"/>
      </defs>
      <g>
       <use style="stroke:#000000;stroke-width:0.8;" x="72" xlink:href="#mae609ce572" y="492.48"/>
      </g>
     </g>
     <g id="text_10">
      <!-- 0 -->
      <g transform="translate(56.72875 497.418984)scale(0.13 -0.13)">
       <use xlink:href="#DejaVuSans-48"/>
      </g>
     </g>
    </g>
    <g id="ytick_2">
     <g id="line2d_10">
      <g>
       <use style="stroke:#000000;stroke-width:0.8;" x="72" xlink:href="#mae609ce572" y="402.34923"/>
      </g>
     </g>
     <g id="text_11">
      <!-- 200 -->
      <g transform="translate(40.18625 407.288214)scale(0.13 -0.13)">
       <use xlink:href="#DejaVuSans-50"/>
       <use x="63.623047" xlink:href="#DejaVuSans-48"/>
       <use x="127.246094" xlink:href="#DejaVuSans-48"/>
      </g>
     </g>
    </g>
    <g id="ytick_3">
     <g id="line2d_11">
      <g>
       <use style="stroke:#000000;stroke-width:0.8;" x="72" xlink:href="#mae609ce572" y="312.21846"/>
      </g>
     </g>
     <g id="text_12">
      <!-- 400 -->
      <g transform="translate(40.18625 317.157444)scale(0.13 -0.13)">
       <use xlink:href="#DejaVuSans-52"/>
       <use x="63.623047" xlink:href="#DejaVuSans-48"/>
       <use x="127.246094" xlink:href="#DejaVuSans-48"/>
      </g>
     </g>
    </g>
    <g id="ytick_4">
     <g id="line2d_12">
      <g>
       <use style="stroke:#000000;stroke-width:0.8;" x="72" xlink:href="#mae609ce572" y="222.08769"/>
      </g>
     </g>
     <g id="text_13">
      <!-- 600 -->
      <g transform="translate(40.18625 227.026674)scale(0.13 -0.13)">
       <use xlink:href="#DejaVuSans-54"/>
       <use x="63.623047" xlink:href="#DejaVuSans-48"/>
       <use x="127.246094" xlink:href="#DejaVuSans-48"/>
      </g>
     </g>
    </g>
    <g id="ytick_5">
     <g id="line2d_13">
      <g>
       <use style="stroke:#000000;stroke-width:0.8;" x="72" xlink:href="#mae609ce572" y="131.95692"/>
      </g>
     </g>
     <g id="text_14">
      <!-- 800 -->
      <g transform="translate(40.18625 136.895904)scale(0.13 -0.13)">
       <use xlink:href="#DejaVuSans-56"/>
       <use x="63.623047" xlink:href="#DejaVuSans-48"/>
       <use x="127.246094" xlink:href="#DejaVuSans-48"/>
      </g>
     </g>
    </g>
    <g id="text_15">
     <!-- Total waiting time -->
     <g transform="translate(33.066719 357.457734)rotate(-90)scale(0.15 -0.15)">
      <defs>
       <path d="M 4.203125 54.6875 
L 13.1875 54.6875 
L 24.421875 12.015625 
L 35.59375 54.6875 
L 46.1875 54.6875 
L 57.421875 12.015625 
L 68.609375 54.6875 
L 77.59375 54.6875 
L 63.28125 0 
L 52.6875 0 
L 40.921875 44.828125 
L 29.109375 0 
L 18.5 0 
z
" id="DejaVuSans-119"/>
       <path d="M 45.40625 27.984375 
Q 45.40625 37.75 41.375 43.109375 
Q 37.359375 48.484375 30.078125 48.484375 
Q 22.859375 48.484375 18.828125 43.109375 
Q 14.796875 37.75 14.796875 27.984375 
Q 14.796875 18.265625 18.828125 12.890625 
Q 22.859375 7.515625 30.078125 7.515625 
Q 37.359375 7.515625 41.375 12.890625 
Q 45.40625 18.265625 45.40625 27.984375 
z
M 54.390625 6.78125 
Q 54.390625 -7.171875 48.1875 -13.984375 
Q 42 -20.796875 29.203125 -20.796875 
Q 24.46875 -20.796875 20.265625 -20.09375 
Q 16.0625 -19.390625 12.109375 -17.921875 
L 12.109375 -9.1875 
Q 16.0625 -11.328125 19.921875 -12.34375 
Q 23.78125 -13.375 27.78125 -13.375 
Q 36.625 -13.375 41.015625 -8.765625 
Q 45.40625 -4.15625 45.40625 5.171875 
L 45.40625 9.625 
Q 42.625 4.78125 38.28125 2.390625 
Q 33.9375 0 27.875 0 
Q 17.828125 0 11.671875 7.65625 
Q 5.515625 15.328125 5.515625 27.984375 
Q 5.515625 40.671875 11.671875 48.328125 
Q 17.828125 56 27.875 56 
Q 33.9375 56 38.28125 53.609375 
Q 42.625 51.21875 45.40625 46.390625 
L 45.40625 54.6875 
L 54.390625 54.6875 
z
" id="DejaVuSans-103"/>
       <path d="M 52 44.1875 
Q 55.375 50.25 60.0625 53.125 
Q 64.75 56 71.09375 56 
Q 79.640625 56 84.28125 50.015625 
Q 88.921875 44.046875 88.921875 33.015625 
L 88.921875 0 
L 79.890625 0 
L 79.890625 32.71875 
Q 79.890625 40.578125 77.09375 44.375 
Q 74.3125 48.1875 68.609375 48.1875 
Q 61.625 48.1875 57.5625 43.546875 
Q 53.515625 38.921875 53.515625 30.90625 
L 53.515625 0 
L 44.484375 0 
L 44.484375 32.71875 
Q 44.484375 40.625 41.703125 44.40625 
Q 38.921875 48.1875 33.109375 48.1875 
Q 26.21875 48.1875 22.15625 43.53125 
Q 18.109375 38.875 18.109375 30.90625 
L 18.109375 0 
L 9.078125 0 
L 9.078125 54.6875 
L 18.109375 54.6875 
L 18.109375 46.1875 
Q 21.1875 51.21875 25.484375 53.609375 
Q 29.78125 56 35.6875 56 
Q 41.65625 56 45.828125 52.96875 
Q 50 49.953125 52 44.1875 
z
" id="DejaVuSans-109"/>
      </defs>
      <use xlink:href="#DejaVuSans-84"/>
      <use x="44.083984" xlink:href="#DejaVuSans-111"/>
      <use x="105.265625" xlink:href="#DejaVuSans-116"/>
      <use x="144.474609" xlink:href="#DejaVuSans-97"/>
      <use x="205.753906" xlink:href="#DejaVuSans-108"/>
      <use x="233.537109" xlink:href="#DejaVuSans-32"/>
      <use x="265.324219" xlink:href="#DejaVuSans-119"/>
      <use x="347.111328" xlink:href="#DejaVuSans-97"/>
      <use x="408.390625" xlink:href="#DejaVuSans-105"/>
      <use x="436.173828" xlink:href="#DejaVuSans-116"/>
      <use x="475.382812" xlink:href="#DejaVuSans-105"/>
      <use x="503.166016" xlink:href="#DejaVuSans-110"/>
      <use x="566.544922" xlink:href="#DejaVuSans-103"/>
      <use x="630.021484" xlink:href="#DejaVuSans-32"/>
      <use x="661.808594" xlink:href="#DejaVuSans-116"/>
      <use x="701.017578" xlink:href="#DejaVuSans-105"/>
      <use x="728.800781" xlink:href="#DejaVuSans-109"/>
      <use x="826.212891" xlink:href="#DejaVuSans-101"/>
     </g>
    </g>
   </g>
   <g id="patch_3">
    <path d="M 72 512.64 
L 72 69.12 
" style="fill:none;stroke:#000000;stroke-linecap:square;stroke-linejoin:miter;stroke-width:0.8;"/>
   </g>
   <g id="patch_4">
    <path d="M 518.4 512.64 
L 518.4 69.12 
" style="fill:none;stroke:#000000;stroke-linecap:square;stroke-linejoin:miter;stroke-width:0.8;"/>
   </g>
   <g id="patch_5">
    <path d="M 72 512.64 
L 518.4 512.64 
" style="fill:none;stroke:#000000;stroke-linecap:square;stroke-linejoin:miter;stroke-width:0.8;"/>
   </g>
   <g id="patch_6">
    <path d="M 72 69.12 
L 518.4 69.12 
" style="fill:none;stroke:#000000;stroke-linecap:square;stroke-linejoin:miter;stroke-width:0.8;"/>
   </g>
   <g id="text_16">
    <!-- Pareto-front of RC204-50 -->
    <g transform="translate(202.041797 63.12)scale(0.15 -0.15)">
     <defs>
      <path d="M 19.671875 64.796875 
L 19.671875 37.40625 
L 32.078125 37.40625 
Q 38.96875 37.40625 42.71875 40.96875 
Q 46.484375 44.53125 46.484375 51.125 
Q 46.484375 57.671875 42.71875 61.234375 
Q 38.96875 64.796875 32.078125 64.796875 
z
M 9.8125 72.90625 
L 32.078125 72.90625 
Q 44.34375 72.90625 50.609375 67.359375 
Q 56.890625 61.8125 56.890625 51.125 
Q 56.890625 40.328125 50.609375 34.8125 
Q 44.34375 29.296875 32.078125 29.296875 
L 19.671875 29.296875 
L 19.671875 0 
L 9.8125 0 
z
" id="DejaVuSans-80"/>
      <path d="M 4.890625 31.390625 
L 31.203125 31.390625 
L 31.203125 23.390625 
L 4.890625 23.390625 
z
" id="DejaVuSans-45"/>
      <path d="M 37.109375 75.984375 
L 37.109375 68.5 
L 28.515625 68.5 
Q 23.6875 68.5 21.796875 66.546875 
Q 19.921875 64.59375 19.921875 59.515625 
L 19.921875 54.6875 
L 34.71875 54.6875 
L 34.71875 47.703125 
L 19.921875 47.703125 
L 19.921875 0 
L 10.890625 0 
L 10.890625 47.703125 
L 2.296875 47.703125 
L 2.296875 54.6875 
L 10.890625 54.6875 
L 10.890625 58.5 
Q 10.890625 67.625 15.140625 71.796875 
Q 19.390625 75.984375 28.609375 75.984375 
z
" id="DejaVuSans-102"/>
      <path d="M 44.390625 34.1875 
Q 47.5625 33.109375 50.5625 29.59375 
Q 53.5625 26.078125 56.59375 19.921875 
L 66.609375 0 
L 56 0 
L 46.6875 18.703125 
Q 43.0625 26.03125 39.671875 28.421875 
Q 36.28125 30.8125 30.421875 30.8125 
L 19.671875 30.8125 
L 19.671875 0 
L 9.8125 0 
L 9.8125 72.90625 
L 32.078125 72.90625 
Q 44.578125 72.90625 50.734375 67.671875 
Q 56.890625 62.453125 56.890625 51.90625 
Q 56.890625 45.015625 53.6875 40.46875 
Q 50.484375 35.9375 44.390625 34.1875 
z
M 19.671875 64.796875 
L 19.671875 38.921875 
L 32.078125 38.921875 
Q 39.203125 38.921875 42.84375 42.21875 
Q 46.484375 45.515625 46.484375 51.90625 
Q 46.484375 58.296875 42.84375 61.546875 
Q 39.203125 64.796875 32.078125 64.796875 
z
" id="DejaVuSans-82"/>
      <path d="M 64.40625 67.28125 
L 64.40625 56.890625 
Q 59.421875 61.53125 53.78125 63.8125 
Q 48.140625 66.109375 41.796875 66.109375 
Q 29.296875 66.109375 22.65625 58.46875 
Q 16.015625 50.828125 16.015625 36.375 
Q 16.015625 21.96875 22.65625 14.328125 
Q 29.296875 6.6875 41.796875 6.6875 
Q 48.140625 6.6875 53.78125 8.984375 
Q 59.421875 11.28125 64.40625 15.921875 
L 64.40625 5.609375 
Q 59.234375 2.09375 53.4375 0.328125 
Q 47.65625 -1.421875 41.21875 -1.421875 
Q 24.65625 -1.421875 15.125 8.703125 
Q 5.609375 18.84375 5.609375 36.375 
Q 5.609375 53.953125 15.125 64.078125 
Q 24.65625 74.21875 41.21875 74.21875 
Q 47.75 74.21875 53.53125 72.484375 
Q 59.328125 70.75 64.40625 67.28125 
z
" id="DejaVuSans-67"/>
     </defs>
     <use xlink:href="#DejaVuSans-80"/>
     <use x="55.802734" xlink:href="#DejaVuSans-97"/>
     <use x="117.082031" xlink:href="#DejaVuSans-114"/>
     <use x="155.945312" xlink:href="#DejaVuSans-101"/>
     <use x="217.46875" xlink:href="#DejaVuSans-116"/>
     <use x="256.677734" xlink:href="#DejaVuSans-111"/>
     <use x="319.734375" xlink:href="#DejaVuSans-45"/>
     <use x="355.818359" xlink:href="#DejaVuSans-102"/>
     <use x="391.023438" xlink:href="#DejaVuSans-114"/>
     <use x="429.886719" xlink:href="#DejaVuSans-111"/>
     <use x="491.068359" xlink:href="#DejaVuSans-110"/>
     <use x="554.447266" xlink:href="#DejaVuSans-116"/>
     <use x="593.65625" xlink:href="#DejaVuSans-32"/>
     <use x="625.443359" xlink:href="#DejaVuSans-111"/>
     <use x="686.625" xlink:href="#DejaVuSans-102"/>
     <use x="721.830078" xlink:href="#DejaVuSans-32"/>
     <use x="753.617188" xlink:href="#DejaVuSans-82"/>
     <use x="818.099609" xlink:href="#DejaVuSans-67"/>
     <use x="887.923828" xlink:href="#DejaVuSans-50"/>
     <use x="951.546875" xlink:href="#DejaVuSans-48"/>
     <use x="1015.169922" xlink:href="#DejaVuSans-52"/>
     <use x="1078.792969" xlink:href="#DejaVuSans-45"/>
     <use x="1114.876953" xlink:href="#DejaVuSans-53"/>
     <use x="1178.5" xlink:href="#DejaVuSans-48"/>
    </g>
   </g>
  </g>
 </g>
 <defs>
  <clipPath id="pbe9c22f5d1">
   <rect height="443.52" width="446.4" x="72" y="69.12"/>
  </clipPath>
 </defs>
</svg>
