<?xml version="1.0" encoding="utf-8" standalone="no"?>
<!DOCTYPE svg PUBLIC "-//W3C//DTD SVG 1.1//EN"
  "http://www.w3.org/Graphics/SVG/1.1/DTD/svg11.dtd">
<!-- Created with matplotlib (https://matplotlib.org/) -->
<svg height="576pt" version="1.1" viewBox="0 0 576 576" width="576pt" xmlns="http://www.w3.org/2000/svg" xmlns:xlink="http://www.w3.org/1999/xlink">
 <metadata>
  <rdf:RDF xmlns:cc="http://creativecommons.org/ns#" xmlns:dc="http://purl.org/dc/elements/1.1/" xmlns:rdf="http://www.w3.org/1999/02/22-rdf-syntax-ns#">
   <cc:Work>
    <dc:type rdf:resource="http://purl.org/dc/dcmitype/StillImage"/>
    <dc:date>2022-03-29T10:55:18.942397</dc:date>
    <dc:format>image/svg+xml</dc:format>
    <dc:creator>
     <cc:Agent>
      <dc:title>Matplotlib v3.3.4, https://matplotlib.org/</dc:title>
     </cc:Agent>
    </dc:creator>
   </cc:Work>
  </rdf:RDF>
 </metadata>
 <defs>
  <style type="text/css">*{stroke-linecap:butt;stroke-linejoin:round;}</style>
 </defs>
 <g id="figure_1">
  <g id="patch_1">
   <path d="M 0 576 
L 576 576 
L 576 0 
L 0 0 
z
" style="fill:#ffffff;"/>
  </g>
  <g id="axes_1">
   <g id="patch_2">
    <path d="M 72 512.64 
L 518.4 512.64 
L 518.4 69.12 
L 72 69.12 
z
" style="fill:#ffffff;"/>
   </g>
   <g id="PathCollection_1">
    <defs>
     <path d="M 0 3 
C 0.795609 3 1.55874 2.683901 2.12132 2.12132 
C 2.683901 1.55874 3 0.795609 3 0 
C 3 -0.795609 2.683901 -1.55874 2.12132 -2.12132 
C 1.55874 -2.683901 0.795609 -3 0 -3 
C -0.795609 -3 -1.55874 -2.683901 -2.12132 -2.12132 
C -2.683901 -1.55874 -3 -0.795609 -3 0 
C -3 0.795609 -2.683901 1.55874 -2.12132 2.12132 
C -1.55874 2.683901 -0.795609 3 0 3 
z
" id="md6618d0ad8" style="stroke:#1f77b4;"/>
    </defs>
    <g clip-path="url(#p1a1fc5c2b6)">
     <use style="fill:#1f77b4;stroke:#1f77b4;" x="92.290909" xlink:href="#md6618d0ad8" y="89.28"/>
     <use style="fill:#1f77b4;stroke:#1f77b4;" x="93.214122" xlink:href="#md6618d0ad8" y="100.743041"/>
     <use style="fill:#1f77b4;stroke:#1f77b4;" x="93.741673" xlink:href="#md6618d0ad8" y="104.356391"/>
     <use style="fill:#1f77b4;stroke:#1f77b4;" x="94.532998" xlink:href="#md6618d0ad8" y="124.665909"/>
     <use style="fill:#1f77b4;stroke:#1f77b4;" x="95.456212" xlink:href="#md6618d0ad8" y="136.128949"/>
     <use style="fill:#1f77b4;stroke:#1f77b4;" x="95.983762" xlink:href="#md6618d0ad8" y="139.742299"/>
     <use style="fill:#1f77b4;stroke:#1f77b4;" x="97.170751" xlink:href="#md6618d0ad8" y="140.988282"/>
     <use style="fill:#1f77b4;stroke:#1f77b4;" x="97.434526" xlink:href="#md6618d0ad8" y="141.11288"/>
     <use style="fill:#1f77b4;stroke:#1f77b4;" x="100.072278" xlink:href="#md6618d0ad8" y="146.096811"/>
     <use style="fill:#1f77b4;stroke:#1f77b4;" x="100.599829" xlink:href="#md6618d0ad8" y="149.710161"/>
     <use style="fill:#1f77b4;stroke:#1f77b4;" x="101.786817" xlink:href="#md6618d0ad8" y="150.956143"/>
     <use style="fill:#1f77b4;stroke:#1f77b4;" x="102.050592" xlink:href="#md6618d0ad8" y="151.080742"/>
     <use style="fill:#1f77b4;stroke:#1f77b4;" x="102.314368" xlink:href="#md6618d0ad8" y="153.697305"/>
     <use style="fill:#1f77b4;stroke:#1f77b4;" x="102.841918" xlink:href="#md6618d0ad8" y="157.310655"/>
     <use style="fill:#1f77b4;stroke:#1f77b4;" x="104.028907" xlink:href="#md6618d0ad8" y="158.556638"/>
     <use style="fill:#1f77b4;stroke:#1f77b4;" x="104.292682" xlink:href="#md6618d0ad8" y="158.681236"/>
     <use style="fill:#1f77b4;stroke:#1f77b4;" x="106.666659" xlink:href="#md6618d0ad8" y="159.927219"/>
     <use style="fill:#1f77b4;stroke:#1f77b4;" x="109.040636" xlink:href="#md6618d0ad8" y="161.048603"/>
     <use style="fill:#1f77b4;stroke:#1f77b4;" x="109.831961" xlink:href="#md6618d0ad8" y="162.543782"/>
     <use style="fill:#1f77b4;stroke:#1f77b4;" x="110.755175" xlink:href="#md6618d0ad8" y="163.042176"/>
     <use style="fill:#1f77b4;stroke:#1f77b4;" x="111.01895" xlink:href="#md6618d0ad8" y="165.035748"/>
     <use style="fill:#1f77b4;stroke:#1f77b4;" x="111.282725" xlink:href="#md6618d0ad8" y="165.160346"/>
     <use style="fill:#1f77b4;stroke:#1f77b4;" x="111.414613" xlink:href="#md6618d0ad8" y="175.875797"/>
     <use style="fill:#1f77b4;stroke:#1f77b4;" x="112.074051" xlink:href="#md6618d0ad8" y="189.706205"/>
     <use style="fill:#1f77b4;stroke:#1f77b4;" x="112.997264" xlink:href="#md6618d0ad8" y="201.169246"/>
     <use style="fill:#1f77b4;stroke:#1f77b4;" x="113.524815" xlink:href="#md6618d0ad8" y="204.782596"/>
     <use style="fill:#1f77b4;stroke:#1f77b4;" x="114.711803" xlink:href="#md6618d0ad8" y="206.028578"/>
     <use style="fill:#1f77b4;stroke:#1f77b4;" x="114.975578" xlink:href="#md6618d0ad8" y="206.153177"/>
     <use style="fill:#1f77b4;stroke:#1f77b4;" x="119.195982" xlink:href="#md6618d0ad8" y="210.140321"/>
     <use style="fill:#1f77b4;stroke:#1f77b4;" x="120.646746" xlink:href="#md6618d0ad8" y="211.510902"/>
     <use style="fill:#1f77b4;stroke:#1f77b4;" x="122.361285" xlink:href="#md6618d0ad8" y="213.504475"/>
     <use style="fill:#1f77b4;stroke:#1f77b4;" x="123.020723" xlink:href="#md6618d0ad8" y="227.334883"/>
     <use style="fill:#1f77b4;stroke:#1f77b4;" x="123.943936" xlink:href="#md6618d0ad8" y="238.797923"/>
     <use style="fill:#1f77b4;stroke:#1f77b4;" x="124.471486" xlink:href="#md6618d0ad8" y="242.411273"/>
     <use style="fill:#1f77b4;stroke:#1f77b4;" x="125.658475" xlink:href="#md6618d0ad8" y="243.657256"/>
     <use style="fill:#1f77b4;stroke:#1f77b4;" x="128.428115" xlink:href="#md6618d0ad8" y="246.149221"/>
     <use style="fill:#1f77b4;stroke:#1f77b4;" x="128.69189" xlink:href="#md6618d0ad8" y="246.398418"/>
     <use style="fill:#1f77b4;stroke:#1f77b4;" x="130.142654" xlink:href="#md6618d0ad8" y="247.768999"/>
     <use style="fill:#1f77b4;stroke:#1f77b4;" x="131.329642" xlink:href="#md6618d0ad8" y="249.014981"/>
     <use style="fill:#1f77b4;stroke:#1f77b4;" x="131.98908" xlink:href="#md6618d0ad8" y="249.513375"/>
     <use style="fill:#1f77b4;stroke:#1f77b4;" x="133.307956" xlink:href="#md6618d0ad8" y="250.759357"/>
     <use style="fill:#1f77b4;stroke:#1f77b4;" x="134.099282" xlink:href="#md6618d0ad8" y="251.506947"/>
     <use style="fill:#1f77b4;stroke:#1f77b4;" x="134.363057" xlink:href="#md6618d0ad8" y="251.756143"/>
     <use style="fill:#1f77b4;stroke:#1f77b4;" x="135.286271" xlink:href="#md6618d0ad8" y="252.75293"/>
     <use style="fill:#1f77b4;stroke:#1f77b4;" x="138.583461" xlink:href="#md6618d0ad8" y="255.743288"/>
     <use style="fill:#1f77b4;stroke:#1f77b4;" x="138.715348" xlink:href="#md6618d0ad8" y="255.867886"/>
     <use style="fill:#1f77b4;stroke:#1f77b4;" x="138.847236" xlink:href="#md6618d0ad8" y="257.986057"/>
     <use style="fill:#1f77b4;stroke:#1f77b4;" x="140.034225" xlink:href="#md6618d0ad8" y="259.23204"/>
     <use style="fill:#1f77b4;stroke:#1f77b4;" x="142.276314" xlink:href="#md6618d0ad8" y="259.730433"/>
     <use style="fill:#1f77b4;stroke:#1f77b4;" x="143.06764" xlink:href="#md6618d0ad8" y="259.979629"/>
     <use style="fill:#1f77b4;stroke:#1f77b4;" x="146.232942" xlink:href="#md6618d0ad8" y="263.468381"/>
     <use style="fill:#1f77b4;stroke:#1f77b4;" x="147.683706" xlink:href="#md6618d0ad8" y="266.334141"/>
     <use style="fill:#1f77b4;stroke:#1f77b4;" x="150.453346" xlink:href="#md6618d0ad8" y="266.707936"/>
     <use style="fill:#1f77b4;stroke:#1f77b4;" x="151.640334" xlink:href="#md6618d0ad8" y="272.937849"/>
     <use style="fill:#1f77b4;stroke:#1f77b4;" x="152.695435" xlink:href="#md6618d0ad8" y="274.30843"/>
     <use style="fill:#1f77b4;stroke:#1f77b4;" x="153.091098" xlink:href="#md6618d0ad8" y="285.522274"/>
     <use style="fill:#1f77b4;stroke:#1f77b4;" x="154.541862" xlink:href="#md6618d0ad8" y="288.138838"/>
     <use style="fill:#1f77b4;stroke:#1f77b4;" x="155.72885" xlink:href="#md6618d0ad8" y="289.384821"/>
     <use style="fill:#1f77b4;stroke:#1f77b4;" x="158.49849" xlink:href="#md6618d0ad8" y="291.876786"/>
     <use style="fill:#1f77b4;stroke:#1f77b4;" x="159.685479" xlink:href="#md6618d0ad8" y="293.122769"/>
     <use style="fill:#1f77b4;stroke:#1f77b4;" x="160.213029" xlink:href="#md6618d0ad8" y="293.496564"/>
     <use style="fill:#1f77b4;stroke:#1f77b4;" x="161.927568" xlink:href="#md6618d0ad8" y="293.870358"/>
     <use style="fill:#1f77b4;stroke:#1f77b4;" x="162.059456" xlink:href="#md6618d0ad8" y="295.240939"/>
     <use style="fill:#1f77b4;stroke:#1f77b4;" x="163.246444" xlink:href="#md6618d0ad8" y="296.486922"/>
     <use style="fill:#1f77b4;stroke:#1f77b4;" x="164.169658" xlink:href="#md6618d0ad8" y="297.234512"/>
     <use style="fill:#1f77b4;stroke:#1f77b4;" x="164.433433" xlink:href="#md6618d0ad8" y="297.483708"/>
     <use style="fill:#1f77b4;stroke:#1f77b4;" x="165.620421" xlink:href="#md6618d0ad8" y="298.729691"/>
     <use style="fill:#1f77b4;stroke:#1f77b4;" x="167.33496" xlink:href="#md6618d0ad8" y="298.978888"/>
     <use style="fill:#1f77b4;stroke:#1f77b4;" x="167.466848" xlink:href="#md6618d0ad8" y="301.097058"/>
     <use style="fill:#1f77b4;stroke:#1f77b4;" x="168.785724" xlink:href="#md6618d0ad8" y="301.595451"/>
     <use style="fill:#1f77b4;stroke:#1f77b4;" x="168.917612" xlink:href="#md6618d0ad8" y="303.713622"/>
     <use style="fill:#1f77b4;stroke:#1f77b4;" x="170.1046" xlink:href="#md6618d0ad8" y="304.959604"/>
     <use style="fill:#1f77b4;stroke:#1f77b4;" x="172.87424" xlink:href="#md6618d0ad8" y="307.45157"/>
     <use style="fill:#1f77b4;stroke:#1f77b4;" x="175.248217" xlink:href="#md6618d0ad8" y="309.320544"/>
     <use style="fill:#1f77b4;stroke:#1f77b4;" x="177.490306" xlink:href="#md6618d0ad8" y="315.052064"/>
     <use style="fill:#1f77b4;stroke:#1f77b4;" x="181.446935" xlink:href="#md6618d0ad8" y="318.790012"/>
     <use style="fill:#1f77b4;stroke:#1f77b4;" x="186.326776" xlink:href="#md6618d0ad8" y="323.400148"/>
     <use style="fill:#1f77b4;stroke:#1f77b4;" x="187.381877" xlink:href="#md6618d0ad8" y="324.396934"/>
     <use style="fill:#1f77b4;stroke:#1f77b4;" x="191.470393" xlink:href="#md6618d0ad8" y="325.144524"/>
     <use style="fill:#1f77b4;stroke:#1f77b4;" x="193.053045" xlink:href="#md6618d0ad8" y="329.630062"/>
     <use style="fill:#1f77b4;stroke:#1f77b4;" x="194.108145" xlink:href="#md6618d0ad8" y="331.125241"/>
     <use style="fill:#1f77b4;stroke:#1f77b4;" x="197.009673" xlink:href="#md6618d0ad8" y="333.36801"/>
     <use style="fill:#1f77b4;stroke:#1f77b4;" x="198.064774" xlink:href="#md6618d0ad8" y="334.863189"/>
     <use style="fill:#1f77b4;stroke:#1f77b4;" x="203.472166" xlink:href="#md6618d0ad8" y="335.112386"/>
     <use style="fill:#1f77b4;stroke:#1f77b4;" x="204.395379" xlink:href="#md6618d0ad8" y="349.441187"/>
     <use style="fill:#1f77b4;stroke:#1f77b4;" x="205.318592" xlink:href="#md6618d0ad8" y="355.048109"/>
     <use style="fill:#1f77b4;stroke:#1f77b4;" x="209.275221" xlink:href="#md6618d0ad8" y="358.786057"/>
     <use style="fill:#1f77b4;stroke:#1f77b4;" x="212.836186" xlink:href="#md6618d0ad8" y="362.15021"/>
     <use style="fill:#1f77b4;stroke:#1f77b4;" x="214.155062" xlink:href="#md6618d0ad8" y="363.396193"/>
     <use style="fill:#1f77b4;stroke:#1f77b4;" x="215.210163" xlink:href="#md6618d0ad8" y="364.392979"/>
     <use style="fill:#1f77b4;stroke:#1f77b4;" x="216.792815" xlink:href="#md6618d0ad8" y="365.888158"/>
     <use style="fill:#1f77b4;stroke:#1f77b4;" x="222.727757" xlink:href="#md6618d0ad8" y="371.49508"/>
     <use style="fill:#1f77b4;stroke:#1f77b4;" x="227.475711" xlink:href="#md6618d0ad8" y="373.862447"/>
     <use style="fill:#1f77b4;stroke:#1f77b4;" x="229.058363" xlink:href="#md6618d0ad8" y="376.229815"/>
     <use style="fill:#1f77b4;stroke:#1f77b4;" x="229.585913" xlink:href="#md6618d0ad8" y="378.098789"/>
     <use style="fill:#1f77b4;stroke:#1f77b4;" x="232.355553" xlink:href="#md6618d0ad8" y="380.216959"/>
     <use style="fill:#1f77b4;stroke:#1f77b4;" x="233.542541" xlink:href="#md6618d0ad8" y="381.836737"/>
     <use style="fill:#1f77b4;stroke:#1f77b4;" x="236.312181" xlink:href="#md6618d0ad8" y="383.954907"/>
     <use style="fill:#1f77b4;stroke:#1f77b4;" x="237.103507" xlink:href="#md6618d0ad8" y="385.20089"/>
     <use style="fill:#1f77b4;stroke:#1f77b4;" x="238.422383" xlink:href="#md6618d0ad8" y="386.446873"/>
     <use style="fill:#1f77b4;stroke:#1f77b4;" x="239.081821" xlink:href="#md6618d0ad8" y="386.945266"/>
     <use style="fill:#1f77b4;stroke:#1f77b4;" x="239.477484" xlink:href="#md6618d0ad8" y="387.443659"/>
     <use style="fill:#1f77b4;stroke:#1f77b4;" x="241.060135" xlink:href="#md6618d0ad8" y="388.938838"/>
     <use style="fill:#1f77b4;stroke:#1f77b4;" x="241.323911" xlink:href="#md6618d0ad8" y="389.063436"/>
     <use style="fill:#1f77b4;stroke:#1f77b4;" x="242.247124" xlink:href="#md6618d0ad8" y="389.561829"/>
     <use style="fill:#1f77b4;stroke:#1f77b4;" x="242.379011" xlink:href="#md6618d0ad8" y="389.811026"/>
     <use style="fill:#1f77b4;stroke:#1f77b4;" x="243.434112" xlink:href="#md6618d0ad8" y="390.807812"/>
     <use style="fill:#1f77b4;stroke:#1f77b4;" x="243.829775" xlink:href="#md6618d0ad8" y="391.057009"/>
     <use style="fill:#1f77b4;stroke:#1f77b4;" x="245.016764" xlink:href="#md6618d0ad8" y="392.302991"/>
     <use style="fill:#1f77b4;stroke:#1f77b4;" x="245.939977" xlink:href="#md6618d0ad8" y="393.548974"/>
     <use style="fill:#1f77b4;stroke:#1f77b4;" x="246.599415" xlink:href="#md6618d0ad8" y="394.047367"/>
     <use style="fill:#1f77b4;stroke:#1f77b4;" x="246.995078" xlink:href="#md6618d0ad8" y="394.54576"/>
     <use style="fill:#1f77b4;stroke:#1f77b4;" x="247.918291" xlink:href="#md6618d0ad8" y="395.29335"/>
     <use style="fill:#1f77b4;stroke:#1f77b4;" x="249.896605" xlink:href="#md6618d0ad8" y="396.913127"/>
     <use style="fill:#1f77b4;stroke:#1f77b4;" x="250.556043" xlink:href="#md6618d0ad8" y="397.785315"/>
     <use style="fill:#1f77b4;stroke:#1f77b4;" x="250.951706" xlink:href="#md6618d0ad8" y="397.909913"/>
     <use style="fill:#1f77b4;stroke:#1f77b4;" x="254.776447" xlink:href="#md6618d0ad8" y="400.651075"/>
     <use style="fill:#1f77b4;stroke:#1f77b4;" x="255.435885" xlink:href="#md6618d0ad8" y="402.395451"/>
     <use style="fill:#1f77b4;stroke:#1f77b4;" x="255.69966" xlink:href="#md6618d0ad8" y="402.769246"/>
     <use style="fill:#1f77b4;stroke:#1f77b4;" x="256.490986" xlink:href="#md6618d0ad8" y="403.392237"/>
     <use style="fill:#1f77b4;stroke:#1f77b4;" x="258.073637" xlink:href="#md6618d0ad8" y="405.012015"/>
     <use style="fill:#1f77b4;stroke:#1f77b4;" x="259.656289" xlink:href="#md6618d0ad8" y="406.507194"/>
     <use style="fill:#1f77b4;stroke:#1f77b4;" x="263.217254" xlink:href="#md6618d0ad8" y="407.753177"/>
     <use style="fill:#1f77b4;stroke:#1f77b4;" x="263.349142" xlink:href="#md6618d0ad8" y="409.995946"/>
     <use style="fill:#1f77b4;stroke:#1f77b4;" x="264.53613" xlink:href="#md6618d0ad8" y="411.11733"/>
     <use style="fill:#1f77b4;stroke:#1f77b4;" x="265.591231" xlink:href="#md6618d0ad8" y="412.114116"/>
     <use style="fill:#1f77b4;stroke:#1f77b4;" x="267.30577" xlink:href="#md6618d0ad8" y="413.733894"/>
     <use style="fill:#1f77b4;stroke:#1f77b4;" x="270.866736" xlink:href="#md6618d0ad8" y="417.098047"/>
     <use style="fill:#1f77b4;stroke:#1f77b4;" x="272.185612" xlink:href="#md6618d0ad8" y="418.34403"/>
     <use style="fill:#1f77b4;stroke:#1f77b4;" x="273.240713" xlink:href="#md6618d0ad8" y="419.340816"/>
     <use style="fill:#1f77b4;stroke:#1f77b4;" x="274.032038" xlink:href="#md6618d0ad8" y="419.714611"/>
     <use style="fill:#1f77b4;stroke:#1f77b4;" x="274.823364" xlink:href="#md6618d0ad8" y="420.835995"/>
     <use style="fill:#1f77b4;stroke:#1f77b4;" x="279.703206" xlink:href="#md6618d0ad8" y="425.446131"/>
     <use style="fill:#1f77b4;stroke:#1f77b4;" x="280.758306" xlink:href="#md6618d0ad8" y="426.442917"/>
     <use style="fill:#1f77b4;stroke:#1f77b4;" x="288.407788" xlink:href="#md6618d0ad8" y="428.436489"/>
     <use style="fill:#1f77b4;stroke:#1f77b4;" x="289.990439" xlink:href="#md6618d0ad8" y="428.561088"/>
     <use style="fill:#1f77b4;stroke:#1f77b4;" x="291.968754" xlink:href="#md6618d0ad8" y="431.800643"/>
     <use style="fill:#1f77b4;stroke:#1f77b4;" x="293.28763" xlink:href="#md6618d0ad8" y="433.046625"/>
     <use style="fill:#1f77b4;stroke:#1f77b4;" x="294.342731" xlink:href="#md6618d0ad8" y="434.043412"/>
     <use style="fill:#1f77b4;stroke:#1f77b4;" x="295.925382" xlink:href="#md6618d0ad8" y="435.538591"/>
     <use style="fill:#1f77b4;stroke:#1f77b4;" x="299.222572" xlink:href="#md6618d0ad8" y="435.663189"/>
     <use style="fill:#1f77b4;stroke:#1f77b4;" x="300.277673" xlink:href="#md6618d0ad8" y="436.659975"/>
     <use style="fill:#1f77b4;stroke:#1f77b4;" x="300.673336" xlink:href="#md6618d0ad8" y="438.030556"/>
     <use style="fill:#1f77b4;stroke:#1f77b4;" x="300.805224" xlink:href="#md6618d0ad8" y="440.148727"/>
     <use style="fill:#1f77b4;stroke:#1f77b4;" x="301.860324" xlink:href="#md6618d0ad8" y="441.145513"/>
     <use style="fill:#1f77b4;stroke:#1f77b4;" x="304.893739" xlink:href="#md6618d0ad8" y="441.39471"/>
     <use style="fill:#1f77b4;stroke:#1f77b4;" x="305.157515" xlink:href="#md6618d0ad8" y="442.640692"/>
     <use style="fill:#1f77b4;stroke:#1f77b4;" x="306.212616" xlink:href="#md6618d0ad8" y="443.637478"/>
     <use style="fill:#1f77b4;stroke:#1f77b4;" x="309.773581" xlink:href="#md6618d0ad8" y="446.004845"/>
     <use style="fill:#1f77b4;stroke:#1f77b4;" x="310.828682" xlink:href="#md6618d0ad8" y="447.001632"/>
     <use style="fill:#1f77b4;stroke:#1f77b4;" x="316.236074" xlink:href="#md6618d0ad8" y="448.496811"/>
     <use style="fill:#1f77b4;stroke:#1f77b4;" x="317.291175" xlink:href="#md6618d0ad8" y="449.493597"/>
     <use style="fill:#1f77b4;stroke:#1f77b4;" x="328.237847" xlink:href="#md6618d0ad8" y="451.487169"/>
     <use style="fill:#1f77b4;stroke:#1f77b4;" x="334.70034" xlink:href="#md6618d0ad8" y="453.979135"/>
     <use style="fill:#1f77b4;stroke:#1f77b4;" x="335.755441" xlink:href="#md6618d0ad8" y="454.975921"/>
     <use style="fill:#1f77b4;stroke:#1f77b4;" x="343.668697" xlink:href="#md6618d0ad8" y="455.100519"/>
     <use style="fill:#1f77b4;stroke:#1f77b4;" x="349.735528" xlink:href="#md6618d0ad8" y="458.215476"/>
     <use style="fill:#1f77b4;stroke:#1f77b4;" x="352.637055" xlink:href="#md6618d0ad8" y="460.956638"/>
     <use style="fill:#1f77b4;stroke:#1f77b4;" x="359.099548" xlink:href="#md6618d0ad8" y="463.448603"/>
     <use style="fill:#1f77b4;stroke:#1f77b4;" x="371.101321" xlink:href="#md6618d0ad8" y="466.438962"/>
     <use style="fill:#1f77b4;stroke:#1f77b4;" x="377.563814" xlink:href="#md6618d0ad8" y="468.930927"/>
     <use style="fill:#1f77b4;stroke:#1f77b4;" x="391.807676" xlink:href="#md6618d0ad8" y="469.42932"/>
     <use style="fill:#1f77b4;stroke:#1f77b4;" x="392.467114" xlink:href="#md6618d0ad8" y="470.17691"/>
     <use style="fill:#1f77b4;stroke:#1f77b4;" x="396.159967" xlink:href="#md6618d0ad8" y="471.049098"/>
     <use style="fill:#1f77b4;stroke:#1f77b4;" x="400.644146" xlink:href="#md6618d0ad8" y="473.665661"/>
     <use style="fill:#1f77b4;stroke:#1f77b4;" x="406.842863" xlink:href="#md6618d0ad8" y="475.160841"/>
     <use style="fill:#1f77b4;stroke:#1f77b4;" x="407.502302" xlink:href="#md6618d0ad8" y="475.90843"/>
     <use style="fill:#1f77b4;stroke:#1f77b4;" x="414.624233" xlink:href="#md6618d0ad8" y="476.531422"/>
     <use style="fill:#1f77b4;stroke:#1f77b4;" x="425.307129" xlink:href="#md6618d0ad8" y="480.643164"/>
     <use style="fill:#1f77b4;stroke:#1f77b4;" x="425.966567" xlink:href="#md6618d0ad8" y="481.390754"/>
     <use style="fill:#1f77b4;stroke:#1f77b4;" x="443.903282" xlink:href="#md6618d0ad8" y="482.761335"/>
     <use style="fill:#1f77b4;stroke:#1f77b4;" x="444.56272" xlink:href="#md6618d0ad8" y="483.508925"/>
     <use style="fill:#1f77b4;stroke:#1f77b4;" x="448.387461" xlink:href="#md6618d0ad8" y="485.377899"/>
     <use style="fill:#1f77b4;stroke:#1f77b4;" x="449.046899" xlink:href="#md6618d0ad8" y="486.125488"/>
     <use style="fill:#1f77b4;stroke:#1f77b4;" x="462.367548" xlink:href="#md6618d0ad8" y="488.243659"/>
     <use style="fill:#1f77b4;stroke:#1f77b4;" x="463.026986" xlink:href="#md6618d0ad8" y="488.991248"/>
     <use style="fill:#1f77b4;stroke:#1f77b4;" x="484.129004" xlink:href="#md6618d0ad8" y="489.61424"/>
     <use style="fill:#1f77b4;stroke:#1f77b4;" x="493.493024" xlink:href="#md6618d0ad8" y="490.860222"/>
     <use style="fill:#1f77b4;stroke:#1f77b4;" x="498.109091" xlink:href="#md6618d0ad8" y="492.48"/>
    </g>
   </g>
   <g id="matplotlib.axis_1">
    <g id="xtick_1">
     <g id="line2d_1">
      <defs>
       <path d="M 0 0 
L 0 3.5 
" id="m2e26d69cf5" style="stroke:#000000;stroke-width:0.8;"/>
      </defs>
      <g>
       <use style="stroke:#000000;stroke-width:0.8;" x="100.204166" xlink:href="#m2e26d69cf5" y="512.64"/>
      </g>
     </g>
     <g id="text_1">
      <!-- 1050 -->
      <g transform="translate(83.661666 529.517969)scale(0.13 -0.13)">
       <defs>
        <path d="M 12.40625 8.296875 
L 28.515625 8.296875 
L 28.515625 63.921875 
L 10.984375 60.40625 
L 10.984375 69.390625 
L 28.421875 72.90625 
L 38.28125 72.90625 
L 38.28125 8.296875 
L 54.390625 8.296875 
L 54.390625 0 
L 12.40625 0 
z
" id="DejaVuSans-49"/>
        <path d="M 31.78125 66.40625 
Q 24.171875 66.40625 20.328125 58.90625 
Q 16.5 51.421875 16.5 36.375 
Q 16.5 21.390625 20.328125 13.890625 
Q 24.171875 6.390625 31.78125 6.390625 
Q 39.453125 6.390625 43.28125 13.890625 
Q 47.125 21.390625 47.125 36.375 
Q 47.125 51.421875 43.28125 58.90625 
Q 39.453125 66.40625 31.78125 66.40625 
z
M 31.78125 74.21875 
Q 44.046875 74.21875 50.515625 64.515625 
Q 56.984375 54.828125 56.984375 36.375 
Q 56.984375 17.96875 50.515625 8.265625 
Q 44.046875 -1.421875 31.78125 -1.421875 
Q 19.53125 -1.421875 13.0625 8.265625 
Q 6.59375 17.96875 6.59375 36.375 
Q 6.59375 54.828125 13.0625 64.515625 
Q 19.53125 74.21875 31.78125 74.21875 
z
" id="DejaVuSans-48"/>
        <path d="M 10.796875 72.90625 
L 49.515625 72.90625 
L 49.515625 64.59375 
L 19.828125 64.59375 
L 19.828125 46.734375 
Q 21.96875 47.46875 24.109375 47.828125 
Q 26.265625 48.1875 28.421875 48.1875 
Q 40.625 48.1875 47.75 41.5 
Q 54.890625 34.8125 54.890625 23.390625 
Q 54.890625 11.625 47.5625 5.09375 
Q 40.234375 -1.421875 26.90625 -1.421875 
Q 22.3125 -1.421875 17.546875 -0.640625 
Q 12.796875 0.140625 7.71875 1.703125 
L 7.71875 11.625 
Q 12.109375 9.234375 16.796875 8.0625 
Q 21.484375 6.890625 26.703125 6.890625 
Q 35.15625 6.890625 40.078125 11.328125 
Q 45.015625 15.765625 45.015625 23.390625 
Q 45.015625 31 40.078125 35.4375 
Q 35.15625 39.890625 26.703125 39.890625 
Q 22.75 39.890625 18.8125 39.015625 
Q 14.890625 38.140625 10.796875 36.28125 
z
" id="DejaVuSans-53"/>
       </defs>
       <use xlink:href="#DejaVuSans-49"/>
       <use x="63.623047" xlink:href="#DejaVuSans-48"/>
       <use x="127.246094" xlink:href="#DejaVuSans-53"/>
       <use x="190.869141" xlink:href="#DejaVuSans-48"/>
      </g>
     </g>
    </g>
    <g id="xtick_2">
     <g id="line2d_2">
      <g>
       <use style="stroke:#000000;stroke-width:0.8;" x="166.147972" xlink:href="#m2e26d69cf5" y="512.64"/>
      </g>
     </g>
     <g id="text_2">
      <!-- 1100 -->
      <g transform="translate(149.605472 529.517969)scale(0.13 -0.13)">
       <use xlink:href="#DejaVuSans-49"/>
       <use x="63.623047" xlink:href="#DejaVuSans-49"/>
       <use x="127.246094" xlink:href="#DejaVuSans-48"/>
       <use x="190.869141" xlink:href="#DejaVuSans-48"/>
      </g>
     </g>
    </g>
    <g id="xtick_3">
     <g id="line2d_3">
      <g>
       <use style="stroke:#000000;stroke-width:0.8;" x="232.091778" xlink:href="#m2e26d69cf5" y="512.64"/>
      </g>
     </g>
     <g id="text_3">
      <!-- 1150 -->
      <g transform="translate(215.549278 529.517969)scale(0.13 -0.13)">
       <use xlink:href="#DejaVuSans-49"/>
       <use x="63.623047" xlink:href="#DejaVuSans-49"/>
       <use x="127.246094" xlink:href="#DejaVuSans-53"/>
       <use x="190.869141" xlink:href="#DejaVuSans-48"/>
      </g>
     </g>
    </g>
    <g id="xtick_4">
     <g id="line2d_4">
      <g>
       <use style="stroke:#000000;stroke-width:0.8;" x="298.035584" xlink:href="#m2e26d69cf5" y="512.64"/>
      </g>
     </g>
     <g id="text_4">
      <!-- 1200 -->
      <g transform="translate(281.493084 529.517969)scale(0.13 -0.13)">
       <defs>
        <path d="M 19.1875 8.296875 
L 53.609375 8.296875 
L 53.609375 0 
L 7.328125 0 
L 7.328125 8.296875 
Q 12.9375 14.109375 22.625 23.890625 
Q 32.328125 33.6875 34.8125 36.53125 
Q 39.546875 41.84375 41.421875 45.53125 
Q 43.3125 49.21875 43.3125 52.78125 
Q 43.3125 58.59375 39.234375 62.25 
Q 35.15625 65.921875 28.609375 65.921875 
Q 23.96875 65.921875 18.8125 64.3125 
Q 13.671875 62.703125 7.8125 59.421875 
L 7.8125 69.390625 
Q 13.765625 71.78125 18.9375 73 
Q 24.125 74.21875 28.421875 74.21875 
Q 39.75 74.21875 46.484375 68.546875 
Q 53.21875 62.890625 53.21875 53.421875 
Q 53.21875 48.921875 51.53125 44.890625 
Q 49.859375 40.875 45.40625 35.40625 
Q 44.1875 33.984375 37.640625 27.21875 
Q 31.109375 20.453125 19.1875 8.296875 
z
" id="DejaVuSans-50"/>
       </defs>
       <use xlink:href="#DejaVuSans-49"/>
       <use x="63.623047" xlink:href="#DejaVuSans-50"/>
       <use x="127.246094" xlink:href="#DejaVuSans-48"/>
       <use x="190.869141" xlink:href="#DejaVuSans-48"/>
      </g>
     </g>
    </g>
    <g id="xtick_5">
     <g id="line2d_5">
      <g>
       <use style="stroke:#000000;stroke-width:0.8;" x="363.97939" xlink:href="#m2e26d69cf5" y="512.64"/>
      </g>
     </g>
     <g id="text_5">
      <!-- 1250 -->
      <g transform="translate(347.43689 529.517969)scale(0.13 -0.13)">
       <use xlink:href="#DejaVuSans-49"/>
       <use x="63.623047" xlink:href="#DejaVuSans-50"/>
       <use x="127.246094" xlink:href="#DejaVuSans-53"/>
       <use x="190.869141" xlink:href="#DejaVuSans-48"/>
      </g>
     </g>
    </g>
    <g id="xtick_6">
     <g id="line2d_6">
      <g>
       <use style="stroke:#000000;stroke-width:0.8;" x="429.923196" xlink:href="#m2e26d69cf5" y="512.64"/>
      </g>
     </g>
     <g id="text_6">
      <!-- 1300 -->
      <g transform="translate(413.380696 529.517969)scale(0.13 -0.13)">
       <defs>
        <path d="M 40.578125 39.3125 
Q 47.65625 37.796875 51.625 33 
Q 55.609375 28.21875 55.609375 21.1875 
Q 55.609375 10.40625 48.1875 4.484375 
Q 40.765625 -1.421875 27.09375 -1.421875 
Q 22.515625 -1.421875 17.65625 -0.515625 
Q 12.796875 0.390625 7.625 2.203125 
L 7.625 11.71875 
Q 11.71875 9.328125 16.59375 8.109375 
Q 21.484375 6.890625 26.8125 6.890625 
Q 36.078125 6.890625 40.9375 10.546875 
Q 45.796875 14.203125 45.796875 21.1875 
Q 45.796875 27.640625 41.28125 31.265625 
Q 36.765625 34.90625 28.71875 34.90625 
L 20.21875 34.90625 
L 20.21875 43.015625 
L 29.109375 43.015625 
Q 36.375 43.015625 40.234375 45.921875 
Q 44.09375 48.828125 44.09375 54.296875 
Q 44.09375 59.90625 40.109375 62.90625 
Q 36.140625 65.921875 28.71875 65.921875 
Q 24.65625 65.921875 20.015625 65.03125 
Q 15.375 64.15625 9.8125 62.3125 
L 9.8125 71.09375 
Q 15.4375 72.65625 20.34375 73.4375 
Q 25.25 74.21875 29.59375 74.21875 
Q 40.828125 74.21875 47.359375 69.109375 
Q 53.90625 64.015625 53.90625 55.328125 
Q 53.90625 49.265625 50.4375 45.09375 
Q 46.96875 40.921875 40.578125 39.3125 
z
" id="DejaVuSans-51"/>
       </defs>
       <use xlink:href="#DejaVuSans-49"/>
       <use x="63.623047" xlink:href="#DejaVuSans-51"/>
       <use x="127.246094" xlink:href="#DejaVuSans-48"/>
       <use x="190.869141" xlink:href="#DejaVuSans-48"/>
      </g>
     </g>
    </g>
    <g id="xtick_7">
     <g id="line2d_7">
      <g>
       <use style="stroke:#000000;stroke-width:0.8;" x="495.867002" xlink:href="#m2e26d69cf5" y="512.64"/>
      </g>
     </g>
     <g id="text_7">
      <!-- 1350 -->
      <g transform="translate(479.324502 529.517969)scale(0.13 -0.13)">
       <use xlink:href="#DejaVuSans-49"/>
       <use x="63.623047" xlink:href="#DejaVuSans-51"/>
       <use x="127.246094" xlink:href="#DejaVuSans-53"/>
       <use x="190.869141" xlink:href="#DejaVuSans-48"/>
      </g>
     </g>
    </g>
    <g id="text_8">
     <!-- Total traveled distance -->
     <g transform="translate(210.004687 547.619219)scale(0.15 -0.15)">
      <defs>
       <path d="M -0.296875 72.90625 
L 61.375 72.90625 
L 61.375 64.59375 
L 35.5 64.59375 
L 35.5 0 
L 25.59375 0 
L 25.59375 64.59375 
L -0.296875 64.59375 
z
" id="DejaVuSans-84"/>
       <path d="M 30.609375 48.390625 
Q 23.390625 48.390625 19.1875 42.75 
Q 14.984375 37.109375 14.984375 27.296875 
Q 14.984375 17.484375 19.15625 11.84375 
Q 23.34375 6.203125 30.609375 6.203125 
Q 37.796875 6.203125 41.984375 11.859375 
Q 46.1875 17.53125 46.1875 27.296875 
Q 46.1875 37.015625 41.984375 42.703125 
Q 37.796875 48.390625 30.609375 48.390625 
z
M 30.609375 56 
Q 42.328125 56 49.015625 48.375 
Q 55.71875 40.765625 55.71875 27.296875 
Q 55.71875 13.875 49.015625 6.21875 
Q 42.328125 -1.421875 30.609375 -1.421875 
Q 18.84375 -1.421875 12.171875 6.21875 
Q 5.515625 13.875 5.515625 27.296875 
Q 5.515625 40.765625 12.171875 48.375 
Q 18.84375 56 30.609375 56 
z
" id="DejaVuSans-111"/>
       <path d="M 18.3125 70.21875 
L 18.3125 54.6875 
L 36.8125 54.6875 
L 36.8125 47.703125 
L 18.3125 47.703125 
L 18.3125 18.015625 
Q 18.3125 11.328125 20.140625 9.421875 
Q 21.96875 7.515625 27.59375 7.515625 
L 36.8125 7.515625 
L 36.8125 0 
L 27.59375 0 
Q 17.1875 0 13.234375 3.875 
Q 9.28125 7.765625 9.28125 18.015625 
L 9.28125 47.703125 
L 2.6875 47.703125 
L 2.6875 54.6875 
L 9.28125 54.6875 
L 9.28125 70.21875 
z
" id="DejaVuSans-116"/>
       <path d="M 34.28125 27.484375 
Q 23.390625 27.484375 19.1875 25 
Q 14.984375 22.515625 14.984375 16.5 
Q 14.984375 11.71875 18.140625 8.90625 
Q 21.296875 6.109375 26.703125 6.109375 
Q 34.1875 6.109375 38.703125 11.40625 
Q 43.21875 16.703125 43.21875 25.484375 
L 43.21875 27.484375 
z
M 52.203125 31.203125 
L 52.203125 0 
L 43.21875 0 
L 43.21875 8.296875 
Q 40.140625 3.328125 35.546875 0.953125 
Q 30.953125 -1.421875 24.3125 -1.421875 
Q 15.921875 -1.421875 10.953125 3.296875 
Q 6 8.015625 6 15.921875 
Q 6 25.140625 12.171875 29.828125 
Q 18.359375 34.515625 30.609375 34.515625 
L 43.21875 34.515625 
L 43.21875 35.40625 
Q 43.21875 41.609375 39.140625 45 
Q 35.0625 48.390625 27.6875 48.390625 
Q 23 48.390625 18.546875 47.265625 
Q 14.109375 46.140625 10.015625 43.890625 
L 10.015625 52.203125 
Q 14.9375 54.109375 19.578125 55.046875 
Q 24.21875 56 28.609375 56 
Q 40.484375 56 46.34375 49.84375 
Q 52.203125 43.703125 52.203125 31.203125 
z
" id="DejaVuSans-97"/>
       <path d="M 9.421875 75.984375 
L 18.40625 75.984375 
L 18.40625 0 
L 9.421875 0 
z
" id="DejaVuSans-108"/>
       <path id="DejaVuSans-32"/>
       <path d="M 41.109375 46.296875 
Q 39.59375 47.171875 37.8125 47.578125 
Q 36.03125 48 33.890625 48 
Q 26.265625 48 22.1875 43.046875 
Q 18.109375 38.09375 18.109375 28.8125 
L 18.109375 0 
L 9.078125 0 
L 9.078125 54.6875 
L 18.109375 54.6875 
L 18.109375 46.1875 
Q 20.953125 51.171875 25.484375 53.578125 
Q 30.03125 56 36.53125 56 
Q 37.453125 56 38.578125 55.875 
Q 39.703125 55.765625 41.0625 55.515625 
z
" id="DejaVuSans-114"/>
       <path d="M 2.984375 54.6875 
L 12.5 54.6875 
L 29.59375 8.796875 
L 46.6875 54.6875 
L 56.203125 54.6875 
L 35.6875 0 
L 23.484375 0 
z
" id="DejaVuSans-118"/>
       <path d="M 56.203125 29.59375 
L 56.203125 25.203125 
L 14.890625 25.203125 
Q 15.484375 15.921875 20.484375 11.0625 
Q 25.484375 6.203125 34.421875 6.203125 
Q 39.59375 6.203125 44.453125 7.46875 
Q 49.3125 8.734375 54.109375 11.28125 
L 54.109375 2.78125 
Q 49.265625 0.734375 44.1875 -0.34375 
Q 39.109375 -1.421875 33.890625 -1.421875 
Q 20.796875 -1.421875 13.15625 6.1875 
Q 5.515625 13.8125 5.515625 26.8125 
Q 5.515625 40.234375 12.765625 48.109375 
Q 20.015625 56 32.328125 56 
Q 43.359375 56 49.78125 48.890625 
Q 56.203125 41.796875 56.203125 29.59375 
z
M 47.21875 32.234375 
Q 47.125 39.59375 43.09375 43.984375 
Q 39.0625 48.390625 32.421875 48.390625 
Q 24.90625 48.390625 20.390625 44.140625 
Q 15.875 39.890625 15.1875 32.171875 
z
" id="DejaVuSans-101"/>
       <path d="M 45.40625 46.390625 
L 45.40625 75.984375 
L 54.390625 75.984375 
L 54.390625 0 
L 45.40625 0 
L 45.40625 8.203125 
Q 42.578125 3.328125 38.25 0.953125 
Q 33.9375 -1.421875 27.875 -1.421875 
Q 17.96875 -1.421875 11.734375 6.484375 
Q 5.515625 14.40625 5.515625 27.296875 
Q 5.515625 40.1875 11.734375 48.09375 
Q 17.96875 56 27.875 56 
Q 33.9375 56 38.25 53.625 
Q 42.578125 51.265625 45.40625 46.390625 
z
M 14.796875 27.296875 
Q 14.796875 17.390625 18.875 11.75 
Q 22.953125 6.109375 30.078125 6.109375 
Q 37.203125 6.109375 41.296875 11.75 
Q 45.40625 17.390625 45.40625 27.296875 
Q 45.40625 37.203125 41.296875 42.84375 
Q 37.203125 48.484375 30.078125 48.484375 
Q 22.953125 48.484375 18.875 42.84375 
Q 14.796875 37.203125 14.796875 27.296875 
z
" id="DejaVuSans-100"/>
       <path d="M 9.421875 54.6875 
L 18.40625 54.6875 
L 18.40625 0 
L 9.421875 0 
z
M 9.421875 75.984375 
L 18.40625 75.984375 
L 18.40625 64.59375 
L 9.421875 64.59375 
z
" id="DejaVuSans-105"/>
       <path d="M 44.28125 53.078125 
L 44.28125 44.578125 
Q 40.484375 46.53125 36.375 47.5 
Q 32.28125 48.484375 27.875 48.484375 
Q 21.1875 48.484375 17.84375 46.4375 
Q 14.5 44.390625 14.5 40.28125 
Q 14.5 37.15625 16.890625 35.375 
Q 19.28125 33.59375 26.515625 31.984375 
L 29.59375 31.296875 
Q 39.15625 29.25 43.1875 25.515625 
Q 47.21875 21.78125 47.21875 15.09375 
Q 47.21875 7.46875 41.1875 3.015625 
Q 35.15625 -1.421875 24.609375 -1.421875 
Q 20.21875 -1.421875 15.453125 -0.5625 
Q 10.6875 0.296875 5.421875 2 
L 5.421875 11.28125 
Q 10.40625 8.6875 15.234375 7.390625 
Q 20.0625 6.109375 24.8125 6.109375 
Q 31.15625 6.109375 34.5625 8.28125 
Q 37.984375 10.453125 37.984375 14.40625 
Q 37.984375 18.0625 35.515625 20.015625 
Q 33.0625 21.96875 24.703125 23.78125 
L 21.578125 24.515625 
Q 13.234375 26.265625 9.515625 29.90625 
Q 5.8125 33.546875 5.8125 39.890625 
Q 5.8125 47.609375 11.28125 51.796875 
Q 16.75 56 26.8125 56 
Q 31.78125 56 36.171875 55.265625 
Q 40.578125 54.546875 44.28125 53.078125 
z
" id="DejaVuSans-115"/>
       <path d="M 54.890625 33.015625 
L 54.890625 0 
L 45.90625 0 
L 45.90625 32.71875 
Q 45.90625 40.484375 42.875 44.328125 
Q 39.84375 48.1875 33.796875 48.1875 
Q 26.515625 48.1875 22.3125 43.546875 
Q 18.109375 38.921875 18.109375 30.90625 
L 18.109375 0 
L 9.078125 0 
L 9.078125 54.6875 
L 18.109375 54.6875 
L 18.109375 46.1875 
Q 21.34375 51.125 25.703125 53.5625 
Q 30.078125 56 35.796875 56 
Q 45.21875 56 50.046875 50.171875 
Q 54.890625 44.34375 54.890625 33.015625 
z
" id="DejaVuSans-110"/>
       <path d="M 48.78125 52.59375 
L 48.78125 44.1875 
Q 44.96875 46.296875 41.140625 47.34375 
Q 37.3125 48.390625 33.40625 48.390625 
Q 24.65625 48.390625 19.8125 42.84375 
Q 14.984375 37.3125 14.984375 27.296875 
Q 14.984375 17.28125 19.8125 11.734375 
Q 24.65625 6.203125 33.40625 6.203125 
Q 37.3125 6.203125 41.140625 7.25 
Q 44.96875 8.296875 48.78125 10.40625 
L 48.78125 2.09375 
Q 45.015625 0.34375 40.984375 -0.53125 
Q 36.96875 -1.421875 32.421875 -1.421875 
Q 20.0625 -1.421875 12.78125 6.34375 
Q 5.515625 14.109375 5.515625 27.296875 
Q 5.515625 40.671875 12.859375 48.328125 
Q 20.21875 56 33.015625 56 
Q 37.15625 56 41.109375 55.140625 
Q 45.0625 54.296875 48.78125 52.59375 
z
" id="DejaVuSans-99"/>
      </defs>
      <use xlink:href="#DejaVuSans-84"/>
      <use x="44.083984" xlink:href="#DejaVuSans-111"/>
      <use x="105.265625" xlink:href="#DejaVuSans-116"/>
      <use x="144.474609" xlink:href="#DejaVuSans-97"/>
      <use x="205.753906" xlink:href="#DejaVuSans-108"/>
      <use x="233.537109" xlink:href="#DejaVuSans-32"/>
      <use x="265.324219" xlink:href="#DejaVuSans-116"/>
      <use x="304.533203" xlink:href="#DejaVuSans-114"/>
      <use x="345.646484" xlink:href="#DejaVuSans-97"/>
      <use x="406.925781" xlink:href="#DejaVuSans-118"/>
      <use x="466.105469" xlink:href="#DejaVuSans-101"/>
      <use x="527.628906" xlink:href="#DejaVuSans-108"/>
      <use x="555.412109" xlink:href="#DejaVuSans-101"/>
      <use x="616.935547" xlink:href="#DejaVuSans-100"/>
      <use x="680.412109" xlink:href="#DejaVuSans-32"/>
      <use x="712.199219" xlink:href="#DejaVuSans-100"/>
      <use x="775.675781" xlink:href="#DejaVuSans-105"/>
      <use x="803.458984" xlink:href="#DejaVuSans-115"/>
      <use x="855.558594" xlink:href="#DejaVuSans-116"/>
      <use x="894.767578" xlink:href="#DejaVuSans-97"/>
      <use x="956.046875" xlink:href="#DejaVuSans-110"/>
      <use x="1019.425781" xlink:href="#DejaVuSans-99"/>
      <use x="1074.40625" xlink:href="#DejaVuSans-101"/>
     </g>
    </g>
   </g>
   <g id="matplotlib.axis_2">
    <g id="ytick_1">
     <g id="line2d_8">
      <defs>
       <path d="M 0 0 
L -3.5 0 
" id="mc1312b2b40" style="stroke:#000000;stroke-width:0.8;"/>
      </defs>
      <g>
       <use style="stroke:#000000;stroke-width:0.8;" x="72" xlink:href="#mc1312b2b40" y="492.48"/>
      </g>
     </g>
     <g id="text_9">
      <!-- 0 -->
      <g transform="translate(56.72875 497.418984)scale(0.13 -0.13)">
       <use xlink:href="#DejaVuSans-48"/>
      </g>
     </g>
    </g>
    <g id="ytick_2">
     <g id="line2d_9">
      <g>
       <use style="stroke:#000000;stroke-width:0.8;" x="72" xlink:href="#mc1312b2b40" y="430.180865"/>
      </g>
     </g>
     <g id="text_10">
      <!-- 50 -->
      <g transform="translate(48.4575 435.11985)scale(0.13 -0.13)">
       <use xlink:href="#DejaVuSans-53"/>
       <use x="63.623047" xlink:href="#DejaVuSans-48"/>
      </g>
     </g>
    </g>
    <g id="ytick_3">
     <g id="line2d_10">
      <g>
       <use style="stroke:#000000;stroke-width:0.8;" x="72" xlink:href="#mc1312b2b40" y="367.881731"/>
      </g>
     </g>
     <g id="text_11">
      <!-- 100 -->
      <g transform="translate(40.18625 372.820715)scale(0.13 -0.13)">
       <use xlink:href="#DejaVuSans-49"/>
       <use x="63.623047" xlink:href="#DejaVuSans-48"/>
       <use x="127.246094" xlink:href="#DejaVuSans-48"/>
      </g>
     </g>
    </g>
    <g id="ytick_4">
     <g id="line2d_11">
      <g>
       <use style="stroke:#000000;stroke-width:0.8;" x="72" xlink:href="#mc1312b2b40" y="305.582596"/>
      </g>
     </g>
     <g id="text_12">
      <!-- 150 -->
      <g transform="translate(40.18625 310.52158)scale(0.13 -0.13)">
       <use xlink:href="#DejaVuSans-49"/>
       <use x="63.623047" xlink:href="#DejaVuSans-53"/>
       <use x="127.246094" xlink:href="#DejaVuSans-48"/>
      </g>
     </g>
    </g>
    <g id="ytick_5">
     <g id="line2d_12">
      <g>
       <use style="stroke:#000000;stroke-width:0.8;" x="72" xlink:href="#mc1312b2b40" y="243.283461"/>
      </g>
     </g>
     <g id="text_13">
      <!-- 200 -->
      <g transform="translate(40.18625 248.222445)scale(0.13 -0.13)">
       <use xlink:href="#DejaVuSans-50"/>
       <use x="63.623047" xlink:href="#DejaVuSans-48"/>
       <use x="127.246094" xlink:href="#DejaVuSans-48"/>
      </g>
     </g>
    </g>
    <g id="ytick_6">
     <g id="line2d_13">
      <g>
       <use style="stroke:#000000;stroke-width:0.8;" x="72" xlink:href="#mc1312b2b40" y="180.984326"/>
      </g>
     </g>
     <g id="text_14">
      <!-- 250 -->
      <g transform="translate(40.18625 185.923311)scale(0.13 -0.13)">
       <use xlink:href="#DejaVuSans-50"/>
       <use x="63.623047" xlink:href="#DejaVuSans-53"/>
       <use x="127.246094" xlink:href="#DejaVuSans-48"/>
      </g>
     </g>
    </g>
    <g id="ytick_7">
     <g id="line2d_14">
      <g>
       <use style="stroke:#000000;stroke-width:0.8;" x="72" xlink:href="#mc1312b2b40" y="118.685192"/>
      </g>
     </g>
     <g id="text_15">
      <!-- 300 -->
      <g transform="translate(40.18625 123.624176)scale(0.13 -0.13)">
       <use xlink:href="#DejaVuSans-51"/>
       <use x="63.623047" xlink:href="#DejaVuSans-48"/>
       <use x="127.246094" xlink:href="#DejaVuSans-48"/>
      </g>
     </g>
    </g>
    <g id="text_16">
     <!-- Total waiting time -->
     <g transform="translate(33.066719 357.457734)rotate(-90)scale(0.15 -0.15)">
      <defs>
       <path d="M 4.203125 54.6875 
L 13.1875 54.6875 
L 24.421875 12.015625 
L 35.59375 54.6875 
L 46.1875 54.6875 
L 57.421875 12.015625 
L 68.609375 54.6875 
L 77.59375 54.6875 
L 63.28125 0 
L 52.6875 0 
L 40.921875 44.828125 
L 29.109375 0 
L 18.5 0 
z
" id="DejaVuSans-119"/>
       <path d="M 45.40625 27.984375 
Q 45.40625 37.75 41.375 43.109375 
Q 37.359375 48.484375 30.078125 48.484375 
Q 22.859375 48.484375 18.828125 43.109375 
Q 14.796875 37.75 14.796875 27.984375 
Q 14.796875 18.265625 18.828125 12.890625 
Q 22.859375 7.515625 30.078125 7.515625 
Q 37.359375 7.515625 41.375 12.890625 
Q 45.40625 18.265625 45.40625 27.984375 
z
M 54.390625 6.78125 
Q 54.390625 -7.171875 48.1875 -13.984375 
Q 42 -20.796875 29.203125 -20.796875 
Q 24.46875 -20.796875 20.265625 -20.09375 
Q 16.0625 -19.390625 12.109375 -17.921875 
L 12.109375 -9.1875 
Q 16.0625 -11.328125 19.921875 -12.34375 
Q 23.78125 -13.375 27.78125 -13.375 
Q 36.625 -13.375 41.015625 -8.765625 
Q 45.40625 -4.15625 45.40625 5.171875 
L 45.40625 9.625 
Q 42.625 4.78125 38.28125 2.390625 
Q 33.9375 0 27.875 0 
Q 17.828125 0 11.671875 7.65625 
Q 5.515625 15.328125 5.515625 27.984375 
Q 5.515625 40.671875 11.671875 48.328125 
Q 17.828125 56 27.875 56 
Q 33.9375 56 38.28125 53.609375 
Q 42.625 51.21875 45.40625 46.390625 
L 45.40625 54.6875 
L 54.390625 54.6875 
z
" id="DejaVuSans-103"/>
       <path d="M 52 44.1875 
Q 55.375 50.25 60.0625 53.125 
Q 64.75 56 71.09375 56 
Q 79.640625 56 84.28125 50.015625 
Q 88.921875 44.046875 88.921875 33.015625 
L 88.921875 0 
L 79.890625 0 
L 79.890625 32.71875 
Q 79.890625 40.578125 77.09375 44.375 
Q 74.3125 48.1875 68.609375 48.1875 
Q 61.625 48.1875 57.5625 43.546875 
Q 53.515625 38.921875 53.515625 30.90625 
L 53.515625 0 
L 44.484375 0 
L 44.484375 32.71875 
Q 44.484375 40.625 41.703125 44.40625 
Q 38.921875 48.1875 33.109375 48.1875 
Q 26.21875 48.1875 22.15625 43.53125 
Q 18.109375 38.875 18.109375 30.90625 
L 18.109375 0 
L 9.078125 0 
L 9.078125 54.6875 
L 18.109375 54.6875 
L 18.109375 46.1875 
Q 21.1875 51.21875 25.484375 53.609375 
Q 29.78125 56 35.6875 56 
Q 41.65625 56 45.828125 52.96875 
Q 50 49.953125 52 44.1875 
z
" id="DejaVuSans-109"/>
      </defs>
      <use xlink:href="#DejaVuSans-84"/>
      <use x="44.083984" xlink:href="#DejaVuSans-111"/>
      <use x="105.265625" xlink:href="#DejaVuSans-116"/>
      <use x="144.474609" xlink:href="#DejaVuSans-97"/>
      <use x="205.753906" xlink:href="#DejaVuSans-108"/>
      <use x="233.537109" xlink:href="#DejaVuSans-32"/>
      <use x="265.324219" xlink:href="#DejaVuSans-119"/>
      <use x="347.111328" xlink:href="#DejaVuSans-97"/>
      <use x="408.390625" xlink:href="#DejaVuSans-105"/>
      <use x="436.173828" xlink:href="#DejaVuSans-116"/>
      <use x="475.382812" xlink:href="#DejaVuSans-105"/>
      <use x="503.166016" xlink:href="#DejaVuSans-110"/>
      <use x="566.544922" xlink:href="#DejaVuSans-103"/>
      <use x="630.021484" xlink:href="#DejaVuSans-32"/>
      <use x="661.808594" xlink:href="#DejaVuSans-116"/>
      <use x="701.017578" xlink:href="#DejaVuSans-105"/>
      <use x="728.800781" xlink:href="#DejaVuSans-109"/>
      <use x="826.212891" xlink:href="#DejaVuSans-101"/>
     </g>
    </g>
   </g>
   <g id="patch_3">
    <path d="M 72 512.64 
L 72 69.12 
" style="fill:none;stroke:#000000;stroke-linecap:square;stroke-linejoin:miter;stroke-width:0.8;"/>
   </g>
   <g id="patch_4">
    <path d="M 518.4 512.64 
L 518.4 69.12 
" style="fill:none;stroke:#000000;stroke-linecap:square;stroke-linejoin:miter;stroke-width:0.8;"/>
   </g>
   <g id="patch_5">
    <path d="M 72 512.64 
L 518.4 512.64 
" style="fill:none;stroke:#000000;stroke-linecap:square;stroke-linejoin:miter;stroke-width:0.8;"/>
   </g>
   <g id="patch_6">
    <path d="M 72 69.12 
L 518.4 69.12 
" style="fill:none;stroke:#000000;stroke-linecap:square;stroke-linejoin:miter;stroke-width:0.8;"/>
   </g>
   <g id="text_17">
    <!-- Pareto-front of R101-50 -->
    <g transform="translate(206.903906 63.12)scale(0.15 -0.15)">
     <defs>
      <path d="M 19.671875 64.796875 
L 19.671875 37.40625 
L 32.078125 37.40625 
Q 38.96875 37.40625 42.71875 40.96875 
Q 46.484375 44.53125 46.484375 51.125 
Q 46.484375 57.671875 42.71875 61.234375 
Q 38.96875 64.796875 32.078125 64.796875 
z
M 9.8125 72.90625 
L 32.078125 72.90625 
Q 44.34375 72.90625 50.609375 67.359375 
Q 56.890625 61.8125 56.890625 51.125 
Q 56.890625 40.328125 50.609375 34.8125 
Q 44.34375 29.296875 32.078125 29.296875 
L 19.671875 29.296875 
L 19.671875 0 
L 9.8125 0 
z
" id="DejaVuSans-80"/>
      <path d="M 4.890625 31.390625 
L 31.203125 31.390625 
L 31.203125 23.390625 
L 4.890625 23.390625 
z
" id="DejaVuSans-45"/>
      <path d="M 37.109375 75.984375 
L 37.109375 68.5 
L 28.515625 68.5 
Q 23.6875 68.5 21.796875 66.546875 
Q 19.921875 64.59375 19.921875 59.515625 
L 19.921875 54.6875 
L 34.71875 54.6875 
L 34.71875 47.703125 
L 19.921875 47.703125 
L 19.921875 0 
L 10.890625 0 
L 10.890625 47.703125 
L 2.296875 47.703125 
L 2.296875 54.6875 
L 10.890625 54.6875 
L 10.890625 58.5 
Q 10.890625 67.625 15.140625 71.796875 
Q 19.390625 75.984375 28.609375 75.984375 
z
" id="DejaVuSans-102"/>
      <path d="M 44.390625 34.1875 
Q 47.5625 33.109375 50.5625 29.59375 
Q 53.5625 26.078125 56.59375 19.921875 
L 66.609375 0 
L 56 0 
L 46.6875 18.703125 
Q 43.0625 26.03125 39.671875 28.421875 
Q 36.28125 30.8125 30.421875 30.8125 
L 19.671875 30.8125 
L 19.671875 0 
L 9.8125 0 
L 9.8125 72.90625 
L 32.078125 72.90625 
Q 44.578125 72.90625 50.734375 67.671875 
Q 56.890625 62.453125 56.890625 51.90625 
Q 56.890625 45.015625 53.6875 40.46875 
Q 50.484375 35.9375 44.390625 34.1875 
z
M 19.671875 64.796875 
L 19.671875 38.921875 
L 32.078125 38.921875 
Q 39.203125 38.921875 42.84375 42.21875 
Q 46.484375 45.515625 46.484375 51.90625 
Q 46.484375 58.296875 42.84375 61.546875 
Q 39.203125 64.796875 32.078125 64.796875 
z
" id="DejaVuSans-82"/>
     </defs>
     <use xlink:href="#DejaVuSans-80"/>
     <use x="55.802734" xlink:href="#DejaVuSans-97"/>
     <use x="117.082031" xlink:href="#DejaVuSans-114"/>
     <use x="155.945312" xlink:href="#DejaVuSans-101"/>
     <use x="217.46875" xlink:href="#DejaVuSans-116"/>
     <use x="256.677734" xlink:href="#DejaVuSans-111"/>
     <use x="319.734375" xlink:href="#DejaVuSans-45"/>
     <use x="355.818359" xlink:href="#DejaVuSans-102"/>
     <use x="391.023438" xlink:href="#DejaVuSans-114"/>
     <use x="429.886719" xlink:href="#DejaVuSans-111"/>
     <use x="491.068359" xlink:href="#DejaVuSans-110"/>
     <use x="554.447266" xlink:href="#DejaVuSans-116"/>
     <use x="593.65625" xlink:href="#DejaVuSans-32"/>
     <use x="625.443359" xlink:href="#DejaVuSans-111"/>
     <use x="686.625" xlink:href="#DejaVuSans-102"/>
     <use x="721.830078" xlink:href="#DejaVuSans-32"/>
     <use x="753.617188" xlink:href="#DejaVuSans-82"/>
     <use x="823.099609" xlink:href="#DejaVuSans-49"/>
     <use x="886.722656" xlink:href="#DejaVuSans-48"/>
     <use x="950.345703" xlink:href="#DejaVuSans-49"/>
     <use x="1013.96875" xlink:href="#DejaVuSans-45"/>
     <use x="1050.052734" xlink:href="#DejaVuSans-53"/>
     <use x="1113.675781" xlink:href="#DejaVuSans-48"/>
    </g>
   </g>
  </g>
 </g>
 <defs>
  <clipPath id="p1a1fc5c2b6">
   <rect height="443.52" width="446.4" x="72" y="69.12"/>
  </clipPath>
 </defs>
</svg>
